<?xml version="1.0" standalone="yes"?>
<!-- SVG graphic -->
<svg xmlns='http://www.w3.org/2000/svg' xmlns:xlink='http://www.w3.org/1999/xlink'
width="195px" height="195px" preserveAspectRatio="xMinYMin meet" viewBox="0 0 195 195" version="1.1">
<rect x="5" y="0" width="2.5" height="2.5" fill="blue"/>
<rect x="10" y="0" width="2.5" height="2.5" fill="blue"/>
<rect x="15" y="0" width="2.5" height="2.5" fill="blue"/>
<rect x="115" y="0" width="2.5" height="2.5" fill="blue"/>
<rect x="120" y="0" width="2.5" height="2.5" fill="blue"/>
<rect x="125" y="0" width="2.5" height="2.5" fill="blue"/>
<rect x="130" y="0" width="2.5" height="2.5" fill="blue"/>
<rect x="155" y="0" width="2.5" height="2.5" fill="blue"/>
<rect x="10" y="5" width="2.5" height="2.5" fill="blue"/>
<rect x="15" y="5" width="2.5" height="2.5" fill="blue"/>
<rect x="115" y="5" width="2.5" height="2.5" fill="blue"/>
<rect x="120" y="5" width="2.5" height="2.5" fill="blue"/>
<rect x="125" y="5" width="2.5" height="2.5" fill="blue"/>
<rect x="130" y="5" width="2.5" height="2.5" fill="blue"/>
<rect x="155" y="5" width="2.5" height="2.5" fill="blue"/>
<rect x="15" y="10" width="2.5" height="2.5" fill="blue"/>
<rect x="20" y="10" width="2.5" height="2.5" fill="blue"/>
<rect x="25" y="10" width="2.5" height="2.5" fill="blue"/>
<rect x="120" y="10" width="2.5" height="2.5" fill="blue"/>
<rect x="125" y="10" width="2.5" height="2.5" fill="blue"/>
<rect x="130" y="10" width="2.5" height="2.5" fill="blue"/>
<rect x="155" y="10" width="2.5" height="2.5" fill="blue"/>
<rect x="160" y="10" width="2.5" height="2.5" fill="blue"/>
<rect x="20" y="15" width="2.5" height="2.5" fill="blue"/>
<rect x="25" y="15" width="2.5" height="2.5" fill="blue"/>
<rect x="30" y="15" width="2.5" height="2.5" fill="blue"/>
<rect x="155" y="15" width="2.5" height="2.5" fill="blue"/>
<rect x="160" y="15" width="2.5" height="2.5" fill="blue"/>
<rect x="25" y="20" width="2.5" height="2.5" fill="blue"/>
<rect x="30" y="20" width="2.5" height="2.5" fill="blue"/>
<rect x="35" y="20" width="2.5" height="2.5" fill="blue"/>
<rect x="155" y="20" width="2.5" height="2.5" fill="blue"/>
<rect x="160" y="20" width="2.5" height="2.5" fill="blue"/>
<rect x="165" y="20" width="2.5" height="2.5" fill="blue"/>
<rect x="30" y="25" width="2.5" height="2.5" fill="blue"/>
<rect x="35" y="25" width="2.5" height="2.5" fill="blue"/>
<rect x="40" y="25" width="2.5" height="2.5" fill="blue"/>
<rect x="160" y="25" width="2.5" height="2.5" fill="blue"/>
<rect x="165" y="25" width="2.5" height="2.5" fill="blue"/>
<rect x="35" y="30" width="2.5" height="2.5" fill="blue"/>
<rect x="40" y="30" width="2.5" height="2.5" fill="blue"/>
<rect x="160" y="30" width="2.5" height="2.5" fill="blue"/>
<rect x="165" y="30" width="2.5" height="2.5" fill="blue"/>
<rect x="170" y="30" width="2.5" height="2.5" fill="blue"/>
<rect x="40" y="35" width="2.5" height="2.5" fill="blue"/>
<rect x="45" y="35" width="2.5" height="2.5" fill="blue"/>
<rect x="165" y="35" width="2.5" height="2.5" fill="blue"/>
<rect x="170" y="35" width="2.5" height="2.5" fill="blue"/>
<rect x="45" y="40" width="2.5" height="2.5" fill="blue"/>
<rect x="50" y="40" width="2.5" height="2.5" fill="blue"/>
<rect x="55" y="40" width="2.5" height="2.5" fill="blue"/>
<rect x="170" y="40" width="2.5" height="2.5" fill="blue"/>
<rect x="50" y="45" width="2.5" height="2.5" fill="blue"/>
<rect x="55" y="45" width="2.5" height="2.5" fill="blue"/>
<rect x="165" y="45" width="2.5" height="2.5" fill="blue"/>
<rect x="170" y="45" width="2.5" height="2.5" fill="blue"/>
<rect x="175" y="45" width="2.5" height="2.5" fill="blue"/>
<rect x="55" y="50" width="2.5" height="2.5" fill="blue"/>
<rect x="60" y="50" width="2.5" height="2.5" fill="blue"/>
<rect x="175" y="50" width="2.5" height="2.5" fill="blue"/>
<rect x="60" y="55" width="2.5" height="2.5" fill="blue"/>
<rect x="65" y="55" width="2.5" height="2.5" fill="blue"/>
<rect x="175" y="55" width="2.5" height="2.5" fill="blue"/>
<rect x="65" y="60" width="2.5" height="2.5" fill="blue"/>
<rect x="70" y="60" width="2.5" height="2.5" fill="blue"/>
<rect x="75" y="60" width="2.5" height="2.5" fill="blue"/>
<rect x="175" y="60" width="2.5" height="2.5" fill="blue"/>
<rect x="70" y="65" width="2.5" height="2.5" fill="blue"/>
<rect x="75" y="65" width="2.5" height="2.5" fill="blue"/>
<rect x="75" y="70" width="2.5" height="2.5" fill="blue"/>
<rect x="80" y="75" width="2.5" height="2.5" fill="blue"/>
<rect x="85" y="75" width="2.5" height="2.5" fill="blue"/>
<rect x="85" y="80" width="2.5" height="2.5" fill="blue"/>
<rect x="90" y="80" width="2.5" height="2.5" fill="blue"/>
<rect x="95" y="80" width="2.5" height="2.5" fill="blue"/>
<rect x="150" y="80" width="2.5" height="2.5" fill="blue"/>
<rect x="90" y="85" width="2.5" height="2.5" fill="blue"/>
<rect x="95" y="85" width="2.5" height="2.5" fill="blue"/>
<rect x="100" y="85" width="2.5" height="2.5" fill="blue"/>
<rect x="145" y="85" width="2.5" height="2.5" fill="blue"/>
<rect x="150" y="85" width="2.5" height="2.5" fill="blue"/>
<rect x="95" y="90" width="2.5" height="2.5" fill="blue"/>
<rect x="100" y="90" width="2.5" height="2.5" fill="blue"/>
<rect x="145" y="90" width="2.5" height="2.5" fill="blue"/>
<rect x="150" y="90" width="2.5" height="2.5" fill="blue"/>
<rect x="100" y="95" width="2.5" height="2.5" fill="blue"/>
<rect x="105" y="95" width="2.5" height="2.5" fill="blue"/>
<rect x="140" y="95" width="2.5" height="2.5" fill="blue"/>
<rect x="145" y="95" width="2.5" height="2.5" fill="blue"/>
<rect x="150" y="95" width="2.5" height="2.5" fill="blue"/>
<rect x="105" y="100" width="2.5" height="2.5" fill="blue"/>
<rect x="110" y="100" width="2.5" height="2.5" fill="blue"/>
<rect x="140" y="100" width="2.5" height="2.5" fill="blue"/>
<rect x="145" y="100" width="2.5" height="2.5" fill="blue"/>
<rect x="110" y="105" width="2.5" height="2.5" fill="blue"/>
<rect x="115" y="105" width="2.5" height="2.5" fill="blue"/>
<rect x="135" y="105" width="2.5" height="2.5" fill="blue"/>
<rect x="140" y="105" width="2.5" height="2.5" fill="blue"/>
<rect x="145" y="105" width="2.5" height="2.5" fill="blue"/>
<rect x="115" y="110" width="2.5" height="2.5" fill="blue"/>
<rect x="120" y="110" width="2.5" height="2.5" fill="blue"/>
<rect x="130" y="110" width="2.5" height="2.5" fill="blue"/>
<rect x="135" y="110" width="2.5" height="2.5" fill="blue"/>
<rect x="140" y="110" width="2.5" height="2.5" fill="blue"/>
<rect x="120" y="115" width="2.5" height="2.5" fill="blue"/>
<rect x="125" y="115" width="2.5" height="2.5" fill="blue"/>
<rect x="130" y="115" width="2.5" height="2.5" fill="blue"/>
<rect x="135" y="115" width="2.5" height="2.5" fill="blue"/>
<rect x="125" y="120" width="2.5" height="2.5" fill="blue"/>
<rect x="130" y="120" width="2.5" height="2.5" fill="blue"/>
<rect x="135" y="120" width="2.5" height="2.5" fill="blue"/>
<rect x="130" y="125" width="2.5" height="2.5" fill="blue"/>
<rect x="135" y="125" width="2.5" height="2.5" fill="blue"/>
<rect x="135" y="130" width="2.5" height="2.5" fill="blue"/>
<rect x="140" y="135" width="2.5" height="2.5" fill="blue"/>
<rect x="145" y="140" width="2.5" height="2.5" fill="blue"/>
<rect x="150" y="145" width="2.5" height="2.5" fill="blue"/>
<rect x="160" y="155" width="2.5" height="2.5" fill="blue"/>
<rect x="165" y="155" width="2.5" height="2.5" fill="blue"/>
<rect x="165" y="160" width="2.5" height="2.5" fill="blue"/>
<rect x="170" y="160" width="2.5" height="2.5" fill="blue"/>
<rect x="170" y="165" width="2.5" height="2.5" fill="blue"/>
<rect x="175" y="170" width="2.5" height="2.5" fill="blue"/>
<text x="185" y="5" font-size="5" fill="black">0</text>
<text x="185" y="175" font-size="5" fill="black">36</text>
<polyline points="185,10,185,170" stroke="black" stroke-width="1" fill="none"/>
<text x="5" y="185" font-size="5" fill="black">0</text>
<text x="175" y="185" font-size="5" fill="black">36</text>
<polyline points="10,185,170,185" stroke="black" stroke-width="1" fill="none"/>
</svg>