<?xml version="1.0" encoding="UTF-8" standalone="no"?>
<!DOCTYPE svg PUBLIC "-//W3C//DTD SVG 1.1//EN"
 "http://www.w3.org/Graphics/SVG/1.1/DTD/svg11.dtd">
<!-- Generated by graphviz version 2.38.0 (20140413.2041)
 -->
<!-- Title: 1 Pages: 1 -->
<svg width="302pt" height="352pt"
 viewBox="0.00 0.00 302.01 352.00" xmlns="http://www.w3.org/2000/svg" xmlns:xlink="http://www.w3.org/1999/xlink">
<g id="graph0" class="graph" transform="scale(1 1) rotate(0) translate(156.944 174.385)">
<title>1</title>
<polygon fill="white" stroke="none" points="-156.944,177.619 -156.944,-174.385 145.07,-174.385 145.07,177.619 -156.944,177.619"/>
<!-- n10 -->
<g id="node1" class="node"><title>n10</title>
<ellipse fill="none" stroke="black" cx="-93.1109" cy="-146.337" rx="24.0958" ry="24.0958"/>
<text text-anchor="middle" x="-93.1109" y="-142.637" font-family="Times,serif" font-size="14.00">n10</text>
</g>
<!-- n11 -->
<g id="node2" class="node"><title>n11</title>
<ellipse fill="none" stroke="black" cx="10.884" cy="-131.217" rx="24.0958" ry="24.0958"/>
<text text-anchor="middle" x="10.884" y="-127.517" font-family="Times,serif" font-size="14.00">n11</text>
</g>
<!-- n10&#45;&#45;n11 -->
<g id="edge1" class="edge"><title>n10&#45;&#45;n11</title>
<path fill="none" stroke="black" d="M-69.2524,-142.868C-52.4617,-140.427 -30.0693,-137.171 -13.2236,-134.722"/>
</g>
<!-- n9 -->
<g id="node3" class="node"><title>n9</title>
<ellipse fill="none" stroke="black" cx="-133.446" cy="-48.0123" rx="19.4965" ry="19.4965"/>
<text text-anchor="middle" x="-133.446" y="-44.3123" font-family="Times,serif" font-size="14.00">n9</text>
</g>
<!-- n9&#45;&#45;n10 -->
<g id="edge3" class="edge"><title>n9&#45;&#45;n10</title>
<path fill="none" stroke="black" d="M-125.859,-66.5065C-119.196,-82.7503 -109.481,-106.431 -102.363,-123.783"/>
</g>
<!-- n9&#45;&#45;n11 -->
<g id="edge2" class="edge"><title>n9&#45;&#45;n11</title>
<path fill="none" stroke="black" d="M-116.323,-57.8837C-89.8891,-73.1224 -39.198,-102.345 -10.4293,-118.93"/>
</g>
<!-- n8 -->
<g id="node4" class="node"><title>n8</title>
<ellipse fill="none" stroke="black" cx="-58.758" cy="-64.1355" rx="19.4965" ry="19.4965"/>
<text text-anchor="middle" x="-58.758" y="-60.4355" font-family="Times,serif" font-size="14.00">n8</text>
</g>
<!-- n8&#45;&#45;n10 -->
<g id="edge5" class="edge"><title>n8&#45;&#45;n10</title>
<path fill="none" stroke="black" d="M-66.382,-82.3787C-71.5214,-94.6765 -78.3338,-110.978 -83.7947,-124.045"/>
</g>
<!-- n8&#45;&#45;n11 -->
<g id="edge4" class="edge"><title>n8&#45;&#45;n11</title>
<path fill="none" stroke="black" d="M-44.6649,-77.7105C-33.6952,-88.2768 -18.4103,-103 -6.65027,-114.327"/>
</g>
<!-- n8&#45;&#45;n9 -->
<g id="edge6" class="edge"><title>n8&#45;&#45;n9</title>
<path fill="none" stroke="black" d="M-77.992,-59.9834C-89.1432,-57.5761 -103.137,-54.5552 -114.277,-52.1504"/>
</g>
<!-- n7 -->
<g id="node5" class="node"><title>n7</title>
<ellipse fill="none" stroke="black" cx="28.6872" cy="-53.3603" rx="19.4965" ry="19.4965"/>
<text text-anchor="middle" x="28.6872" y="-49.6603" font-family="Times,serif" font-size="14.00">n7</text>
</g>
<!-- n7&#45;&#45;n10 -->
<g id="edge8" class="edge"><title>n7&#45;&#45;n10</title>
<path fill="none" stroke="black" d="M12.7642,-65.5154C-9.54657,-82.5468 -50.054,-113.469 -73.9753,-131.73"/>
</g>
<!-- n7&#45;&#45;n11 -->
<g id="edge7" class="edge"><title>n7&#45;&#45;n11</title>
<path fill="none" stroke="black" d="M24.2864,-72.6058C21.8563,-83.233 18.819,-96.516 16.2504,-107.749"/>
</g>
<!-- n7&#45;&#45;n9 -->
<g id="edge9" class="edge"><title>n7&#45;&#45;n9</title>
<path fill="none" stroke="black" d="M9.13017,-52.7152C-22.0325,-51.6873 -82.6132,-49.689 -113.819,-48.6597"/>
</g>
<!-- n7&#45;&#45;n8 -->
<g id="edge10" class="edge"><title>n7&#45;&#45;n8</title>
<path fill="none" stroke="black" d="M9.28028,-55.7517C-5.21088,-57.5373 -24.9272,-59.9668 -39.4053,-61.7508"/>
</g>
<!-- n6 -->
<g id="node6" class="node"><title>n6</title>
<ellipse fill="none" stroke="black" cx="13.9762" cy="23.8564" rx="19.4965" ry="19.4965"/>
<text text-anchor="middle" x="13.9762" y="27.5564" font-family="Times,serif" font-size="14.00">n6</text>
</g>
<!-- n6&#45;&#45;n11 -->
<g id="edge11" class="edge"><title>n6&#45;&#45;n11</title>
<path fill="none" stroke="black" d="M13.5846,4.21627C13.019,-24.1458 11.9747,-76.52 11.3637,-107.162"/>
</g>
<!-- n6&#45;&#45;n9 -->
<g id="edge12" class="edge"><title>n6&#45;&#45;n9</title>
<path fill="none" stroke="black" d="M-3.80633,15.1874C-32.1415,1.37388 -87.2254,-25.4797 -115.6,-39.3125"/>
</g>
<!-- n6&#45;&#45;n8 -->
<g id="edge13" class="edge"><title>n6&#45;&#45;n8</title>
<path fill="none" stroke="black" d="M1.30689,8.5294C-12.043,-7.62093 -32.939,-32.9004 -46.2338,-48.9841"/>
</g>
<!-- n6&#45;&#45;n7 -->
<g id="edge14" class="edge"><title>n6&#45;&#45;n7</title>
<path fill="none" stroke="black" d="M17.6884,4.37138C19.9355,-7.42345 22.7895,-22.4039 25.0271,-34.149"/>
</g>
<!-- n5 -->
<g id="node7" class="node"><title>n5</title>
<ellipse fill="none" stroke="black" cx="-32.7561" cy="92.3709" rx="19.4965" ry="19.4965"/>
<text text-anchor="middle" x="-32.7561" y="96.0709" font-family="Times,serif" font-size="14.00">n5</text>
</g>
<!-- n5&#45;&#45;n8 -->
<g id="edge15" class="edge"><title>n5&#45;&#45;n8</title>
<path fill="none" stroke="black" d="M-35.9967,72.8657C-41.0066,42.7111 -50.5733,-14.8713 -55.5583,-44.8761"/>
</g>
<!-- n5&#45;&#45;n7 -->
<g id="edge16" class="edge"><title>n5&#45;&#45;n7</title>
<path fill="none" stroke="black" d="M-25.0985,74.2086C-13.3244,46.2827 9.10102,-6.90584 20.9331,-34.9691"/>
</g>
<!-- n5&#45;&#45;n6 -->
<g id="edge17" class="edge"><title>n5&#45;&#45;n6</title>
<path fill="none" stroke="black" d="M-21.6812,76.1339C-14.2317,65.2122 -4.45206,50.8742 2.9808,39.9769"/>
</g>
<!-- n4 -->
<g id="node8" class="node"><title>n4</title>
<ellipse fill="none" stroke="black" cx="121.572" cy="59.8793" rx="19.4965" ry="19.4965"/>
<text text-anchor="middle" x="121.572" y="63.5793" font-family="Times,serif" font-size="14.00">n4</text>
</g>
<!-- n4&#45;&#45;n7 -->
<g id="edge18" class="edge"><title>n4&#45;&#45;n7</title>
<path fill="none" stroke="black" d="M109.045,44.6073C91.3174,22.9947 59.0932,-16.2911 41.3122,-37.9686"/>
</g>
<!-- n4&#45;&#45;n6 -->
<g id="edge19" class="edge"><title>n4&#45;&#45;n6</title>
<path fill="none" stroke="black" d="M102.83,53.6046C83.0817,46.9928 52.1703,36.6437 32.5032,30.0592"/>
</g>
<!-- n4&#45;&#45;n5 -->
<g id="edge20" class="edge"><title>n4&#45;&#45;n5</title>
<path fill="none" stroke="black" d="M102.338,63.9286C72.7648,70.1549 16.4387,82.0136 -13.28,88.2705"/>
</g>
<!-- n3 -->
<g id="node9" class="node"><title>n3</title>
<ellipse fill="none" stroke="black" cx="20.1076" cy="154.12" rx="19.4965" ry="19.4965"/>
<text text-anchor="middle" x="20.1076" y="157.82" font-family="Times,serif" font-size="14.00">n3</text>
</g>
<!-- n3&#45;&#45;n6 -->
<g id="edge21" class="edge"><title>n3&#45;&#45;n6</title>
<path fill="none" stroke="black" d="M19.1897,134.619C18.0338,110.061 16.0593,68.1117 14.9004,43.4916"/>
</g>
<!-- n3&#45;&#45;n5 -->
<g id="edge22" class="edge"><title>n3&#45;&#45;n5</title>
<path fill="none" stroke="black" d="M7.31079,139.173C-0.878483,129.607 -11.4724,117.232 -19.7099,107.61"/>
</g>
<!-- n3&#45;&#45;n4 -->
<g id="edge23" class="edge"><title>n3&#45;&#45;n4</title>
<path fill="none" stroke="black" d="M34.645,140.618C53.9333,122.703 87.7868,91.2593 107.062,73.3567"/>
</g>
<!-- n2 -->
<g id="node10" class="node"><title>n2</title>
<ellipse fill="none" stroke="black" cx="78.0465" cy="106.876" rx="19.4965" ry="19.4965"/>
<text text-anchor="middle" x="78.0465" y="110.576" font-family="Times,serif" font-size="14.00">n2</text>
</g>
<!-- n2&#45;&#45;n7 -->
<g id="edge24" class="edge"><title>n2&#45;&#45;n7</title>
<path fill="none" stroke="black" d="M72.2878,88.1811C62.8276,57.4703 44.0978,-3.33258 34.5623,-34.288"/>
</g>
<!-- n2&#45;&#45;n6 -->
<g id="edge25" class="edge"><title>n2&#45;&#45;n6</title>
<path fill="none" stroke="black" d="M65.9954,91.2605C54.5406,76.4179 37.4102,54.2211 25.9733,39.4017"/>
</g>
<!-- n2&#45;&#45;n5 -->
<g id="edge26" class="edge"><title>n2&#45;&#45;n5</title>
<path fill="none" stroke="black" d="M58.4923,104.316C38.2387,101.665 6.78371,97.547 -13.3974,94.9051"/>
</g>
<!-- n2&#45;&#45;n4 -->
<g id="edge27" class="edge"><title>n2&#45;&#45;n4</title>
<path fill="none" stroke="black" d="M91.342,92.5199C96.6421,86.7972 102.736,80.2175 108.057,74.4716"/>
</g>
<!-- n2&#45;&#45;n3 -->
<g id="edge28" class="edge"><title>n2&#45;&#45;n3</title>
<path fill="none" stroke="black" d="M62.8237,119.289C54.3747,126.178 43.8948,134.724 35.4299,141.626"/>
</g>
<!-- n1 -->
<g id="node11" class="node"><title>n1</title>
<ellipse fill="none" stroke="black" cx="89.4044" cy="-9.55801" rx="19.4965" ry="19.4965"/>
<text text-anchor="middle" x="89.4044" y="-5.85801" font-family="Times,serif" font-size="14.00">n1</text>
</g>
<!-- n1&#45;&#45;n11 -->
<g id="edge29" class="edge"><title>n1&#45;&#45;n11</title>
<path fill="none" stroke="black" d="M78.8148,-25.9655C64.6659,-47.8878 39.5933,-86.7351 24.1859,-110.607"/>
</g>
<!-- n1&#45;&#45;n8 -->
<g id="edge30" class="edge"><title>n1&#45;&#45;n8</title>
<path fill="none" stroke="black" d="M70.9391,-16.3599C42.5473,-26.8184 -11.5285,-46.7379 -40.06,-57.2479"/>
</g>
<!-- n1&#45;&#45;n7 -->
<g id="edge31" class="edge"><title>n1&#45;&#45;n7</title>
<path fill="none" stroke="black" d="M73.4517,-21.0666C64.5975,-27.4541 53.615,-35.377 44.7442,-41.7766"/>
</g>
<!-- n1&#45;&#45;n6 -->
<g id="edge32" class="edge"><title>n1&#45;&#45;n6</title>
<path fill="none" stroke="black" d="M71.529,-1.63926C59.5923,3.64868 43.9489,10.5786 31.9847,15.8787"/>
</g>
<!-- n1&#45;&#45;n5 -->
<g id="edge33" class="edge"><title>n1&#45;&#45;n5</title>
<path fill="none" stroke="black" d="M74.4251,2.94048C50.9792,22.5034 5.8668,60.1445 -17.6543,79.7702"/>
</g>
<!-- n1&#45;&#45;n4 -->
<g id="edge34" class="edge"><title>n1&#45;&#45;n4</title>
<path fill="none" stroke="black" d="M97.6883,8.32381C102.454,18.6107 108.425,31.4996 113.204,41.8167"/>
</g>
<!-- n1&#45;&#45;n3 -->
<g id="edge35" class="edge"><title>n1&#45;&#45;n3</title>
<path fill="none" stroke="black" d="M81.7237,8.58382C68.4034,40.0462 41.167,104.378 27.8228,135.897"/>
</g>
<!-- n1&#45;&#45;n2 -->
<g id="edge36" class="edge"><title>n1&#45;&#45;n2</title>
<path fill="none" stroke="black" d="M87.5034,9.93039C85.4068,31.4234 82.0528,65.8054 79.9538,87.3238"/>
</g>
<!-- n0 -->
<g id="node12" class="node"><title>n0</title>
<ellipse fill="none" stroke="black" cx="-44.607" cy="15.5175" rx="19.4965" ry="19.4965"/>
<text text-anchor="middle" x="-44.607" y="19.2175" font-family="Times,serif" font-size="14.00">n0</text>
</g>
<!-- n0&#45;&#45;n10 -->
<g id="edge38" class="edge"><title>n0&#45;&#45;n10</title>
<path fill="none" stroke="black" d="M-50.2659,-3.36609C-59.1873,-33.1362 -76.4979,-90.9005 -86.1613,-123.147"/>
</g>
<!-- n0&#45;&#45;n11 -->
<g id="edge37" class="edge"><title>n0&#45;&#45;n11</title>
<path fill="none" stroke="black" d="M-37.6912,-2.76988C-27.5806,-29.5052 -8.77358,-79.2366 2.23734,-108.353"/>
</g>
<!-- n0&#45;&#45;n9 -->
<g id="edge39" class="edge"><title>n0&#45;&#45;n9</title>
<path fill="none" stroke="black" d="M-60.4896,4.1596C-76.5602,-7.33266 -101.273,-25.005 -117.401,-36.5386"/>
</g>
<!-- n0&#45;&#45;n8 -->
<g id="edge40" class="edge"><title>n0&#45;&#45;n8</title>
<path fill="none" stroke="black" d="M-48.0325,-3.76431C-50.2411,-16.1957 -53.103,-32.3045 -55.3149,-44.7552"/>
</g>
<!-- n0&#45;&#45;n7 -->
<g id="edge41" class="edge"><title>n0&#45;&#45;n7</title>
<path fill="none" stroke="black" d="M-30.1264,1.90942C-17.2769,-10.1658 1.39634,-27.7139 14.2367,-39.7806"/>
</g>
<!-- n0&#45;&#45;n6 -->
<g id="edge42" class="edge"><title>n0&#45;&#45;n6</title>
<path fill="none" stroke="black" d="M-25.0996,18.2942C-18.8421,19.1849 -11.9114,20.1715 -5.6457,21.0634"/>
</g>
<!-- n0&#45;&#45;n5 -->
<g id="edge43" class="edge"><title>n0&#45;&#45;n5</title>
<path fill="none" stroke="black" d="M-41.6165,34.9108C-39.82,46.5612 -37.542,61.3345 -35.7457,72.9838"/>
</g>
<!-- n0&#45;&#45;n4 -->
<g id="edge44" class="edge"><title>n0&#45;&#45;n4</title>
<path fill="none" stroke="black" d="M-25.5442,20.6063C6.51118,29.1636 70.8259,46.3325 102.731,54.8497"/>
</g>
<!-- n0&#45;&#45;n3 -->
<g id="edge45" class="edge"><title>n0&#45;&#45;n3</title>
<path fill="none" stroke="black" d="M-36.2792,33.3536C-23.8531,59.9672 -0.595654,109.779 11.8118,136.353"/>
</g>
<!-- n0&#45;&#45;n2 -->
<g id="edge46" class="edge"><title>n0&#45;&#45;n2</title>
<path fill="none" stroke="black" d="M-28.8233,27.2739C-5.27223,44.8159 38.8076,77.6487 62.3234,95.1644"/>
</g>
<!-- n0&#45;&#45;n1 -->
<g id="edge47" class="edge"><title>n0&#45;&#45;n1</title>
<path fill="none" stroke="black" d="M-25.4064,11.9248C-0.0756077,7.18499 44.2744,-1.11353 69.8037,-5.89043"/>
</g>
</g>
</svg>
