<?xml version="1.0" encoding="UTF-8" standalone="no"?>
<!DOCTYPE svg PUBLIC "-//W3C//DTD SVG 1.1//EN"
 "http://www.w3.org/Graphics/SVG/1.1/DTD/svg11.dtd">
<!-- Generated by graphviz version 2.38.0 (20140413.2041)
 -->
<!-- Title: 1 Pages: 1 -->
<svg width="274pt" height="271pt"
 viewBox="0.00 0.00 273.68 270.99" xmlns="http://www.w3.org/2000/svg" xmlns:xlink="http://www.w3.org/1999/xlink">
<g id="graph0" class="graph" transform="scale(1 1) rotate(0) translate(140.623 137.258)">
<title>1</title>
<polygon fill="white" stroke="none" points="-140.623,133.733 -140.623,-137.258 133.056,-137.258 133.056,133.733 -140.623,133.733"/>
<!-- n10 -->
<g id="node1" class="node"><title>n10</title>
<ellipse fill="none" stroke="black" cx="-112.575" cy="5.09358" rx="24.0958" ry="24.0958"/>
<text text-anchor="middle" x="-112.575" y="8.79358" font-family="Times,serif" font-size="14.00">n10</text>
</g>
<!-- n11 -->
<g id="node2" class="node"><title>n11</title>
<ellipse fill="none" stroke="black" cx="99.4805" cy="-43.1133" rx="24.0958" ry="24.0958"/>
<text text-anchor="middle" x="99.4805" y="-39.4133" font-family="Times,serif" font-size="14.00">n11</text>
</g>
<!-- n10&#45;&#45;n11 -->
<g id="edge1" class="edge"><title>n10&#45;&#45;n11</title>
<path fill="none" stroke="black" d="M-89.071,-0.249587C-48.3096,-9.51595 35.0368,-28.4632 75.8714,-37.7462"/>
</g>
<!-- n9 -->
<g id="node3" class="node"><title>n9</title>
<ellipse fill="none" stroke="black" cx="-7.95421" cy="110.235" rx="19.4965" ry="19.4965"/>
<text text-anchor="middle" x="-7.95421" y="113.935" font-family="Times,serif" font-size="14.00">n9</text>
</g>
<!-- n9&#45;&#45;n10 -->
<g id="edge3" class="edge"><title>n9&#45;&#45;n10</title>
<path fill="none" stroke="black" d="M-22.0638,96.0551C-41.139,76.885 -75.1153,42.7396 -95.5748,22.1782"/>
</g>
<!-- n9&#45;&#45;n11 -->
<g id="edge2" class="edge"><title>n9&#45;&#45;n11</title>
<path fill="none" stroke="black" d="M3.34013,94.1139C23.1657,65.8155 64.1583,7.30427 85.6484,-23.3699"/>
</g>
<!-- n8 -->
<g id="node4" class="node"><title>n8</title>
<ellipse fill="none" stroke="black" cx="-24.5155" cy="-113.76" rx="19.4965" ry="19.4965"/>
<text text-anchor="middle" x="-24.5155" y="-110.06" font-family="Times,serif" font-size="14.00">n8</text>
</g>
<!-- n8&#45;&#45;n10 -->
<g id="edge5" class="edge"><title>n8&#45;&#45;n10</title>
<path fill="none" stroke="black" d="M-36.3915,-97.7307C-52.3532,-76.1873 -80.711,-37.9128 -97.9626,-14.6285"/>
</g>
<!-- n8&#45;&#45;n11 -->
<g id="edge4" class="edge"><title>n8&#45;&#45;n11</title>
<path fill="none" stroke="black" d="M-7.53433,-104.085C14.8842,-91.3119 54.341,-68.8315 78.5701,-55.027"/>
</g>
<!-- n8&#45;&#45;n9 -->
<g id="edge6" class="edge"><title>n8&#45;&#45;n9</title>
<path fill="none" stroke="black" d="M-23.0747,-94.2736C-19.9426,-51.911 -12.5432,48.168 -9.4034,90.6343"/>
</g>
<!-- n7 -->
<g id="node5" class="node"><title>n7</title>
<ellipse fill="none" stroke="black" cx="57.1568" cy="-94.6595" rx="19.4965" ry="19.4965"/>
<text text-anchor="middle" x="57.1568" y="-90.9595" font-family="Times,serif" font-size="14.00">n7</text>
</g>
<!-- n7&#45;&#45;n10 -->
<g id="edge8" class="edge"><title>n7&#45;&#45;n10</title>
<path fill="none" stroke="black" d="M40.2617,-84.7301C8.98536,-66.3486 -57.8361,-27.077 -91.8128,-7.10846"/>
</g>
<!-- n7&#45;&#45;n11 -->
<g id="edge7" class="edge"><title>n7&#45;&#45;n11</title>
<path fill="none" stroke="black" d="M69.6264,-79.4727C74.113,-74.0085 79.2305,-67.7758 83.9461,-62.0328"/>
</g>
<!-- n7&#45;&#45;n9 -->
<g id="edge9" class="edge"><title>n7&#45;&#45;n9</title>
<path fill="none" stroke="black" d="M51.148,-75.7507C38.7441,-36.7175 10.4315,52.3778 -1.95996,91.372"/>
</g>
<!-- n7&#45;&#45;n8 -->
<g id="edge10" class="edge"><title>n7&#45;&#45;n8</title>
<path fill="none" stroke="black" d="M37.8016,-99.186C24.7824,-102.231 7.69089,-106.228 -5.29922,-109.266"/>
</g>
<!-- n6 -->
<g id="node6" class="node"><title>n6</title>
<ellipse fill="none" stroke="black" cx="-9.25565" cy="-55.8363" rx="19.4965" ry="19.4965"/>
<text text-anchor="middle" x="-9.25565" y="-52.1363" font-family="Times,serif" font-size="14.00">n6</text>
</g>
<!-- n6&#45;&#45;n10 -->
<g id="edge12" class="edge"><title>n6&#45;&#45;n10</title>
<path fill="none" stroke="black" d="M-26.3167,-45.7749C-44.1992,-35.2292 -72.3183,-18.6467 -91.5577,-7.30073"/>
</g>
<!-- n6&#45;&#45;n11 -->
<g id="edge11" class="edge"><title>n6&#45;&#45;n11</title>
<path fill="none" stroke="black" d="M10.1842,-53.5617C28.388,-51.4317 55.6515,-48.2416 75.2619,-45.9471"/>
</g>
<!-- n6&#45;&#45;n9 -->
<g id="edge13" class="edge"><title>n6&#45;&#45;n9</title>
<path fill="none" stroke="black" d="M-9.10124,-36.1336C-8.85077,-4.17168 -8.35876,58.6125 -8.10841,90.5579"/>
</g>
<!-- n6&#45;&#45;n8 -->
<g id="edge14" class="edge"><title>n6&#45;&#45;n8</title>
<path fill="none" stroke="black" d="M-14.2523,-74.8026C-15.9212,-81.1374 -17.7817,-88.1995 -19.4554,-94.5525"/>
</g>
<!-- n6&#45;&#45;n7 -->
<g id="edge15" class="edge"><title>n6&#45;&#45;n7</title>
<path fill="none" stroke="black" d="M7.8472,-65.8342C17.686,-71.5857 30.0133,-78.792 39.881,-84.5605"/>
</g>
<!-- n5 -->
<g id="node7" class="node"><title>n5</title>
<ellipse fill="none" stroke="black" cx="-79.3408" cy="82.7093" rx="19.4965" ry="19.4965"/>
<text text-anchor="middle" x="-79.3408" y="86.4093" font-family="Times,serif" font-size="14.00">n5</text>
</g>
<!-- n5&#45;&#45;n10 -->
<g id="edge17" class="edge"><title>n5&#45;&#45;n10</title>
<path fill="none" stroke="black" d="M-87.0489,64.7076C-91.8043,53.6016 -97.9418,39.268 -103.007,27.4391"/>
</g>
<!-- n5&#45;&#45;n11 -->
<g id="edge16" class="edge"><title>n5&#45;&#45;n11</title>
<path fill="none" stroke="black" d="M-63.1562,71.3215C-30.3143,48.2132 44.0541,-4.114 79.7019,-29.1967"/>
</g>
<!-- n5&#45;&#45;n9 -->
<g id="edge18" class="edge"><title>n5&#45;&#45;n9</title>
<path fill="none" stroke="black" d="M-60.9569,89.7979C-50.3813,93.8757 -37.1306,98.985 -26.5238,103.075"/>
</g>
<!-- n5&#45;&#45;n8 -->
<g id="edge19" class="edge"><title>n5&#45;&#45;n8</title>
<path fill="none" stroke="black" d="M-74.0839,63.871C-63.6045,26.3178 -40.2227,-57.4721 -29.7564,-94.9785"/>
</g>
<!-- n5&#45;&#45;n7 -->
<g id="edge20" class="edge"><title>n5&#45;&#45;n7</title>
<path fill="none" stroke="black" d="M-67.2275,66.969C-41.3248,33.3103 19.1921,-45.3271 45.0707,-78.9544"/>
</g>
<!-- n5&#45;&#45;n6 -->
<g id="edge21" class="edge"><title>n5&#45;&#45;n6</title>
<path fill="none" stroke="black" d="M-70.4644,65.1624C-56.9832,38.5126 -31.4982,-11.8668 -18.0599,-38.4318"/>
</g>
<!-- n4 -->
<g id="node8" class="node"><title>n4</title>
<ellipse fill="none" stroke="black" cx="109.558" cy="27.0818" rx="19.4965" ry="19.4965"/>
<text text-anchor="middle" x="109.558" y="30.7818" font-family="Times,serif" font-size="14.00">n4</text>
</g>
<!-- n4&#45;&#45;n10 -->
<g id="edge23" class="edge"><title>n4&#45;&#45;n10</title>
<path fill="none" stroke="black" d="M89.8451,25.1305C49.0719,21.0945 -44.4027,11.8417 -88.5917,7.4676"/>
</g>
<!-- n4&#45;&#45;n11 -->
<g id="edge22" class="edge"><title>n4&#45;&#45;n11</title>
<path fill="none" stroke="black" d="M106.751,7.52857C105.563,-0.747043 104.167,-10.4676 102.918,-19.1678"/>
</g>
<!-- n4&#45;&#45;n9 -->
<g id="edge24" class="edge"><title>n4&#45;&#45;n9</title>
<path fill="none" stroke="black" d="M93.2183,38.6439C70.7673,54.5306 30.6244,82.9362 8.24657,98.7711"/>
</g>
<!-- n4&#45;&#45;n8 -->
<g id="edge25" class="edge"><title>n4&#45;&#45;n8</title>
<path fill="none" stroke="black" d="M95.9644,12.8021C70.2672,-14.1923 14.8389,-72.4188 -10.886,-99.4423"/>
</g>
<!-- n4&#45;&#45;n7 -->
<g id="edge26" class="edge"><title>n4&#45;&#45;n7</title>
<path fill="none" stroke="black" d="M101.826,9.11849C91.9186,-13.8987 74.843,-53.5697 64.9204,-76.6224"/>
</g>
<!-- n4&#45;&#45;n6 -->
<g id="edge27" class="edge"><title>n4&#45;&#45;n6</title>
<path fill="none" stroke="black" d="M93.5342,15.8991C70.8578,0.0736519 29.6383,-28.6928 6.89366,-44.5659"/>
</g>
<!-- n4&#45;&#45;n5 -->
<g id="edge28" class="edge"><title>n4&#45;&#45;n5</title>
<path fill="none" stroke="black" d="M90.755,32.619C54.5469,43.2817 -24.4658,66.5496 -60.6139,77.1946"/>
</g>
<!-- n3 -->
<g id="node9" class="node"><title>n3</title>
<ellipse fill="none" stroke="black" cx="-44.4248" cy="27.0189" rx="19.4965" ry="19.4965"/>
<text text-anchor="middle" x="-44.4248" y="30.7189" font-family="Times,serif" font-size="14.00">n3</text>
</g>
<!-- n3&#45;&#45;n10 -->
<g id="edge30" class="edge"><title>n3&#45;&#45;n10</title>
<path fill="none" stroke="black" d="M-63.0471,21.0277C-71.2444,18.3905 -80.9554,15.2662 -89.5974,12.4859"/>
</g>
<!-- n3&#45;&#45;n11 -->
<g id="edge29" class="edge"><title>n3&#45;&#45;n11</title>
<path fill="none" stroke="black" d="M-26.7792,18.4193C-0.510839,5.61746 48.845,-18.4361 77.4482,-32.3758"/>
</g>
<!-- n3&#45;&#45;n9 -->
<g id="edge31" class="edge"><title>n3&#45;&#45;n9</title>
<path fill="none" stroke="black" d="M-36.5113,45.0756C-30.3939,59.0337 -21.9658,78.2643 -15.8524,92.2136"/>
</g>
<!-- n3&#45;&#45;n8 -->
<g id="edge32" class="edge"><title>n3&#45;&#45;n8</title>
<path fill="none" stroke="black" d="M-41.6565,7.44425C-37.8528,-19.4519 -31.0516,-67.5428 -27.2603,-94.3514"/>
</g>
<!-- n3&#45;&#45;n7 -->
<g id="edge33" class="edge"><title>n3&#45;&#45;n7</title>
<path fill="none" stroke="black" d="M-31.5595,11.6083C-12.0198,-11.7971 24.9184,-56.0431 44.3958,-79.3739"/>
</g>
<!-- n3&#45;&#45;n6 -->
<g id="edge34" class="edge"><title>n3&#45;&#45;n6</title>
<path fill="none" stroke="black" d="M-36.7937,9.04059C-30.935,-4.76181 -22.8785,-23.7422 -16.9934,-37.6069"/>
</g>
<!-- n3&#45;&#45;n5 -->
<g id="edge35" class="edge"><title>n3&#45;&#45;n5</title>
<path fill="none" stroke="black" d="M-54.9008,43.7279C-59.32,50.7765 -64.4538,58.9649 -68.8722,66.0122"/>
</g>
<!-- n3&#45;&#45;n4 -->
<g id="edge36" class="edge"><title>n3&#45;&#45;n4</title>
<path fill="none" stroke="black" d="M-24.9228,27.0269C4.53459,27.0389 60.0781,27.0616 89.7278,27.0737"/>
</g>
<!-- n2 -->
<g id="node10" class="node"><title>n2</title>
<ellipse fill="none" stroke="black" cx="63.4552" cy="93.511" rx="19.4965" ry="19.4965"/>
<text text-anchor="middle" x="63.4552" y="97.211" font-family="Times,serif" font-size="14.00">n2</text>
</g>
<!-- n2&#45;&#45;n10 -->
<g id="edge38" class="edge"><title>n2&#45;&#45;n10</title>
<path fill="none" stroke="black" d="M45.9332,84.71C13.4962,68.4174 -55.8048,33.6084 -91.0424,15.909"/>
</g>
<!-- n2&#45;&#45;n11 -->
<g id="edge37" class="edge"><title>n2&#45;&#45;n11</title>
<path fill="none" stroke="black" d="M68.4643,74.514C74.9604,49.878 86.288,6.91887 93.308,-19.7044"/>
</g>
<!-- n2&#45;&#45;n9 -->
<g id="edge39" class="edge"><title>n2&#45;&#45;n9</title>
<path fill="none" stroke="black" d="M44.3188,97.9928C34.0731,100.392 21.4887,103.34 11.235,105.741"/>
</g>
<!-- n2&#45;&#45;n8 -->
<g id="edge40" class="edge"><title>n2&#45;&#45;n8</title>
<path fill="none" stroke="black" d="M55.8022,75.4797C39.165,36.28 -0.139582,-56.3269 -16.8176,-95.6225"/>
</g>
<!-- n2&#45;&#45;n7 -->
<g id="edge41" class="edge"><title>n2&#45;&#45;n7</title>
<path fill="none" stroke="black" d="M62.793,73.7292C61.5802,37.4951 59.0162,-39.1065 57.81,-75.1426"/>
</g>
<!-- n2&#45;&#45;n6 -->
<g id="edge42" class="edge"><title>n2&#45;&#45;n6</title>
<path fill="none" stroke="black" d="M54.8287,75.7925C40.8349,47.0493 13.3462,-9.41237 -0.640458,-38.1407"/>
</g>
<!-- n2&#45;&#45;n5 -->
<g id="edge43" class="edge"><title>n2&#45;&#45;n5</title>
<path fill="none" stroke="black" d="M43.8994,92.0318C16.707,89.9748 -32.2526,86.2713 -59.563,84.2054"/>
</g>
<!-- n2&#45;&#45;n4 -->
<g id="edge44" class="edge"><title>n2&#45;&#45;n4</title>
<path fill="none" stroke="black" d="M74.6153,77.4304C81.7572,67.1397 90.9963,53.8272 98.1802,43.4759"/>
</g>
<!-- n2&#45;&#45;n3 -->
<g id="edge45" class="edge"><title>n2&#45;&#45;n3</title>
<path fill="none" stroke="black" d="M46.5989,83.1217C26.3319,70.63 -7.47283,49.7944 -27.687,37.3354"/>
</g>
<!-- n1 -->
<g id="node11" class="node"><title>n1</title>
<ellipse fill="none" stroke="black" cx="39.1821" cy="25.4132" rx="19.4965" ry="19.4965"/>
<text text-anchor="middle" x="39.1821" y="29.1132" font-family="Times,serif" font-size="14.00">n1</text>
</g>
<!-- n1&#45;&#45;n10 -->
<g id="edge47" class="edge"><title>n1&#45;&#45;n10</title>
<path fill="none" stroke="black" d="M19.6532,22.7984C-8.04515,19.0897 -58.6934,12.3081 -88.624,8.3005"/>
</g>
<!-- n1&#45;&#45;n11 -->
<g id="edge46" class="edge"><title>n1&#45;&#45;n11</title>
<path fill="none" stroke="black" d="M52.2659,10.544C61.4102,0.151961 73.6773,-13.7891 83.4157,-24.8564"/>
</g>
<!-- n1&#45;&#45;n9 -->
<g id="edge48" class="edge"><title>n1&#45;&#45;n9</title>
<path fill="none" stroke="black" d="M29.6433,42.5782C21.4654,57.2943 9.74416,78.3867 1.57033,93.0955"/>
</g>
<!-- n1&#45;&#45;n8 -->
<g id="edge49" class="edge"><title>n1&#45;&#45;n8</title>
<path fill="none" stroke="black" d="M30.9851,7.50369C18.7544,-19.2193 -4.13755,-69.236 -16.35,-95.919"/>
</g>
<!-- n1&#45;&#45;n7 -->
<g id="edge50" class="edge"><title>n1&#45;&#45;n7</title>
<path fill="none" stroke="black" d="M42.07,6.12146C45.4044,-16.1528 50.8597,-52.5948 54.2163,-75.0167"/>
</g>
<!-- n1&#45;&#45;n6 -->
<g id="edge51" class="edge"><title>n1&#45;&#45;n6</title>
<path fill="none" stroke="black" d="M29.1457,8.57826C20.8326,-5.36615 9.07738,-25.0844 0.767821,-39.0229"/>
</g>
<!-- n1&#45;&#45;n5 -->
<g id="edge52" class="edge"><title>n1&#45;&#45;n5</title>
<path fill="none" stroke="black" d="M21.438,33.991C-0.905962,44.7925 -39.0743,63.2438 -61.4754,74.0729"/>
</g>
<!-- n1&#45;&#45;n4 -->
<g id="edge53" class="edge"><title>n1&#45;&#45;n4</title>
<path fill="none" stroke="black" d="M58.7857,25.878C68.5467,26.1095 80.3128,26.3884 90.0594,26.6195"/>
</g>
<!-- n1&#45;&#45;n3 -->
<g id="edge54" class="edge"><title>n1&#45;&#45;n3</title>
<path fill="none" stroke="black" d="M19.3684,25.7937C6.04078,26.0497 -11.4556,26.3857 -24.7534,26.6411"/>
</g>
<!-- n1&#45;&#45;n2 -->
<g id="edge55" class="edge"><title>n1&#45;&#45;n2</title>
<path fill="none" stroke="black" d="M45.8148,44.0212C49.2398,53.6299 53.4066,65.3201 56.8304,74.9255"/>
</g>
<!-- n0 -->
<g id="node12" class="node"><title>n0</title>
<ellipse fill="none" stroke="black" cx="-90.7667" cy="-63.6941" rx="19.4965" ry="19.4965"/>
<text text-anchor="middle" x="-90.7667" y="-59.9941" font-family="Times,serif" font-size="14.00">n0</text>
</g>
<!-- n0&#45;&#45;n10 -->
<g id="edge57" class="edge"><title>n0&#45;&#45;n10</title>
<path fill="none" stroke="black" d="M-96.7258,-44.8976C-99.349,-36.6236 -102.457,-26.8217 -105.222,-18.0989"/>
</g>
<!-- n0&#45;&#45;n11 -->
<g id="edge56" class="edge"><title>n0&#45;&#45;n11</title>
<path fill="none" stroke="black" d="M-71.1234,-61.5691C-35.9967,-57.7691 37.4558,-49.8231 75.4971,-45.7078"/>
</g>
<!-- n0&#45;&#45;n9 -->
<g id="edge58" class="edge"><title>n0&#45;&#45;n9</title>
<path fill="none" stroke="black" d="M-82.3704,-46.0597C-66.4982,-12.7236 -32.262,59.1818 -16.3727,92.5539"/>
</g>
<!-- n0&#45;&#45;n8 -->
<g id="edge59" class="edge"><title>n0&#45;&#45;n8</title>
<path fill="none" stroke="black" d="M-75.066,-75.559C-64.5051,-83.5398 -50.6407,-94.017 -40.1034,-101.98"/>
</g>
<!-- n0&#45;&#45;n7 -->
<g id="edge60" class="edge"><title>n0&#45;&#45;n7</title>
<path fill="none" stroke="black" d="M-71.4283,-67.7423C-43.0788,-73.6768 9.4615,-84.6752 37.8136,-90.6103"/>
</g>
<!-- n0&#45;&#45;n6 -->
<g id="edge61" class="edge"><title>n0&#45;&#45;n6</title>
<path fill="none" stroke="black" d="M-71.0351,-61.7919C-58.2196,-60.5565 -41.5847,-58.9529 -28.8055,-57.7209"/>
</g>
<!-- n0&#45;&#45;n5 -->
<g id="edge62" class="edge"><title>n0&#45;&#45;n5</title>
<path fill="none" stroke="black" d="M-89.2494,-44.2528C-87.064,-16.2512 -83.0531,35.1413 -80.8643,63.1877"/>
</g>
<!-- n0&#45;&#45;n4 -->
<g id="edge63" class="edge"><title>n0&#45;&#45;n4</title>
<path fill="none" stroke="black" d="M-72.9892,-55.6383C-35.0699,-38.4554 53.3937,1.63134 91.5323,18.9136"/>
</g>
<!-- n0&#45;&#45;n3 -->
<g id="edge64" class="edge"><title>n0&#45;&#45;n3</title>
<path fill="none" stroke="black" d="M-81.8315,-46.2037C-73.6254,-30.1405 -61.53,-6.46398 -53.3326,9.58224"/>
</g>
<!-- n0&#45;&#45;n2 -->
<g id="edge65" class="edge"><title>n0&#45;&#45;n2</title>
<path fill="none" stroke="black" d="M-77.0805,-49.7432C-47.888,-19.986 20.2166,49.436 49.578,79.3654"/>
</g>
<!-- n0&#45;&#45;n1 -->
<g id="edge66" class="edge"><title>n0&#45;&#45;n1</title>
<path fill="none" stroke="black" d="M-74.5713,-52.5888C-49.6697,-35.5134 -2.24145,-2.99136 22.7826,14.1679"/>
</g>
</g>
</svg>
