ply
format ascii 1.0
comment TextureFile cam_11.jpg
element vertex 4
property float x
property float y
property float z
property float nx
property float ny
property float nz
property uchar red
property uchar green
property uchar blue
property float texture_u
property float texture_v
element face 1
property list uchar int vertex_indices
end_header
-0.144174 -0.477038 0.249389 -0.258716 -0.856032 0.447522 255 255 255 0 0
0.034468 -0.47507 0.245236 0.0643369 -0.886751 0.457749 255 255 255 1 0
0.0370367 -0.598582 0.29721 0.0553338 -0.894297 0.444039 255 255 255 1 1
-0.141605 -0.600549 0.301363 -0.206217 -0.874568 0.438869 255 255 255 0 1
4 0 1 2 3
