ply
format ascii 1.0
comment TextureFile cam_9.jpg
element vertex 4
property float x
property float y
property float z
property float nx
property float ny
property float nz
property uchar red
property uchar green
property uchar blue
property float texture_u
property float texture_v
element face 1
property list uchar int vertex_indices
end_header
0.108469 -0.619924 0.215948 0.163022 -0.931711 0.324558 255 255 255 0 0
0.285723 -0.614777 0.238047 0.397661 -0.855629 0.331308 255 255 255 1 0
0.280668 -0.730459 0.305538 0.334106 -0.869534 0.36371 255 255 255 1 1
0.103414 -0.735607 0.283438 0.130068 -0.925201 0.356491 255 255 255 0 1
4 0 1 2 3
