ply
format ascii 1.0
comment TextureFile cam_8.jpg
element vertex 4
property float x
property float y
property float z
property float nx
property float ny
property float nz
property uchar red
property uchar green
property uchar blue
property float texture_u
property float texture_v
element face 1
property list uchar int vertex_indices
end_header
0.127546 -0.373133 0.1575 0.300376 -0.878745 0.37092 255 255 255 0 0
0.305114 -0.369677 0.177287 0.597018 -0.723347 0.346898 255 255 255 1 0
0.302743 -0.49645 0.220714 0.486759 -0.798206 0.354871 255 255 255 1 1
0.125175 -0.499906 0.200928 0.226305 -0.903786 0.363259 255 255 255 0 1
4 0 1 2 3
