ply
format ascii 1.0
comment TextureFile cam_6.jpg
element vertex 4
property float x
property float y
property float z
property float nx
property float ny
property float nz
property uchar red
property uchar green
property uchar blue
property float texture_u
property float texture_v
element face 1
property list uchar int vertex_indices
end_header
0.114931 0.245857 0.103173 0.395844 0.846779 0.355349 255 255 255 0 0
0.292291 0.241534 0.124592 0.732341 0.605168 0.312168 255 255 255 1 0
0.292017 0.109736 0.100258 0.891193 0.334898 0.305971 255 255 255 1 1
0.114657 0.114059 0.0788389 0.637267 0.633942 0.438188 255 255 255 0 1
4 0 1 2 3
