ply
format ascii 1.0
comment TextureFile cam_10.jpg
element vertex 4
property float x
property float y
property float z
property float nx
property float ny
property float nz
property uchar red
property uchar green
property uchar blue
property float texture_u
property float texture_v
element face 1
property list uchar int vertex_indices
end_header
-0.129064 -0.613434 0.304815 -0.185159 -0.88005 0.437296 255 255 255 0 0
0.0496335 -0.61383 0.305894 0.0721816 -0.892687 0.444858 255 255 255 1 0
0.0489828 -0.731163 0.370665 0.0596469 -0.890345 0.451362 255 255 255 1 1
-0.129714 -0.730768 0.369586 -0.156448 -0.881377 0.445756 255 255 255 0 1
4 0 1 2 3
