ply
format ascii 1.0
comment TextureFile cam_0.jpg
element vertex 4
property float x
property float y
property float z
property float nx
property float ny
property float nz
property uchar red
property uchar green
property uchar blue
property float texture_u
property float texture_v
element face 1
property list uchar int vertex_indices
end_header
-0.0974608 0.063885 0.0334817 -0.803818 0.526898 0.276144 255 255 255 0 0
0.0812377 0.0635523 0.0326051 0.750993 0.587502 0.301415 255 255 255 1 0
0.0809816 -0.0704665 0.0312649 0.724291 -0.630245 0.27963 255 255 255 1 1
-0.0977169 -0.0701338 0.0321415 -0.78487 -0.563321 0.258163 255 255 255 0 1
4 0 1 2 3
