ply
format ascii 1.0
comment TextureFile cam_5.jpg
element vertex 4
property float x
property float y
property float z
property float nx
property float ny
property float nz
property uchar red
property uchar green
property uchar blue
property float texture_u
property float texture_v
element face 1
property list uchar int vertex_indices
end_header
0.118778 0.527816 0.14971 0.211594 0.940266 0.266697 255 255 255 0 0
0.296207 0.519038 0.169103 0.476926 0.835708 0.272275 255 255 255 1 0
0.295812 0.39562 0.116845 0.582749 0.779371 0.230184 255 255 255 1 1
0.118384 0.404399 0.0974518 0.273724 0.935042 0.225326 255 255 255 0 1
4 0 1 2 3
