ply
format ascii 1.0
comment TextureFile cam_1.jpg
element vertex 4
property float x
property float y
property float z
property float nx
property float ny
property float nz
property uchar red
property uchar green
property uchar blue
property float texture_u
property float texture_v
element face 1
property list uchar int vertex_indices
end_header
-0.103386 0.25138 0.0581706 -0.37194 0.904359 0.209273 255 255 255 0 0
0.0752959 0.248786 0.0583183 0.28265 0.933907 0.218919 255 255 255 1 0
0.0733843 0.116067 0.0397418 0.513336 0.811912 0.278001 255 255 255 1 1
-0.105298 0.118662 0.0395941 -0.643979 0.72571 0.242149 255 255 255 0 1
4 0 1 2 3
