ply
format ascii 1.0
comment TextureFile cam_4.jpg
element vertex 4
property float x
property float y
property float z
property float nx
property float ny
property float nz
property uchar red
property uchar green
property uchar blue
property float texture_u
property float texture_v
element face 1
property list uchar int vertex_indices
end_header
0.0946001 0.774637 0.19771 0.117509 0.962226 0.245588 255 255 255 0 0
0.271951 0.759988 0.214027 0.325661 0.910086 0.256297 255 255 255 1 0
0.268945 0.645694 0.144094 0.376592 0.904139 0.201769 255 255 255 1 1
0.091594 0.660342 0.127777 0.134935 0.972809 0.18824 255 255 255 0 1
4 0 1 2 3
