ply
format ascii 1.0
comment TextureFile cam_2.jpg
element vertex 4
property float x
property float y
property float z
property float nx
property float ny
property float nz
property uchar red
property uchar green
property uchar blue
property float texture_u
property float texture_v
element face 1
property list uchar int vertex_indices
end_header
-0.115658 0.533264 0.171683 -0.202187 0.932225 0.300128 255 255 255 0 0
0.0629886 0.528959 0.170702 0.112605 0.945619 0.305164 255 255 255 1 0
0.0597063 0.403416 0.123893 0.140085 0.946509 0.290682 255 255 255 1 1
-0.11894 0.407721 0.124874 -0.268674 0.921003 0.282078 255 255 255 0 1
4 0 1 2 3
