ply
format ascii 1.0
comment TextureFile cam_12.jpg
element vertex 4
property float x
property float y
property float z
property float nx
property float ny
property float nz
property uchar red
property uchar green
property uchar blue
property float texture_u
property float texture_v
element face 1
property list uchar int vertex_indices
end_header
-0.127141 -0.291555 0.131994 -0.369198 -0.84663 0.38329 255 255 255 0 0
0.0515423 -0.290511 0.129742 0.159913 -0.901329 0.402534 255 255 255 1 0
0.0527387 -0.419894 0.164693 0.116136 -0.924652 0.362672 255 255 255 1 1
-0.125945 -0.420938 0.166945 -0.267955 -0.895569 0.355185 255 255 255 0 1
4 0 1 2 3
