ply
format ascii 1.0
comment TextureFile cam_3.jpg
element vertex 4
property float x
property float y
property float z
property float nx
property float ny
property float nz
property uchar red
property uchar green
property uchar blue
property float texture_u
property float texture_v
element face 1
property list uchar int vertex_indices
end_header
-0.0983362 0.716279 0.321892 -0.124253 0.905059 0.406729 255 255 255 0 0
0.0803282 0.713495 0.31959 0.102209 0.90785 0.406646 255 255 255 1 0
0.0776391 0.600595 0.247417 0.118681 0.918082 0.378206 255 255 255 1 1
-0.101025 0.603378 0.249718 -0.152888 0.91313 0.377914 255 255 255 0 1
4 0 1 2 3
