ply
format ascii 1.0
comment TextureFile cam_32.jpg
element vertex 4
property float x
property float y
property float z
property float nx
property float ny
property float nz
property uchar red
property uchar green
property uchar blue
property float texture_u
property float texture_v
element face 1
property list uchar int vertex_indices
end_header
-1.27831 0.139336 1.73675 -0.591544 0.0644787 0.803691 255 255 255 0 0
-1.17544 0.225673 1.92447 -0.518659 0.0995773 0.849163 255 255 255 1 0
-1.16045 0.379088 1.84569 -0.524402 0.171308 0.83406 255 255 255 1 1
-1.26331 0.292751 1.65797 -0.600182 0.139082 0.787679 255 255 255 0 1
4 0 1 2 3
