ply
format ascii 1.0
comment TextureFile cam_9.jpg
element vertex 4
property float x
property float y
property float z
property float nx
property float ny
property float nz
property uchar red
property uchar green
property uchar blue
property float texture_u
property float texture_v
element face 1
property list uchar int vertex_indices
end_header
-0.936895 -1.00831 1.94921 -0.392633 -0.422563 0.816872 255 255 255 0 0
-0.758973 -1.07808 2.07863 -0.308337 -0.437975 0.844456 255 255 255 1 0
-0.808683 -0.970604 2.2049 -0.31823 -0.381949 0.867666 255 255 255 1 1
-0.986605 -0.900839 2.07548 -0.39971 -0.364963 0.840853 255 255 255 0 1
4 0 1 2 3
