ply
format ascii 1.0
comment TextureFile cam_30.jpg
element vertex 4
property float x
property float y
property float z
property float nx
property float ny
property float nz
property uchar red
property uchar green
property uchar blue
property float texture_u
property float texture_v
element face 1
property list uchar int vertex_indices
end_header
-1.26432 -0.401406 1.64411 -0.598488 -0.190013 0.778272 255 255 255 0 0
-1.17527 -0.453888 1.85048 -0.524988 -0.202751 0.826607 255 255 255 1 0
-1.20898 -0.293376 1.90585 -0.531196 -0.128902 0.837386 255 255 255 1 1
-1.29803 -0.240893 1.69948 -0.603171 -0.111939 0.789718 255 255 255 0 1
4 0 1 2 3
