ply
format ascii 1.0
comment TextureFile cam_28.jpg
element vertex 4
property float x
property float y
property float z
property float nx
property float ny
property float nz
property uchar red
property uchar green
property uchar blue
property float texture_u
property float texture_v
element face 1
property list uchar int vertex_indices
end_header
-0.186132 0.452281 0.271351 -0.332786 0.808632 0.485147 255 255 255 0 0
0.0442099 0.449782 0.256871 0.085044 0.86522 0.494128 255 255 255 1 0
0.0403858 0.279601 0.225408 0.111746 0.773641 0.623693 255 255 255 1 1
-0.189956 0.2821 0.239887 -0.456424 0.677823 0.576397 255 255 255 0 1
4 0 1 2 3
