ply
format ascii 1.0
comment TextureFile cam_34.jpg
element vertex 4
property float x
property float y
property float z
property float nx
property float ny
property float nz
property uchar red
property uchar green
property uchar blue
property float texture_u
property float texture_v
element face 1
property list uchar int vertex_indices
end_header
-1.08832 0.472106 1.50913 -0.566957 0.245942 0.786176 255 255 255 0 0
-0.960516 0.6256 1.6248 -0.483048 0.314617 0.817118 255 255 255 1 0
-0.919633 0.703793 1.47586 -0.49022 0.375164 0.786725 255 255 255 1 1
-1.04743 0.550298 1.36019 -0.581005 0.305247 0.754491 255 255 255 0 1
4 0 1 2 3
