ply
format ascii 1.0
comment TextureFile cam_35.jpg
element vertex 4
property float x
property float y
property float z
property float nx
property float ny
property float nz
property uchar red
property uchar green
property uchar blue
property float texture_u
property float texture_v
element face 1
property list uchar int vertex_indices
end_header
-1.02057 0.683729 1.30843 -0.568652 0.380966 0.72904 255 255 255 0 0
-0.86072 0.845457 1.34798 -0.475783 0.467346 0.74513 255 255 255 1 0
-0.822604 0.849077 1.17916 -0.492653 0.508508 0.706196 255 255 255 1 1
-0.982455 0.687349 1.1396 -0.593917 0.415518 0.688917 255 255 255 0 1
4 0 1 2 3
