ply
format ascii 1.0
comment TextureFile cam_11.jpg
element vertex 4
property float x
property float y
property float z
property float nx
property float ny
property float nz
property uchar red
property uchar green
property uchar blue
property float texture_u
property float texture_v
element face 1
property list uchar int vertex_indices
end_header
-0.967408 -0.597242 2.21935 -0.387954 -0.239509 0.890015 255 255 255 0 0
-0.796561 -0.637961 2.36911 -0.308796 -0.247313 0.918412 255 255 255 1 0
-0.828015 -0.486218 2.44625 -0.315079 -0.185017 0.930856 255 255 255 1 1
-0.998862 -0.445499 2.2965 -0.392691 -0.175143 0.902839 255 255 255 0 1
4 0 1 2 3
