ply
format ascii 1.0
comment TextureFile cam_14.jpg
element vertex 4
property float x
property float y
property float z
property float nx
property float ny
property float nz
property uchar red
property uchar green
property uchar blue
property float texture_u
property float texture_v
element face 1
property list uchar int vertex_indices
end_header
-0.966674 -0.0468509 2.27034 -0.391681 -0.0189833 0.919905 255 255 255 0 0
-0.799655 -0.050592 2.4296 -0.312572 -0.0197756 0.949688 255 255 255 1 0
-0.791242 0.122246 2.42483 -0.309855 0.0478721 0.949578 255 255 255 1 1
-0.958261 0.125987 2.26557 -0.389044 0.0511493 0.919798 255 255 255 0 1
4 0 1 2 3
