ply
format ascii 1.0
comment TextureFile cam_21.jpg
element vertex 4
property float x
property float y
property float z
property float nx
property float ny
property float nz
property uchar red
property uchar green
property uchar blue
property float texture_u
property float texture_v
element face 1
property list uchar int vertex_indices
end_header
-0.658317 0.970258 1.71347 -0.317072 0.467315 0.825277 255 255 255 0 0
-0.459926 1.04886 1.80142 -0.215456 0.491349 0.843892 255 255 255 1 0
-0.416919 1.11346 1.64668 -0.205272 0.548217 0.810754 255 255 255 1 1
-0.61531 1.03485 1.55873 -0.31241 0.525422 0.791411 255 255 255 0 1
4 0 1 2 3
