ply
format ascii 1.0
comment TextureFile cam_6.jpg
element vertex 4
property float x
property float y
property float z
property float nx
property float ny
property float nz
property uchar red
property uchar green
property uchar blue
property float texture_u
property float texture_v
element face 1
property list uchar int vertex_indices
end_header
-0.493774 -1.08739 0.744684 -0.350841 -0.772621 0.52912 255 255 255 0 0
-0.29151 -1.18093 0.804796 -0.199868 -0.809678 0.551792 255 255 255 1 0
-0.363288 -1.24313 0.949519 -0.22622 -0.774099 0.591266 255 255 255 1 1
-0.565552 -1.14959 0.889407 -0.362619 -0.737091 0.570267 255 255 255 0 1
4 0 1 2 3
