ply
format ascii 1.0
comment TextureFile cam_24.jpg
element vertex 4
property float x
property float y
property float z
property float nx
property float ny
property float nz
property uchar red
property uchar green
property uchar blue
property float texture_u
property float texture_v
element face 1
property list uchar int vertex_indices
end_header
-0.268983 1.06991 1.24352 -0.16181 0.643612 0.748052 255 255 255 0 0
-0.050229 1.11223 1.30376 -0.0292973 0.648738 0.760448 255 255 255 1 0
0.00114021 1.07641 1.14237 0.000726427 0.685782 0.727807 255 255 255 1 1
-0.217614 1.03408 1.08214 -0.143876 0.683683 0.715456 255 255 255 0 1
4 0 1 2 3
