ply
format ascii 1.0
comment TextureFile cam_16.jpg
element vertex 4
property float x
property float y
property float z
property float nx
property float ny
property float nz
property uchar red
property uchar green
property uchar blue
property float texture_u
property float texture_v
element face 1
property list uchar int vertex_indices
end_header
-0.921684 0.478366 2.21818 -0.376318 0.195314 0.90567 255 255 255 0 0
-0.748692 0.496492 2.3699 -0.295405 0.195897 0.935072 255 255 255 1 0
-0.704531 0.649172 2.3013 -0.282632 0.260424 0.9232 255 255 255 1 1
-0.877523 0.631045 2.14959 -0.364718 0.262277 0.893416 255 255 255 0 1
4 0 1 2 3
