ply
format ascii 1.0
comment TextureFile cam_23.jpg
element vertex 4
property float x
property float y
property float z
property float nx
property float ny
property float nz
property uchar red
property uchar green
property uchar blue
property float texture_u
property float texture_v
element face 1
property list uchar int vertex_indices
end_header
-0.49651 1.11607 1.35858 -0.271764 0.610881 0.743619 255 255 255 0 0
-0.283138 1.18564 1.41249 -0.151755 0.635473 0.757063 255 255 255 1 0
-0.240094 1.18355 1.24484 -0.138433 0.682406 0.717745 255 255 255 1 1
-0.453465 1.11398 1.19092 -0.267911 0.658149 0.703608 255 255 255 0 1
4 0 1 2 3
