ply
format ascii 1.0
comment TextureFile cam_7.jpg
element vertex 4
property float x
property float y
property float z
property float nx
property float ny
property float nz
property uchar red
property uchar green
property uchar blue
property float texture_u
property float texture_v
element face 1
property list uchar int vertex_indices
end_header
-0.784177 -1.23495 1.4722 -0.377838 -0.595033 0.709348 255 255 255 0 0
-0.595907 -1.32071 1.57454 -0.278493 -0.617225 0.73585 255 255 255 1 0
-0.660319 -1.27746 1.72929 -0.293595 -0.567992 0.768887 255 255 255 1 1
-0.84859 -1.1917 1.62695 -0.387843 -0.544659 0.743589 255 255 255 0 1
4 0 1 2 3
