ply
format ascii 1.0
comment TextureFile cam_26.jpg
element vertex 4
property float x
property float y
property float z
property float nx
property float ny
property float nz
property uchar red
property uchar green
property uchar blue
property float texture_u
property float texture_v
element face 1
property list uchar int vertex_indices
end_header
-0.157934 0.902618 0.664066 -0.13956 0.797608 0.586809 255 255 255 0 0
0.0717665 0.921475 0.651587 0.0634622 0.814848 0.57619 255 255 255 1 0
0.0744407 0.804485 0.524023 0.0773022 0.835409 0.544166 255 255 255 1 1
-0.155259 0.785628 0.536502 -0.16107 0.81503 0.556581 255 255 255 0 1
4 0 1 2 3
