ply
format ascii 1.0
comment TextureFile cam_0.jpg
element vertex 4
property float x
property float y
property float z
property float nx
property float ny
property float nz
property uchar red
property uchar green
property uchar blue
property float texture_u
property float texture_v
element face 1
property list uchar int vertex_indices
end_header
-0.10373 0.0606384 0.144855 -0.551165 0.322198 0.769679 255 255 255 0 0
0.126638 0.0463619 0.14518 0.6391 0.233973 0.732672 255 255 255 1 0
0.115938 -0.126051 0.156381 0.49991 -0.543519 0.674297 255 255 255 1 1
-0.114431 -0.111775 0.156057 -0.512049 -0.500165 0.698313 255 255 255 0 1
4 0 1 2 3
