ply
format ascii 1.0
comment TextureFile cam_18.jpg
element vertex 4
property float x
property float y
property float z
property float nx
property float ny
property float nz
property uchar red
property uchar green
property uchar blue
property float texture_u
property float texture_v
element face 1
property list uchar int vertex_indices
end_header
-0.847999 0.703253 2.11497 -0.355601 0.294903 0.886894 255 255 255 0 0
-0.667167 0.742705 2.25287 -0.270747 0.301401 0.91425 255 255 255 1 0
-0.618297 0.874024 2.15122 -0.257312 0.363736 0.895258 255 255 255 1 1
-0.799129 0.834573 2.01332 -0.344255 0.359524 0.867313 255 255 255 0 1
4 0 1 2 3
