ply
format ascii 1.0
comment TextureFile cam_5.jpg
element vertex 4
property float x
property float y
property float z
property float nx
property float ny
property float nz
property uchar red
property uchar green
property uchar blue
property float texture_u
property float texture_v
element face 1
property list uchar int vertex_indices
end_header
-0.296396 -0.828759 0.411169 -0.305101 -0.853099 0.423245 255 255 255 0 0
-0.0822643 -0.906241 0.448819 -0.0810779 -0.893172 0.442346 255 255 255 1 0
-0.144222 -1.02331 0.56027 -0.122687 -0.870512 0.47661 255 255 255 1 1
-0.358354 -0.945833 0.52262 -0.314764 -0.830782 0.459048 255 255 255 0 1
4 0 1 2 3
