ply
format ascii 1.0
comment TextureFile cam_1.jpg
element vertex 4
property float x
property float y
property float z
property float nx
property float ny
property float nz
property uchar red
property uchar green
property uchar blue
property float texture_u
property float texture_v
element face 1
property list uchar int vertex_indices
end_header
-0.163091 -0.102555 0.125449 -0.709402 -0.446087 0.54567 255 255 255 0 0
0.0655744 -0.132348 0.135356 0.327311 -0.660608 0.675621 255 255 255 1 0
0.0421887 -0.300362 0.169861 0.121359 -0.864016 0.488619 255 255 255 1 1
-0.186476 -0.270569 0.159954 -0.51024 -0.740337 0.437671 255 255 255 0 1
4 0 1 2 3
