ply
format ascii 1.0
comment TextureFile cam_31.jpg
element vertex 4
property float x
property float y
property float z
property float nx
property float ny
property float nz
property uchar red
property uchar green
property uchar blue
property float texture_u
property float texture_v
element face 1
property list uchar int vertex_indices
end_header
-1.33361 -0.059558 1.82288 -0.590246 -0.0263599 0.806793 255 255 255 0 0
-1.2349 -0.0260517 2.02881 -0.519906 -0.0109681 0.854153 255 255 255 1 0
-1.23393 0.144732 2.00056 -0.523974 0.0614591 0.849514 255 255 255 1 1
-1.33264 0.111226 1.79463 -0.59544 0.0496972 0.801861 255 255 255 0 1
4 0 1 2 3
