ply
format ascii 1.0
comment TextureFile cam_25.jpg
element vertex 4
property float x
property float y
property float z
property float nx
property float ny
property float nz
property uchar red
property uchar green
property uchar blue
property float texture_u
property float texture_v
element face 1
property list uchar int vertex_indices
end_header
-0.216968 1.01049 0.81546 -0.164808 0.767564 0.619422 255 255 255 0 0
0.0111166 1.04207 0.831373 0.00833872 0.781678 0.623627 255 255 255 1 0
0.0338224 0.951586 0.685556 0.0288266 0.811029 0.584295 255 255 255 1 1
-0.194262 0.919997 0.669643 -0.168285 0.796974 0.580097 255 255 255 0 1
4 0 1 2 3
