ply
format ascii 1.0
comment TextureFile cam_27.jpg
element vertex 4
property float x
property float y
property float z
property float nx
property float ny
property float nz
property uchar red
property uchar green
property uchar blue
property float texture_u
property float texture_v
element face 1
property list uchar int vertex_indices
end_header
-0.163783 0.18125 0.175237 -0.54478 0.60288 0.582882 255 255 255 0 0
0.0664047 0.165738 0.168399 0.270563 0.675291 0.686132 255 255 255 1 0
0.0545815 -0.00684275 0.161884 0.319236 -0.0400219 0.94683 255 255 255 1 1
-0.175606 0.00866882 0.168723 -0.72064 0.0355746 0.692396 255 255 255 0 1
4 0 1 2 3
