ply
format ascii 1.0
comment TextureFile cam_4.jpg
element vertex 4
property float x
property float y
property float z
property float nx
property float ny
property float nz
property uchar red
property uchar green
property uchar blue
property float texture_u
property float texture_v
element face 1
property list uchar int vertex_indices
end_header
-0.225709 -0.704672 0.307573 -0.281672 -0.879393 0.383835 255 255 255 0 0
-0.00795682 -0.774133 0.339709 -0.00941159 -0.915671 0.401819 255 255 255 1 0
-0.0643236 -0.905949 0.436733 -0.0638271 -0.898957 0.433362 255 255 255 1 1
-0.282076 -0.836488 0.404598 -0.290479 -0.861408 0.416651 255 255 255 0 1
4 0 1 2 3
