ply
format ascii 1.0
comment TextureFile cam_12.jpg
element vertex 4
property float x
property float y
property float z
property float nx
property float ny
property float nz
property uchar red
property uchar green
property uchar blue
property float texture_u
property float texture_v
element face 1
property list uchar int vertex_indices
end_header
-0.958338 -0.424436 2.32885 -0.375254 -0.166195 0.911901 255 255 255 0 0
-0.788513 -0.455665 2.48201 -0.298248 -0.172351 0.938799 255 255 255 1 0
-0.804039 -0.290911 2.53282 -0.300772 -0.108823 0.947467 255 255 255 1 1
-0.973864 -0.259682 2.37966 -0.376838 -0.100484 0.920813 255 255 255 0 1
4 0 1 2 3
