ply
format ascii 1.0
comment TextureFile cam_33.jpg
element vertex 4
property float x
property float y
property float z
property float nx
property float ny
property float nz
property uchar red
property uchar green
property uchar blue
property float texture_u
property float texture_v
element face 1
property list uchar int vertex_indices
end_header
-1.20605 0.285049 1.64393 -0.585826 0.13846 0.798522 255 255 255 0 0
-1.09527 0.413148 1.80075 -0.509953 0.19236 0.838419 255 255 255 1 0
-1.06598 0.534557 1.68088 -0.517232 0.259377 0.815595 255 255 255 1 1
-1.17675 0.406457 1.52406 -0.597968 0.206541 0.774452 255 255 255 0 1
4 0 1 2 3
