<?xml version="1.0" encoding="UTF-8" standalone="no"?>
<!DOCTYPE svg PUBLIC "-//W3C//DTD SVG 1.1//EN"
 "http://www.w3.org/Graphics/SVG/1.1/DTD/svg11.dtd">
<!-- Generated by graphviz version 2.38.0 (20140413.2041)
 -->
<!-- Title: 1 Pages: 1 -->
<svg width="315pt" height="323pt"
 viewBox="0.00 0.00 314.86 322.92" xmlns="http://www.w3.org/2000/svg" xmlns:xlink="http://www.w3.org/1999/xlink">
<g id="graph0" class="graph" transform="scale(1 1) rotate(0) translate(159.684 163.617)">
<title>1</title>
<polygon fill="white" stroke="none" points="-159.684,159.307 -159.684,-163.617 155.181,-163.617 155.181,159.307 -159.684,159.307"/>
<!-- n12 -->
<g id="node1" class="node"><title>n12</title>
<ellipse fill="none" stroke="black" cx="-131.636" cy="23.958" rx="24.0958" ry="24.0958"/>
<text text-anchor="middle" x="-131.636" y="27.658" font-family="Times,serif" font-size="14.00">n12</text>
</g>
<!-- n13 -->
<g id="node2" class="node"><title>n13</title>
<ellipse fill="none" stroke="black" cx="80.1362" cy="-0.0245563" rx="24.0958" ry="24.0958"/>
<text text-anchor="middle" x="80.1362" y="3.67544" font-family="Times,serif" font-size="14.00">n13</text>
</g>
<!-- n12&#45;&#45;n13 -->
<g id="edge1" class="edge"><title>n12&#45;&#45;n13</title>
<path fill="none" stroke="black" d="M-107.343,21.2069C-66.4931,16.5807 15.4673,7.29899 56.1265,2.69446"/>
</g>
<!-- n11 -->
<g id="node3" class="node"><title>n11</title>
<ellipse fill="none" stroke="black" cx="-26.2387" cy="131.26" rx="24.0958" ry="24.0958"/>
<text text-anchor="middle" x="-26.2387" y="134.96" font-family="Times,serif" font-size="14.00">n11</text>
</g>
<!-- n11&#45;&#45;n12 -->
<g id="edge3" class="edge"><title>n11&#45;&#45;n12</title>
<path fill="none" stroke="black" d="M-43.1726,114.02C-62.841,93.9961 -95.094,61.1604 -114.744,41.1551"/>
</g>
<!-- n11&#45;&#45;n13 -->
<g id="edge2" class="edge"><title>n11&#45;&#45;n13</title>
<path fill="none" stroke="black" d="M-10.9977,112.45C9.22411,87.4927 44.7159,43.6899 64.9235,18.7504"/>
</g>
<!-- n10 -->
<g id="node4" class="node"><title>n10</title>
<ellipse fill="none" stroke="black" cx="-6.14644" cy="-135.569" rx="24.0958" ry="24.0958"/>
<text text-anchor="middle" x="-6.14644" y="-131.869" font-family="Times,serif" font-size="14.00">n10</text>
</g>
<!-- n10&#45;&#45;n12 -->
<g id="edge5" class="edge"><title>n10&#45;&#45;n12</title>
<path fill="none" stroke="black" d="M-21.0346,-116.643C-45.1862,-85.9402 -92.6284,-25.6301 -116.768,5.05636"/>
</g>
<!-- n10&#45;&#45;n13 -->
<g id="edge4" class="edge"><title>n10&#45;&#45;n13</title>
<path fill="none" stroke="black" d="M6.77094,-115.276C23.037,-89.7236 50.8229,-46.0738 67.1305,-20.4556"/>
</g>
<!-- n10&#45;&#45;n11 -->
<g id="edge6" class="edge"><title>n10&#45;&#45;n11</title>
<path fill="none" stroke="black" d="M-7.96493,-111.419C-11.7806,-60.7461 -20.5851,56.1795 -24.4098,106.972"/>
</g>
<!-- n9 -->
<g id="node5" class="node"><title>n9</title>
<ellipse fill="none" stroke="black" cx="15.2386" cy="-67.0284" rx="19.4965" ry="19.4965"/>
<text text-anchor="middle" x="15.2386" y="-63.3284" font-family="Times,serif" font-size="14.00">n9</text>
</g>
<!-- n9&#45;&#45;n12 -->
<g id="edge8" class="edge"><title>n9&#45;&#45;n12</title>
<path fill="none" stroke="black" d="M-1.60981,-56.5911C-28.5852,-39.8804 -81.408,-7.15754 -110.744,11.0155"/>
</g>
<!-- n9&#45;&#45;n13 -->
<g id="edge7" class="edge"><title>n9&#45;&#45;n13</title>
<path fill="none" stroke="black" d="M29.0017,-52.8186C38.9732,-42.5235 52.516,-28.5412 63.1593,-17.5524"/>
</g>
<!-- n9&#45;&#45;n11 -->
<g id="edge9" class="edge"><title>n9&#45;&#45;n11</title>
<path fill="none" stroke="black" d="M11.1861,-47.6547C3.54197,-11.111 -12.9809,67.879 -21.2759,107.535"/>
</g>
<!-- n9&#45;&#45;n10 -->
<g id="edge10" class="edge"><title>n9&#45;&#45;n10</title>
<path fill="none" stroke="black" d="M9.39505,-85.7574C6.82279,-94.0016 3.77554,-103.768 1.06375,-112.46"/>
</g>
<!-- n8 -->
<g id="node6" class="node"><title>n8</title>
<ellipse fill="none" stroke="black" cx="-73.2379" cy="-102.947" rx="19.4965" ry="19.4965"/>
<text text-anchor="middle" x="-73.2379" y="-99.2468" font-family="Times,serif" font-size="14.00">n8</text>
</g>
<!-- n8&#45;&#45;n12 -->
<g id="edge12" class="edge"><title>n8&#45;&#45;n12</title>
<path fill="none" stroke="black" d="M-81.4811,-85.0336C-91.9823,-62.2137 -110.126,-22.785 -121.473,1.87213"/>
</g>
<!-- n8&#45;&#45;n13 -->
<g id="edge11" class="edge"><title>n8&#45;&#45;n13</title>
<path fill="none" stroke="black" d="M-56.8242,-91.9323C-28.5405,-72.9524 29.2933,-34.1428 59.9768,-13.5526"/>
</g>
<!-- n8&#45;&#45;n11 -->
<g id="edge13" class="edge"><title>n8&#45;&#45;n11</title>
<path fill="none" stroke="black" d="M-69.3918,-83.7807C-60.8636,-41.283 -40.3844,60.7688 -31.0369,107.349"/>
</g>
<!-- n8&#45;&#45;n10 -->
<g id="edge14" class="edge"><title>n8&#45;&#45;n10</title>
<path fill="none" stroke="black" d="M-55.6104,-111.518C-47.2244,-115.595 -37.1105,-120.513 -28.2193,-124.836"/>
</g>
<!-- n8&#45;&#45;n9 -->
<g id="edge15" class="edge"><title>n8&#45;&#45;n9</title>
<path fill="none" stroke="black" d="M-54.9055,-95.5045C-39.7208,-89.34 -18.2486,-80.6231 -3.0703,-74.4612"/>
</g>
<!-- n7 -->
<g id="node7" class="node"><title>n7</title>
<ellipse fill="none" stroke="black" cx="-92.6794" cy="93.3547" rx="19.4965" ry="19.4965"/>
<text text-anchor="middle" x="-92.6794" y="97.0547" font-family="Times,serif" font-size="14.00">n7</text>
</g>
<!-- n7&#45;&#45;n12 -->
<g id="edge17" class="edge"><title>n7&#45;&#45;n12</title>
<path fill="none" stroke="black" d="M-102.309,76.2005C-107.582,66.8083 -114.161,55.0889 -119.75,45.1313"/>
</g>
<!-- n7&#45;&#45;n13 -->
<g id="edge16" class="edge"><title>n7&#45;&#45;n13</title>
<path fill="none" stroke="black" d="M-75.4774,84.0598C-43.7181,66.899 24.0383,30.2874 58.718,11.5486"/>
</g>
<!-- n7&#45;&#45;n11 -->
<g id="edge18" class="edge"><title>n7&#45;&#45;n11</title>
<path fill="none" stroke="black" d="M-75.5693,103.116C-66.9567,108.03 -56.4379,114.031 -47.3294,119.227"/>
</g>
<!-- n7&#45;&#45;n10 -->
<g id="edge19" class="edge"><title>n7&#45;&#45;n10</title>
<path fill="none" stroke="black" d="M-85.7443,75.0079C-70.0631,33.5232 -31.9114,-67.4073 -14.7546,-112.796"/>
</g>
<!-- n7&#45;&#45;n9 -->
<g id="edge20" class="edge"><title>n7&#45;&#45;n9</title>
<path fill="none" stroke="black" d="M-81.7378,77.0937C-61.0537,46.3539 -16.4384,-19.9514 4.26801,-50.7244"/>
</g>
<!-- n7&#45;&#45;n8 -->
<g id="edge21" class="edge"><title>n7&#45;&#45;n8</title>
<path fill="none" stroke="black" d="M-90.7442,73.8149C-87.0177,36.1879 -78.8857,-45.9214 -75.1653,-83.486"/>
</g>
<!-- n6 -->
<g id="node8" class="node"><title>n6</title>
<ellipse fill="none" stroke="black" cx="120.77" cy="60.914" rx="19.4965" ry="19.4965"/>
<text text-anchor="middle" x="120.77" y="64.614" font-family="Times,serif" font-size="14.00">n6</text>
</g>
<!-- n6&#45;&#45;n12 -->
<g id="edge23" class="edge"><title>n6&#45;&#45;n12</title>
<path fill="none" stroke="black" d="M101.383,58.0755C55.7851,51.3993 -58.147,34.7179 -107.836,27.4427"/>
</g>
<!-- n6&#45;&#45;n13 -->
<g id="edge22" class="edge"><title>n6&#45;&#45;n13</title>
<path fill="none" stroke="black" d="M109.881,44.5836C104.897,37.1094 98.9407,28.1769 93.6718,20.275"/>
</g>
<!-- n6&#45;&#45;n11 -->
<g id="edge24" class="edge"><title>n6&#45;&#45;n11</title>
<path fill="none" stroke="black" d="M103.037,69.3993C76.156,82.2623 25.1334,106.677 -4.13059,120.681"/>
</g>
<!-- n6&#45;&#45;n10 -->
<g id="edge25" class="edge"><title>n6&#45;&#45;n10</title>
<path fill="none" stroke="black" d="M110.167,44.4999C87.0516,8.71401 32.174,-76.2437 6.94852,-115.296"/>
</g>
<!-- n6&#45;&#45;n9 -->
<g id="edge26" class="edge"><title>n6&#45;&#45;n9</title>
<path fill="none" stroke="black" d="M108.249,45.7349C87.9391,21.1112 48.0424,-27.2582 27.7425,-51.8691"/>
</g>
<!-- n6&#45;&#45;n8 -->
<g id="edge27" class="edge"><title>n6&#45;&#45;n8</title>
<path fill="none" stroke="black" d="M105.868,48.3282C69.7556,17.827 -22.1209,-59.7729 -58.2859,-90.3181"/>
</g>
<!-- n6&#45;&#45;n7 -->
<g id="edge28" class="edge"><title>n6&#45;&#45;n7</title>
<path fill="none" stroke="black" d="M101.451,63.8501C60.9154,70.0108 -32.6192,84.2266 -73.2506,90.4019"/>
</g>
<!-- n5 -->
<g id="node9" class="node"><title>n5</title>
<ellipse fill="none" stroke="black" cx="-55.7695" cy="9.56254" rx="19.4965" ry="19.4965"/>
<text text-anchor="middle" x="-55.7695" y="13.2625" font-family="Times,serif" font-size="14.00">n5</text>
</g>
<!-- n5&#45;&#45;n12 -->
<g id="edge30" class="edge"><title>n5&#45;&#45;n12</title>
<path fill="none" stroke="black" d="M-75.3071,13.2697C-85.2294,15.1524 -97.3673,17.4556 -107.832,19.4411"/>
</g>
<!-- n5&#45;&#45;n13 -->
<g id="edge29" class="edge"><title>n5&#45;&#45;n13</title>
<path fill="none" stroke="black" d="M-36.2975,8.18894C-11.9298,6.46999 29.793,3.52676 56.1177,1.66976"/>
</g>
<!-- n5&#45;&#45;n11 -->
<g id="edge31" class="edge"><title>n5&#45;&#45;n11</title>
<path fill="none" stroke="black" d="M-51.1553,28.5777C-45.9643,49.9698 -37.529,84.7318 -31.9325,107.795"/>
</g>
<!-- n5&#45;&#45;n10 -->
<g id="edge32" class="edge"><title>n5&#45;&#45;n10</title>
<path fill="none" stroke="black" d="M-49.3837,-9.11373C-40.3266,-35.6028 -23.7652,-84.0397 -13.9781,-112.664"/>
</g>
<!-- n5&#45;&#45;n9 -->
<g id="edge33" class="edge"><title>n5&#45;&#45;n9</title>
<path fill="none" stroke="black" d="M-42.4134,-4.84364C-29.7183,-18.5369 -10.7329,-39.015 1.94243,-52.6869"/>
</g>
<!-- n5&#45;&#45;n8 -->
<g id="edge34" class="edge"><title>n5&#45;&#45;n8</title>
<path fill="none" stroke="black" d="M-58.7724,-9.77851C-61.972,-30.3862 -67.0088,-62.8266 -70.2157,-83.4816"/>
</g>
<!-- n5&#45;&#45;n7 -->
<g id="edge35" class="edge"><title>n5&#45;&#45;n7</title>
<path fill="none" stroke="black" d="M-63.7784,27.7442C-70.0118,41.8952 -78.616,61.4283 -84.8129,75.4964"/>
</g>
<!-- n5&#45;&#45;n6 -->
<g id="edge36" class="edge"><title>n5&#45;&#45;n6</title>
<path fill="none" stroke="black" d="M-36.8767,15.058C-2.89787,24.9417 68.133,45.6031 102.013,55.458"/>
</g>
<!-- n4 -->
<g id="node10" class="node"><title>n4</title>
<ellipse fill="none" stroke="black" cx="62.0845" cy="120.516" rx="19.4965" ry="19.4965"/>
<text text-anchor="middle" x="62.0845" y="124.216" font-family="Times,serif" font-size="14.00">n4</text>
</g>
<!-- n4&#45;&#45;n12 -->
<g id="edge38" class="edge"><title>n4&#45;&#45;n12</title>
<path fill="none" stroke="black" d="M44.5514,111.777C9.06622,94.0895 -71.1702,54.0967 -109.906,34.7894"/>
</g>
<!-- n4&#45;&#45;n13 -->
<g id="edge37" class="edge"><title>n4&#45;&#45;n13</title>
<path fill="none" stroke="black" d="M64.9848,101.149C68.1342,80.1189 73.1675,46.5088 76.5596,23.8579"/>
</g>
<!-- n4&#45;&#45;n11 -->
<g id="edge39" class="edge"><title>n4&#45;&#45;n11</title>
<path fill="none" stroke="black" d="M42.4827,122.9C29.2691,124.508 11.7541,126.638 -2.28618,128.346"/>
</g>
<!-- n4&#45;&#45;n10 -->
<g id="edge40" class="edge"><title>n4&#45;&#45;n10</title>
<path fill="none" stroke="black" d="M56.9561,101.268C44.6523,55.0892 13.4898,-61.8699 0.111769,-112.08"/>
</g>
<!-- n4&#45;&#45;n9 -->
<g id="edge41" class="edge"><title>n4&#45;&#45;n9</title>
<path fill="none" stroke="black" d="M57.3349,101.501C48.3562,65.5554 28.9892,-11.9788 20.0008,-47.9633"/>
</g>
<!-- n4&#45;&#45;n8 -->
<g id="edge42" class="edge"><title>n4&#45;&#45;n8</title>
<path fill="none" stroke="black" d="M51.9133,103.72C26.7736,62.2057 -38.0638,-44.8626 -63.1333,-86.2607"/>
</g>
<!-- n4&#45;&#45;n7 -->
<g id="edge43" class="edge"><title>n4&#45;&#45;n7</title>
<path fill="none" stroke="black" d="M42.7965,117.131C13.1396,111.926 -43.3456,102.013 -73.1483,96.7825"/>
</g>
<!-- n4&#45;&#45;n6 -->
<g id="edge44" class="edge"><title>n4&#45;&#45;n6</title>
<path fill="none" stroke="black" d="M75.9921,106.391C85.347,96.89 97.628,84.4172 106.962,74.9374"/>
</g>
<!-- n4&#45;&#45;n5 -->
<g id="edge45" class="edge"><title>n4&#45;&#45;n5</title>
<path fill="none" stroke="black" d="M47.6333,106.911C24.891,85.5001 -18.9818,44.1962 -41.5682,22.9323"/>
</g>
<!-- n3 -->
<g id="node11" class="node"><title>n3</title>
<ellipse fill="none" stroke="black" cx="14.9091" cy="65.739" rx="19.4965" ry="19.4965"/>
<text text-anchor="middle" x="14.9091" y="69.439" font-family="Times,serif" font-size="14.00">n3</text>
</g>
<!-- n3&#45;&#45;n12 -->
<g id="edge47" class="edge"><title>n3&#45;&#45;n12</title>
<path fill="none" stroke="black" d="M-3.94911,60.3624C-30.6963,52.7366 -79.6052,38.7924 -108.508,30.552"/>
</g>
<!-- n3&#45;&#45;n13 -->
<g id="edge46" class="edge"><title>n3&#45;&#45;n13</title>
<path fill="none" stroke="black" d="M28.7421,51.7922C38.7643,41.6877 52.3758,27.9642 63.0731,17.1789"/>
</g>
<!-- n3&#45;&#45;n11 -->
<g id="edge48" class="edge"><title>n3&#45;&#45;n11</title>
<path fill="none" stroke="black" d="M4.52582,82.2726C-0.902408,90.9161 -7.59681,101.576 -13.3533,110.742"/>
</g>
<!-- n3&#45;&#45;n10 -->
<g id="edge49" class="edge"><title>n3&#45;&#45;n10</title>
<path fill="none" stroke="black" d="M12.8519,46.0702C8.97144,8.96995 0.583741,-71.223 -3.62715,-111.482"/>
</g>
<!-- n3&#45;&#45;n9 -->
<g id="edge50" class="edge"><title>n3&#45;&#45;n9</title>
<path fill="none" stroke="black" d="M14.9578,46.1487C15.02,21.0468 15.1274,-22.2172 15.1898,-47.3578"/>
</g>
<!-- n3&#45;&#45;n8 -->
<g id="edge51" class="edge"><title>n3&#45;&#45;n8</title>
<path fill="none" stroke="black" d="M5.80786,48.322C-11.0832,15.9978 -47.1009,-52.9288 -64.0541,-85.3719"/>
</g>
<!-- n3&#45;&#45;n7 -->
<g id="edge52" class="edge"><title>n3&#45;&#45;n7</title>
<path fill="none" stroke="black" d="M-4.32554,70.6761C-23.9087,75.7027 -54.0884,83.4492 -73.6113,88.4603"/>
</g>
<!-- n3&#45;&#45;n6 -->
<g id="edge53" class="edge"><title>n3&#45;&#45;n6</title>
<path fill="none" stroke="black" d="M34.8207,64.8314C53.7469,63.9688 82.0508,62.6787 100.947,61.8174"/>
</g>
<!-- n3&#45;&#45;n5 -->
<g id="edge54" class="edge"><title>n3&#45;&#45;n5</title>
<path fill="none" stroke="black" d="M-0.427064,53.5495C-12.2822,44.1269 -28.6156,31.1449 -40.4632,21.7282"/>
</g>
<!-- n3&#45;&#45;n4 -->
<g id="edge55" class="edge"><title>n3&#45;&#45;n4</title>
<path fill="none" stroke="black" d="M27.8,80.707C34.4565,88.4361 42.555,97.8395 49.2092,105.566"/>
</g>
<!-- n2 -->
<g id="node12" class="node"><title>n2</title>
<ellipse fill="none" stroke="black" cx="-119.77" cy="-53.0744" rx="19.4965" ry="19.4965"/>
<text text-anchor="middle" x="-119.77" y="-49.3744" font-family="Times,serif" font-size="14.00">n2</text>
</g>
<!-- n2&#45;&#45;n12 -->
<g id="edge57" class="edge"><title>n2&#45;&#45;n12</title>
<path fill="none" stroke="black" d="M-122.764,-33.6359C-124.343,-23.3846 -126.294,-10.7212 -127.964,0.118591"/>
</g>
<!-- n2&#45;&#45;n13 -->
<g id="edge56" class="edge"><title>n2&#45;&#45;n13</title>
<path fill="none" stroke="black" d="M-100.602,-47.9877C-63.7598,-38.2108 16.819,-16.8273 56.7503,-6.23056"/>
</g>
<!-- n2&#45;&#45;n11 -->
<g id="edge58" class="edge"><title>n2&#45;&#45;n11</title>
<path fill="none" stroke="black" d="M-110.802,-35.3997C-93.564,-1.42748 -55.8632,72.8745 -37.1803,109.695"/>
</g>
<!-- n2&#45;&#45;n10 -->
<g id="edge59" class="edge"><title>n2&#45;&#45;n10</title>
<path fill="none" stroke="black" d="M-103.971,-64.5449C-83.4823,-79.4202 -47.7555,-105.359 -25.6144,-121.434"/>
</g>
<!-- n2&#45;&#45;n9 -->
<g id="edge60" class="edge"><title>n2&#45;&#45;n9</title>
<path fill="none" stroke="black" d="M-100.138,-55.1034C-74.5417,-57.749 -30.0247,-62.3501 -4.41644,-64.9969"/>
</g>
<!-- n2&#45;&#45;n8 -->
<g id="edge61" class="edge"><title>n2&#45;&#45;n8</title>
<path fill="none" stroke="black" d="M-106.311,-67.4996C-100.191,-74.0587 -92.9632,-81.8054 -86.8278,-88.3813"/>
</g>
<!-- n2&#45;&#45;n7 -->
<g id="edge62" class="edge"><title>n2&#45;&#45;n7</title>
<path fill="none" stroke="black" d="M-116.172,-33.6297C-110.991,-5.62314 -101.481,45.7784 -96.2917,73.8297"/>
</g>
<!-- n2&#45;&#45;n6 -->
<g id="edge63" class="edge"><title>n2&#45;&#45;n6</title>
<path fill="none" stroke="black" d="M-102.082,-44.6925C-57.5991,-23.6126 58.5454,31.4267 103.056,52.5198"/>
</g>
<!-- n2&#45;&#45;n5 -->
<g id="edge64" class="edge"><title>n2&#45;&#45;n5</title>
<path fill="none" stroke="black" d="M-105.566,-39.1732C-94.96,-28.7932 -80.5298,-14.6704 -69.9335,-4.29977"/>
</g>
<!-- n2&#45;&#45;n4 -->
<g id="edge65" class="edge"><title>n2&#45;&#45;n4</title>
<path fill="none" stroke="black" d="M-105.5,-39.453C-71.5049,-7.00296 13.9531,74.5717 47.881,106.958"/>
</g>
<!-- n2&#45;&#45;n3 -->
<g id="edge66" class="edge"><title>n2&#45;&#45;n3</title>
<path fill="none" stroke="black" d="M-105.1,-40.1331C-79.1936,-17.2783 -25.6359,29.9702 0.257858,52.8137"/>
</g>
<!-- n1 -->
<g id="node13" class="node"><title>n1</title>
<ellipse fill="none" stroke="black" cx="131.682" cy="-39.0096" rx="19.4965" ry="19.4965"/>
<text text-anchor="middle" x="131.682" y="-35.3096" font-family="Times,serif" font-size="14.00">n1</text>
</g>
<!-- n1&#45;&#45;n12 -->
<g id="edge68" class="edge"><title>n1&#45;&#45;n12</title>
<path fill="none" stroke="black" d="M112.32,-34.3795C64.9307,-23.0473 -56.7535,6.05119 -108.157,18.3434"/>
</g>
<!-- n1&#45;&#45;n13 -->
<g id="edge67" class="edge"><title>n1&#45;&#45;n13</title>
<path fill="none" stroke="black" d="M115.937,-27.101C110.726,-23.16 104.867,-18.7289 99.4217,-14.6105"/>
</g>
<!-- n1&#45;&#45;n11 -->
<g id="edge69" class="edge"><title>n1&#45;&#45;n11</title>
<path fill="none" stroke="black" d="M118.218,-24.4926C89.352,6.63057 21.5918,79.6891 -9.77367,113.507"/>
</g>
<!-- n1&#45;&#45;n10 -->
<g id="edge70" class="edge"><title>n1&#45;&#45;n10</title>
<path fill="none" stroke="black" d="M115.602,-50.2752C90.3219,-67.9857 41.3365,-102.303 13.8329,-121.572"/>
</g>
<!-- n1&#45;&#45;n9 -->
<g id="edge71" class="edge"><title>n1&#45;&#45;n9</title>
<path fill="none" stroke="black" d="M112.714,-43.5737C91.061,-48.784 55.8484,-57.2569 34.1983,-62.4663"/>
</g>
<!-- n1&#45;&#45;n8 -->
<g id="edge72" class="edge"><title>n1&#45;&#45;n8</title>
<path fill="none" stroke="black" d="M112.771,-44.9101C73.7331,-57.0904 -15.3735,-84.8925 -54.3725,-97.0606"/>
</g>
<!-- n1&#45;&#45;n7 -->
<g id="edge73" class="edge"><title>n1&#45;&#45;n7</title>
<path fill="none" stroke="black" d="M114.819,-29.0608C73.2394,-4.53071 -33.8362,58.6396 -75.6201,83.2905"/>
</g>
<!-- n1&#45;&#45;n6 -->
<g id="edge74" class="edge"><title>n1&#45;&#45;n6</title>
<path fill="none" stroke="black" d="M129.526,-19.268C127.613,-1.74998 124.833,23.7077 122.921,41.2133"/>
</g>
<!-- n1&#45;&#45;n5 -->
<g id="edge75" class="edge"><title>n1&#45;&#45;n5</title>
<path fill="none" stroke="black" d="M112.677,-34.085C76.7489,-24.7754 -0.747033,-4.69478 -36.7137,4.62484"/>
</g>
<!-- n1&#45;&#45;n4 -->
<g id="edge76" class="edge"><title>n1&#45;&#45;n4</title>
<path fill="none" stroke="black" d="M123.834,-21.0201C110.467,9.61798 83.4309,71.5877 70.0111,102.347"/>
</g>
<!-- n1&#45;&#45;n3 -->
<g id="edge77" class="edge"><title>n1&#45;&#45;n3</title>
<path fill="none" stroke="black" d="M116.893,-25.7432C94.4311,-5.59429 51.9688,32.4955 29.5785,52.5802"/>
</g>
<!-- n1&#45;&#45;n2 -->
<g id="edge78" class="edge"><title>n1&#45;&#45;n2</title>
<path fill="none" stroke="black" d="M111.951,-40.1133C64.9461,-42.7425 -53.2178,-49.3519 -100.13,-51.9759"/>
</g>
<!-- n0 -->
<g id="node14" class="node"><title>n0</title>
<ellipse fill="none" stroke="black" cx="80.6575" cy="-107.651" rx="19.4965" ry="19.4965"/>
<text text-anchor="middle" x="80.6575" y="-103.951" font-family="Times,serif" font-size="14.00">n0</text>
</g>
<!-- n0&#45;&#45;n12 -->
<g id="edge80" class="edge"><title>n0&#45;&#45;n12</title>
<path fill="none" stroke="black" d="M63.9991,-97.3239C25.5847,-73.5093 -69.1213,-14.7974 -111.07,11.208"/>
</g>
<!-- n0&#45;&#45;n13 -->
<g id="edge79" class="edge"><title>n0&#45;&#45;n13</title>
<path fill="none" stroke="black" d="M80.5619,-87.9107C80.4748,-69.9479 80.3462,-43.3805 80.2531,-24.1613"/>
</g>
<!-- n0&#45;&#45;n11 -->
<g id="edge81" class="edge"><title>n0&#45;&#45;n11</title>
<path fill="none" stroke="black" d="M72.6229,-89.6939C53.3953,-46.7207 4.77086,61.9539 -16.2751,108.991"/>
</g>
<!-- n0&#45;&#45;n10 -->
<g id="edge82" class="edge"><title>n0&#45;&#45;n10</title>
<path fill="none" stroke="black" d="M61.8223,-113.709C48.6585,-117.942 30.9991,-123.622 16.98,-128.131"/>
</g>
<!-- n0&#45;&#45;n9 -->
<g id="edge83" class="edge"><title>n0&#45;&#45;n9</title>
<path fill="none" stroke="black" d="M63.8105,-97.1897C54.1189,-91.1716 41.9759,-83.6313 32.2559,-77.5955"/>
</g>
<!-- n0&#45;&#45;n8 -->
<g id="edge84" class="edge"><title>n0&#45;&#45;n8</title>
<path fill="none" stroke="black" d="M61.1665,-107.055C31.7258,-106.155 -23.7862,-104.458 -53.4191,-103.553"/>
</g>
<!-- n0&#45;&#45;n7 -->
<g id="edge85" class="edge"><title>n0&#45;&#45;n7</title>
<path fill="none" stroke="black" d="M67.9116,-92.8706C35.8563,-55.6985 -47.8395,41.3573 -79.9149,78.5526"/>
</g>
<!-- n0&#45;&#45;n6 -->
<g id="edge86" class="edge"><title>n0&#45;&#45;n6</title>
<path fill="none" stroke="black" d="M85.1809,-88.6422C92.8847,-56.268 108.467,9.21324 116.201,41.7159"/>
</g>
<!-- n0&#45;&#45;n5 -->
<g id="edge87" class="edge"><title>n0&#45;&#45;n5</title>
<path fill="none" stroke="black" d="M65.7977,-94.884C39.5548,-72.337 -14.6981,-25.7246 -40.928,-3.18876"/>
</g>
<!-- n0&#45;&#45;n4 -->
<g id="edge88" class="edge"><title>n0&#45;&#45;n4</title>
<path fill="none" stroke="black" d="M79.0739,-88.1977C75.5738,-45.1983 67.2112,57.535 63.6904,100.788"/>
</g>
<!-- n0&#45;&#45;n3 -->
<g id="edge89" class="edge"><title>n0&#45;&#45;n3</title>
<path fill="none" stroke="black" d="M73.6212,-89.0953C60.9665,-55.7226 34.5126,14.0412 21.8948,47.3166"/>
</g>
<!-- n0&#45;&#45;n2 -->
<g id="edge90" class="edge"><title>n0&#45;&#45;n2</title>
<path fill="none" stroke="black" d="M61.8018,-102.517C23.602,-92.1148 -62.5382,-68.6586 -100.818,-58.2349"/>
</g>
<!-- n0&#45;&#45;n1 -->
<g id="edge91" class="edge"><title>n0&#45;&#45;n1</title>
<path fill="none" stroke="black" d="M92.4918,-91.7308C100.735,-80.6416 111.683,-65.9138 119.912,-54.8436"/>
</g>
</g>
</svg>
