ply
format ascii 1.0
comment TextureFile cam_15.jpg
element vertex 4
property float x
property float y
property float z
property float nx
property float ny
property float nz
property uchar red
property uchar green
property uchar blue
property float texture_u
property float texture_v
element face 1
property list uchar int vertex_indices
end_header
0.536173 -0.836133 2.10805 0.230084 -0.358803 0.904611 255 255 255 0 0
0.385629 -0.877529 2.17249 0.162401 -0.369556 0.914907 255 255 255 1 0
0.358426 -1.03127 2.01018 0.156686 -0.450821 0.878755 255 255 255 1 1
0.50897 -0.989874 1.94574 0.227056 -0.441591 0.868011 255 255 255 0 1
4 0 1 2 3
