ply
format ascii 1.0
comment TextureFile cam_4.jpg
element vertex 4
property float x
property float y
property float z
property float nx
property float ny
property float nz
property uchar red
property uchar green
property uchar blue
property float texture_u
property float texture_v
element face 1
property list uchar int vertex_indices
end_header
-1.15789 -0.151577 0.399866 -0.938069 -0.122801 0.323954 255 255 255 0 0
-1.04421 -0.108875 0.282462 -0.960454 -0.100142 0.259806 255 255 255 1 0
-0.98586 -0.325259 0.260255 -0.921145 -0.303908 0.243171 255 255 255 1 1
-1.09954 -0.367962 0.377659 -0.901683 -0.301749 0.309702 255 255 255 0 1
4 0 1 2 3
