ply
format ascii 1.0
comment TextureFile cam_17.jpg
element vertex 4
property float x
property float y
property float z
property float nx
property float ny
property float nz
property uchar red
property uchar green
property uchar blue
property float texture_u
property float texture_v
element face 1
property list uchar int vertex_indices
end_header
0.985607 -0.565187 1.69705 0.482606 -0.276746 0.830965 255 255 255 0 0
0.893468 -0.615911 1.82921 0.420082 -0.289583 0.860042 255 255 255 1 0
0.813947 -0.788055 1.70771 0.397175 -0.38454 0.833295 255 255 255 1 1
0.906086 -0.737331 1.57554 0.461965 -0.375926 0.803286 255 255 255 0 1
4 0 1 2 3
