ply
format ascii 1.0
comment TextureFile cam_8.jpg
element vertex 4
property float x
property float y
property float z
property float nx
property float ny
property float nz
property uchar red
property uchar green
property uchar blue
property float texture_u
property float texture_v
element face 1
property list uchar int vertex_indices
end_header
-1.26098 -0.673978 1.66542 -0.574482 -0.307054 0.758741 255 255 255 0 0
-1.31922 -0.613799 1.51873 -0.62723 -0.291834 0.722091 255 255 255 1 0
-1.24649 -0.799301 1.41376 -0.608855 -0.390422 0.690555 255 255 255 1 1
-1.18825 -0.859479 1.56044 -0.554893 -0.401362 0.728699 255 255 255 0 1
4 0 1 2 3
