ply
format ascii 1.0
comment TextureFile cam_33.jpg
element vertex 4
property float x
property float y
property float z
property float nx
property float ny
property float nz
property uchar red
property uchar green
property uchar blue
property float texture_u
property float texture_v
element face 1
property list uchar int vertex_indices
end_header
-0.880623 -0.763615 0.890054 -0.600468 -0.520684 0.606899 255 255 255 0 0
-0.837987 -0.691227 0.74352 -0.636588 -0.5251 0.564825 255 255 255 1 0
-0.668557 -0.837787 0.720417 -0.517677 -0.648716 0.557834 255 255 255 1 1
-0.711193 -0.910175 0.866951 -0.492435 -0.630212 0.600284 255 255 255 0 1
4 0 1 2 3
