ply
format ascii 1.0
comment TextureFile cam_27.jpg
element vertex 4
property float x
property float y
property float z
property float nx
property float ny
property float nz
property uchar red
property uchar green
property uchar blue
property float texture_u
property float texture_v
element face 1
property list uchar int vertex_indices
end_header
0.601417 -0.381345 0.389298 0.741035 -0.469874 0.479673 255 255 255 0 0
0.722952 -0.416951 0.501063 0.742683 -0.42833 0.514738 255 255 255 1 0
0.636975 -0.623244 0.528836 0.614686 -0.601435 0.510331 255 255 255 1 1
0.515439 -0.587638 0.417071 0.581779 -0.66327 0.47075 255 255 255 0 1
4 0 1 2 3
