ply
format ascii 1.0
comment TextureFile cam_7.jpg
element vertex 4
property float x
property float y
property float z
property float nx
property float ny
property float nz
property uchar red
property uchar green
property uchar blue
property float texture_u
property float texture_v
element face 1
property list uchar int vertex_indices
end_header
-1.38893 -0.538302 1.39205 -0.68125 -0.264029 0.682779 255 255 255 0 0
-1.40104 -0.468885 1.23854 -0.726723 -0.243211 0.642434 255 255 255 1 0
-1.32164 -0.658491 1.14654 -0.706962 -0.352235 0.613298 255 255 255 1 1
-1.30953 -0.727908 1.30005 -0.660164 -0.366955 0.655383 255 255 255 0 1
4 0 1 2 3
