ply
format ascii 1.0
comment TextureFile cam_21.jpg
element vertex 4
property float x
property float y
property float z
property float nx
property float ny
property float nz
property uchar red
property uchar green
property uchar blue
property float texture_u
property float texture_v
element face 1
property list uchar int vertex_indices
end_header
0.954268 -0.184628 0.701018 0.796291 -0.154063 0.584966 255 255 255 0 0
1.01452 -0.237773 0.849595 0.754588 -0.176852 0.631918 255 255 255 1 0
0.918295 -0.438724 0.81674 0.703719 -0.336208 0.625894 255 255 255 1 1
0.858041 -0.385579 0.668163 0.743639 -0.33417 0.579078 255 255 255 0 1
4 0 1 2 3
