ply
format ascii 1.0
comment TextureFile cam_2.jpg
element vertex 4
property float x
property float y
property float z
property float nx
property float ny
property float nz
property uchar red
property uchar green
property uchar blue
property float texture_u
property float texture_v
element face 1
property list uchar int vertex_indices
end_header
-0.692646 -0.0489289 0.121261 -0.982643 -0.0694144 0.172031 255 255 255 0 0
-0.539469 -0.0280182 0.0532195 -0.993843 -0.0516167 0.0980441 255 255 255 1 0
-0.502585 -0.249688 0.0681316 -0.88904 -0.441682 0.12052 255 255 255 1 1
-0.655762 -0.270598 0.136173 -0.907817 -0.374608 0.188514 255 255 255 0 1
4 0 1 2 3
