ply
format ascii 1.0
comment TextureFile cam_6.jpg
element vertex 4
property float x
property float y
property float z
property float nx
property float ny
property float nz
property uchar red
property uchar green
property uchar blue
property float texture_u
property float texture_v
element face 1
property list uchar int vertex_indices
end_header
-1.41835 -0.358393 1.01347 -0.796966 -0.20138 0.569466 255 255 255 0 0
-1.38142 -0.292208 0.862522 -0.834903 -0.176606 0.521293 255 255 255 1 0
-1.30262 -0.491843 0.794269 -0.812618 -0.306827 0.49549 255 255 255 1 1
-1.33956 -0.558027 0.945218 -0.773492 -0.322217 0.54579 255 255 255 0 1
4 0 1 2 3
