ply
format ascii 1.0
comment TextureFile cam_31.jpg
element vertex 4
property float x
property float y
property float z
property float nx
property float ny
property float nz
property uchar red
property uchar green
property uchar blue
property float texture_u
property float texture_v
element face 1
property list uchar int vertex_indices
end_header
-0.438203 -0.466006 0.42996 -0.568544 -0.604617 0.55785 255 255 255 0 0
-0.285534 -0.435274 0.364556 -0.449287 -0.684903 0.573628 255 255 255 1 0
-0.21013 -0.629915 0.449109 -0.262121 -0.785771 0.56023 255 255 255 1 1
-0.362799 -0.660647 0.514513 -0.397553 -0.723933 0.563801 255 255 255 0 1
4 0 1 2 3
