ply
format ascii 1.0
comment TextureFile cam_18.jpg
element vertex 4
property float x
property float y
property float z
property float nx
property float ny
property float nz
property uchar red
property uchar green
property uchar blue
property float texture_u
property float texture_v
element face 1
property list uchar int vertex_indices
end_header
1.00415 -0.495221 1.50933 0.534331 -0.263519 0.803149 255 255 255 0 0
0.938929 -0.548758 1.65565 0.473995 -0.277027 0.835814 255 255 255 1 0
0.84903 -0.726499 1.55055 0.44423 -0.380119 0.811277 255 255 255 1 1
0.91425 -0.672961 1.40422 0.506312 -0.372686 0.777659 255 255 255 0 1
4 0 1 2 3
