ply
format ascii 1.0
comment TextureFile cam_30.jpg
element vertex 4
property float x
property float y
property float z
property float nx
property float ny
property float nz
property uchar red
property uchar green
property uchar blue
property float texture_u
property float texture_v
element face 1
property list uchar int vertex_indices
end_header
0.749932 -0.848897 1.37308 0.421312 -0.47691 0.771397 255 255 255 0 0
0.653988 -0.931471 1.48491 0.349556 -0.497871 0.793685 255 255 255 1 0
0.537424 -1.02455 1.31618 0.306681 -0.584659 0.75108 255 255 255 1 1
0.633368 -0.941974 1.20435 0.382706 -0.569178 0.727717 255 255 255 0 1
4 0 1 2 3
