ply
format ascii 1.0
comment TextureFile cam_29.jpg
element vertex 4
property float x
property float y
property float z
property float nx
property float ny
property float nz
property uchar red
property uchar green
property uchar blue
property float texture_u
property float texture_v
element face 1
property list uchar int vertex_indices
end_header
0.953442 -0.687152 1.11709 0.588017 -0.423788 0.688941 255 255 255 0 0
0.931814 -0.759216 1.26831 0.533267 -0.434491 0.72584 255 255 255 1 0
0.790812 -0.909061 1.17674 0.469551 -0.539762 0.698698 255 255 255 1 1
0.81244 -0.836997 1.02551 0.523089 -0.5389 0.660276 255 255 255 0 1
4 0 1 2 3
