ply
format ascii 1.0
comment TextureFile cam_28.jpg
element vertex 4
property float x
property float y
property float z
property float nx
property float ny
property float nz
property uchar red
property uchar green
property uchar blue
property float texture_u
property float texture_v
element face 1
property list uchar int vertex_indices
end_header
0.892815 -0.479195 0.709345 0.721818 -0.387417 0.573487 255 255 255 0 0
0.952269 -0.54151 0.854645 0.685375 -0.38974 0.615112 255 255 255 1 0
0.825922 -0.725918 0.827256 0.600221 -0.527546 0.601191 255 255 255 1 1
0.766468 -0.663603 0.681956 0.627303 -0.543115 0.558136 255 255 255 0 1
4 0 1 2 3
