ply
format ascii 1.0
comment TextureFile cam_25.jpg
element vertex 4
property float x
property float y
property float z
property float nx
property float ny
property float nz
property uchar red
property uchar green
property uchar blue
property float texture_u
property float texture_v
element face 1
property list uchar int vertex_indices
end_header
0.226807 0.0811502 0.193634 0.733849 0.262567 0.626517 255 255 255 0 0
0.385135 0.070437 0.251493 0.827647 0.151368 0.540453 255 255 255 1 0
0.36705 -0.153906 0.25944 0.772571 -0.323944 0.546072 255 255 255 1 1
0.208722 -0.143193 0.201582 0.645039 -0.442527 0.622972 255 255 255 0 1
4 0 1 2 3
