ply
format ascii 1.0
comment TextureFile cam_12.jpg
element vertex 4
property float x
property float y
property float z
property float nx
property float ny
property float nz
property uchar red
property uchar green
property uchar blue
property float texture_u
property float texture_v
element face 1
property list uchar int vertex_indices
end_header
-0.391662 -0.849509 2.24155 -0.16125 -0.349749 0.922862 255 255 255 0 0
-0.555235 -0.833865 2.20244 -0.229476 -0.344632 0.910258 255 255 255 1 0
-0.53148 -0.989067 2.04099 -0.228157 -0.424592 0.876166 255 255 255 1 1
-0.367907 -1.00471 2.08009 -0.157283 -0.429522 0.889254 255 255 255 0 1
4 0 1 2 3
