ply
format ascii 1.0
comment TextureFile cam_20.jpg
element vertex 4
property float x
property float y
property float z
property float nx
property float ny
property float nz
property uchar red
property uchar green
property uchar blue
property float texture_u
property float texture_v
element face 1
property list uchar int vertex_indices
end_header
0.951268 -0.313327 1.0337 0.660918 -0.217692 0.71819 255 255 255 0 0
0.967375 -0.366979 1.19305 0.612575 -0.232384 0.75548 255 255 255 1 0
0.850849 -0.552882 1.14223 0.556894 -0.36187 0.747609 255 255 255 1 1
0.834743 -0.499229 0.982885 0.603669 -0.361032 0.710802 255 255 255 0 1
4 0 1 2 3
