ply
format ascii 1.0
comment TextureFile cam_13.jpg
element vertex 4
property float x
property float y
property float z
property float nx
property float ny
property float nz
property uchar red
property uchar green
property uchar blue
property float texture_u
property float texture_v
element face 1
property list uchar int vertex_indices
end_header
-0.144729 -0.856567 2.21103 -0.0609242 -0.360575 0.930739 255 255 255 0 0
-0.313175 -0.852343 2.19927 -0.131622 -0.358224 0.924311 255 255 255 1 0
-0.306077 -1.01172 2.04031 -0.133202 -0.44029 0.88792 255 255 255 1 1
-0.137631 -1.01594 2.05206 -0.0599985 -0.442886 0.894568 255 255 255 0 1
4 0 1 2 3
