ply
format ascii 1.0
comment TextureFile cam_14.jpg
element vertex 4
property float x
property float y
property float z
property float nx
property float ny
property float nz
property uchar red
property uchar green
property uchar blue
property float texture_u
property float texture_v
element face 1
property list uchar int vertex_indices
end_header
0.100856 -0.788474 2.15353 0.0439355 -0.343479 0.938132 255 255 255 0 0
-0.0661172 -0.798184 2.1771 -0.0285018 -0.344082 0.938507 255 255 255 1 0
-0.0810964 -0.947752 2.0094 -0.0364778 -0.426307 0.903843 255 255 255 1 1
0.085877 -0.938042 1.98582 0.0390722 -0.426789 0.903507 255 255 255 0 1
4 0 1 2 3
