ply
format ascii 1.0
comment TextureFile cam_34.jpg
element vertex 4
property float x
property float y
property float z
property float nx
property float ny
property float nz
property uchar red
property uchar green
property uchar blue
property float texture_u
property float texture_v
element face 1
property list uchar int vertex_indices
end_header
-0.799238 -0.897866 1.20723 -0.469139 -0.527032 0.708622 255 255 255 0 0
-0.826507 -0.817263 1.06132 -0.525105 -0.519232 0.674287 255 255 255 1 0
-0.65203 -0.925578 0.968875 -0.437559 -0.62113 0.650185 255 255 255 1 1
-0.624761 -1.00618 1.11478 -0.384116 -0.618621 0.685393 255 255 255 0 1
4 0 1 2 3
