ply
format ascii 1.0
comment TextureFile cam_32.jpg
element vertex 4
property float x
property float y
property float z
property float nx
property float ny
property float nz
property uchar red
property uchar green
property uchar blue
property float texture_u
property float texture_v
element face 1
property list uchar int vertex_indices
end_header
-0.733845 -0.567908 0.609013 -0.661164 -0.511661 0.548695 255 255 255 0 0
-0.624024 -0.513905 0.492596 -0.659188 -0.542864 0.520355 255 255 255 1 0
-0.494639 -0.694192 0.53102 -0.492537 -0.691242 0.528764 255 255 255 1 1
-0.604461 -0.748195 0.647437 -0.52133 -0.645297 0.558396 255 255 255 0 1
4 0 1 2 3
