ply
format ascii 1.0
element vertex 38
property double x
property double y
property double z
property uchar red
property uchar green
property uchar blue
end_header
0.0000000000000000 0.0000000000000000 0.0000000000000000 0 255 0
-0.0460752557978461 -0.1833896631060205 -0.0269023880714813 0 255 0
0.0211883766913452 -0.4369633974070765 0.0199070687161058 0 255 0
-0.0479594672596291 -0.6324975820130403 0.0332264872431089 0 255 0
-0.1115506337798503 -0.8641219555438575 0.1577669402982644 0 255 0
-0.1726423833393530 -0.9810399117949758 0.2348059071864766 0 255 0
-0.3542643970134736 -1.2660273195641982 0.5045178219326751 0 255 0
-0.8102824849254920 -1.3181558184037037 1.7264416887301908 0 255 0
-0.8617060629908992 -1.1246809955798713 1.9680339533597537 0 255 0
-0.9679356420005403 -0.9905461975881866 2.1935606936721546 0 255 0
-0.9154032345497343 -0.8150528302143675 2.3185830411211410 0 255 0
-0.9936188666653417 -0.5227746585013275 2.4334901200735466 0 255 0
-0.9641824427289932 -0.3272094461154127 2.5081495974609544 0 255 0
-0.9377718209753995 -0.0741700266923697 2.4436280414065226 0 255 0
-0.9798874713685721 0.1097083746365158 2.4250547078823619 0 255 0
-0.9385648200352814 0.3701544806602139 2.4846994252779324 0 255 0
-0.8978543801391204 0.6488416830922750 2.3199134128507497 0 255 0
-0.8279156576122572 0.7909656489588837 2.2505077251746077 0 255 0
-0.8192978804575304 0.8784336272729704 2.1794145420263593 0 255 0
-0.7589577718674617 0.9569016128868291 2.1365087837781092 0 255 0
-0.7024251626252632 1.1137354902913843 1.8733379382672979 0 255 0
-0.6436732944931516 1.1694163385223519 1.7419944886716781 0 255 0
-0.5857122005367875 1.2674043447442696 1.5351947889971289 0 255 0
-0.4648882249660183 1.2894767082943834 1.3487065947919696 0 255 0
-0.2232752122276231 1.2681054894032548 1.2110501675290015 0 255 0
-0.1840270835850094 1.1672582922364179 0.7584904452617840 0 255 0
-0.1206410515983468 1.0176767684519217 0.5648501038392587 0 255 0
-0.0701972157158960 0.1407720139730735 0.0252334645344900 0 255 0
-0.1120468793231276 0.4304849658180608 0.1184225871898741 0 255 0
-0.2093256943284842 0.7935368690856904 0.4193097820867537 0 255 0
-1.3527466204225778 -0.3482549226301492 1.8016388279133260 0 255 0
-1.3704922037956435 0.0901146534205158 1.9658463636206940 0 255 0
-1.3172632542621765 0.3516244192864581 1.8319614896252254 0 255 0
-1.2373216955014745 0.5159643462630962 1.7013530053074379 0 255 0
-1.1082937145102638 0.7330439347159665 1.5378423274571986 0 255 0
-1.0389746836526437 0.8803839452311923 1.2683453670630065 0 255 0
-0.7520237505437976 1.0229213987860111 0.9461900161986752 0 255 0
-0.0233902477218629 0.1682252435942072 0.1067670531727918 0 255 0
