<?xml version="1.0" encoding="UTF-8" standalone="no"?>
<!DOCTYPE svg PUBLIC "-//W3C//DTD SVG 1.1//EN"
 "http://www.w3.org/Graphics/SVG/1.1/DTD/svg11.dtd">
<!-- Generated by graphviz version 2.38.0 (20140413.2041)
 -->
<!-- Title: 1 Pages: 1 -->
<svg width="554pt" height="1775pt"
 viewBox="0.00 0.00 554.12 1774.96" xmlns="http://www.w3.org/2000/svg" xmlns:xlink="http://www.w3.org/1999/xlink">
<g id="graph0" class="graph" transform="scale(1 1) rotate(0) translate(323.798 872.238)">
<title>1</title>
<polygon fill="white" stroke="none" points="-323.798,902.727 -323.798,-872.238 230.323,-872.238 230.323,902.727 -323.798,902.727"/>
<!-- n35 -->
<g id="node1" class="node"><title>n35</title>
<ellipse fill="none" stroke="black" cx="-154.234" cy="19.4491" rx="24.0958" ry="24.0958"/>
<text text-anchor="middle" x="-154.234" y="23.1491" font-family="Times,serif" font-size="14.00">n35</text>
</g>
<!-- n36 -->
<g id="node2" class="node"><title>n36</title>
<ellipse fill="none" stroke="black" cx="-10.3375" cy="130.318" rx="24.0958" ry="24.0958"/>
<text text-anchor="middle" x="-10.3375" y="134.018" font-family="Times,serif" font-size="14.00">n36</text>
</g>
<!-- n35&#45;&#45;n36 -->
<g id="edge1" class="edge"><title>n35&#45;&#45;n36</title>
<path fill="none" stroke="black" d="M-135.126,34.1717C-107.603,55.377 -57.091,94.2957 -29.5248,115.535"/>
</g>
<!-- n34 -->
<g id="node3" class="node"><title>n34</title>
<ellipse fill="none" stroke="black" cx="-86.0009" cy="-84.7561" rx="24.0958" ry="24.0958"/>
<text text-anchor="middle" x="-86.0009" y="-81.0561" font-family="Times,serif" font-size="14.00">n34</text>
</g>
<!-- n34&#45;&#45;n35 -->
<g id="edge3" class="edge"><title>n34&#45;&#45;n35</title>
<path fill="none" stroke="black" d="M-99.4816,-64.1685C-111.521,-45.7813 -129.054,-19.0062 -141.013,-0.741126"/>
</g>
<!-- n34&#45;&#45;n36 -->
<g id="edge2" class="edge"><title>n34&#45;&#45;n36</title>
<path fill="none" stroke="black" d="M-77.9036,-61.7394C-63.3405,-20.3436 -32.8972,66.192 -18.3766,107.467"/>
</g>
<!-- n33 -->
<g id="node4" class="node"><title>n33</title>
<ellipse fill="none" stroke="black" cx="-196.396" cy="-135.941" rx="24.0958" ry="24.0958"/>
<text text-anchor="middle" x="-196.396" y="-132.241" font-family="Times,serif" font-size="14.00">n33</text>
</g>
<!-- n33&#45;&#45;n35 -->
<g id="edge4" class="edge"><title>n33&#45;&#45;n35</title>
<path fill="none" stroke="black" d="M-190.084,-112.678C-182.136,-83.3834 -168.558,-33.3425 -160.589,-3.97339"/>
</g>
<!-- n33&#45;&#45;n34 -->
<g id="edge5" class="edge"><title>n33&#45;&#45;n34</title>
<path fill="none" stroke="black" d="M-174.321,-125.706C-155.067,-116.779 -127.28,-103.895 -108.037,-94.9734"/>
</g>
<!-- n32 -->
<g id="node5" class="node"><title>n32</title>
<ellipse fill="none" stroke="black" cx="-220.805" cy="-221.538" rx="24.0958" ry="24.0958"/>
<text text-anchor="middle" x="-220.805" y="-217.838" font-family="Times,serif" font-size="14.00">n32</text>
</g>
<!-- n32&#45;&#45;n35 -->
<g id="edge6" class="edge"><title>n32&#45;&#45;n35</title>
<path fill="none" stroke="black" d="M-214.3,-197.992C-201.541,-151.803 -173.368,-49.8172 -160.667,-3.83728"/>
</g>
<!-- n32&#45;&#45;n34 -->
<g id="edge7" class="edge"><title>n32&#45;&#45;n34</title>
<path fill="none" stroke="black" d="M-203.732,-204.214C-177.802,-177.904 -128.783,-128.166 -102.935,-101.939"/>
</g>
<!-- n32&#45;&#45;n33 -->
<g id="edge8" class="edge"><title>n32&#45;&#45;n33</title>
<path fill="none" stroke="black" d="M-214.135,-198.148C-210.691,-186.07 -206.501,-171.376 -203.058,-159.303"/>
</g>
<!-- n31 -->
<g id="node6" class="node"><title>n31</title>
<ellipse fill="none" stroke="black" cx="-171.775" cy="-297.191" rx="24.0958" ry="24.0958"/>
<text text-anchor="middle" x="-171.775" y="-293.491" font-family="Times,serif" font-size="14.00">n31</text>
</g>
<!-- n31&#45;&#45;n34 -->
<g id="edge9" class="edge"><title>n31&#45;&#45;n34</title>
<path fill="none" stroke="black" d="M-162.758,-274.859C-146.284,-234.059 -111.506,-147.923 -95.026,-107.108"/>
</g>
<!-- n31&#45;&#45;n33 -->
<g id="edge10" class="edge"><title>n31&#45;&#45;n33</title>
<path fill="none" stroke="black" d="M-175.408,-273.398C-180.063,-242.911 -188.086,-190.366 -192.748,-159.832"/>
</g>
<!-- n31&#45;&#45;n32 -->
<g id="edge11" class="edge"><title>n31&#45;&#45;n32</title>
<path fill="none" stroke="black" d="M-184.914,-276.918C-191.949,-266.063 -200.589,-252.731 -207.629,-241.868"/>
</g>
<!-- n30 -->
<g id="node7" class="node"><title>n30</title>
<ellipse fill="none" stroke="black" cx="-295.75" cy="-437.513" rx="24.0958" ry="24.0958"/>
<text text-anchor="middle" x="-295.75" y="-433.813" font-family="Times,serif" font-size="14.00">n30</text>
</g>
<!-- n30&#45;&#45;n32 -->
<g id="edge12" class="edge"><title>n30&#45;&#45;n32</title>
<path fill="none" stroke="black" d="M-287.729,-414.4C-273.305,-372.831 -243.15,-285.933 -228.767,-244.485"/>
</g>
<!-- n30&#45;&#45;n31 -->
<g id="edge13" class="edge"><title>n30&#45;&#45;n31</title>
<path fill="none" stroke="black" d="M-279.796,-419.456C-256.122,-392.66 -211.926,-342.636 -188.061,-315.625"/>
</g>
<!-- n29 -->
<g id="node8" class="node"><title>n29</title>
<ellipse fill="none" stroke="black" cx="90.6306" cy="330.577" rx="24.0958" ry="24.0958"/>
<text text-anchor="middle" x="90.6306" y="334.277" font-family="Times,serif" font-size="14.00">n29</text>
</g>
<!-- n29&#45;&#45;n36 -->
<g id="edge15" class="edge"><title>n29&#45;&#45;n36</title>
<path fill="none" stroke="black" d="M79.633,308.765C60.1598,270.142 19.8475,190.187 0.493701,151.801"/>
</g>
<!-- n37 -->
<g id="node9" class="node"><title>n37</title>
<ellipse fill="none" stroke="black" cx="15.1271" cy="464.735" rx="24.0958" ry="24.0958"/>
<text text-anchor="middle" x="15.1271" y="468.435" font-family="Times,serif" font-size="14.00">n37</text>
</g>
<!-- n29&#45;&#45;n37 -->
<g id="edge14" class="edge"><title>n29&#45;&#45;n37</title>
<path fill="none" stroke="black" d="M78.8331,351.539C64.7315,376.596 41.2656,418.291 27.0908,443.477"/>
</g>
<!-- n28 -->
<g id="node10" class="node"><title>n28</title>
<ellipse fill="none" stroke="black" cx="188.314" cy="448.869" rx="24.0958" ry="24.0958"/>
<text text-anchor="middle" x="188.314" y="452.569" font-family="Times,serif" font-size="14.00">n28</text>
</g>
<!-- n28&#45;&#45;n29 -->
<g id="edge17" class="edge"><title>n28&#45;&#45;n29</title>
<path fill="none" stroke="black" d="M172.836,430.126C154.545,407.976 124.296,371.345 106.036,349.233"/>
</g>
<!-- n28&#45;&#45;n37 -->
<g id="edge16" class="edge"><title>n28&#45;&#45;n37</title>
<path fill="none" stroke="black" d="M164.233,451.075C131.238,454.098 72.3155,459.496 39.282,462.522"/>
</g>
<!-- n27 -->
<g id="node11" class="node"><title>n27</title>
<ellipse fill="none" stroke="black" cx="-64.6651" cy="503.635" rx="24.0958" ry="24.0958"/>
<text text-anchor="middle" x="-64.6651" y="507.335" font-family="Times,serif" font-size="14.00">n27</text>
</g>
<!-- n27&#45;&#45;n29 -->
<g id="edge19" class="edge"><title>n27&#45;&#45;n29</title>
<path fill="none" stroke="black" d="M-48.3392,485.442C-18.4356,452.118 44.7831,381.668 74.5235,348.526"/>
</g>
<!-- n27&#45;&#45;n37 -->
<g id="edge18" class="edge"><title>n27&#45;&#45;n37</title>
<path fill="none" stroke="black" d="M-42.8615,493.006C-31.6027,487.517 -17.9051,480.839 -6.65013,475.352"/>
</g>
<!-- n27&#45;&#45;n28 -->
<g id="edge20" class="edge"><title>n27&#45;&#45;n28</title>
<path fill="none" stroke="black" d="M-40.8655,498.483C7.47323,488.019 116.631,464.387 164.762,453.968"/>
</g>
<!-- n26 -->
<g id="node12" class="node"><title>n26</title>
<ellipse fill="none" stroke="black" cx="23.3816" cy="298.789" rx="24.0958" ry="24.0958"/>
<text text-anchor="middle" x="23.3816" y="302.489" font-family="Times,serif" font-size="14.00">n26</text>
</g>
<!-- n26&#45;&#45;n36 -->
<g id="edge22" class="edge"><title>n26&#45;&#45;n36</title>
<path fill="none" stroke="black" d="M18.622,275.009C12.1956,242.901 0.811854,186.024 -5.60207,153.978"/>
</g>
<!-- n26&#45;&#45;n29 -->
<g id="edge23" class="edge"><title>n26&#45;&#45;n29</title>
<path fill="none" stroke="black" d="M45.4014,309.198C52.9094,312.747 61.2972,316.711 68.791,320.254"/>
</g>
<!-- n26&#45;&#45;n37 -->
<g id="edge21" class="edge"><title>n26&#45;&#45;n37</title>
<path fill="none" stroke="black" d="M22.1813,322.919C20.6163,354.381 17.8945,409.1 16.3288,440.576"/>
</g>
<!-- n26&#45;&#45;n28 -->
<g id="edge24" class="edge"><title>n26&#45;&#45;n28</title>
<path fill="none" stroke="black" d="M41.3462,315.136C73.0724,344.005 138.661,403.688 170.371,432.543"/>
</g>
<!-- n25 -->
<g id="node13" class="node"><title>n25</title>
<ellipse fill="none" stroke="black" cx="200.979" cy="185.453" rx="24.0958" ry="24.0958"/>
<text text-anchor="middle" x="200.979" y="189.153" font-family="Times,serif" font-size="14.00">n25</text>
</g>
<!-- n25&#45;&#45;n36 -->
<g id="edge25" class="edge"><title>n25&#45;&#45;n36</title>
<path fill="none" stroke="black" d="M177.557,179.342C136.938,168.744 53.8817,147.074 13.1894,136.457"/>
</g>
<!-- n25&#45;&#45;n29 -->
<g id="edge26" class="edge"><title>n25&#45;&#45;n29</title>
<path fill="none" stroke="black" d="M186.326,204.724C165.22,232.481 126.484,283.425 105.345,311.226"/>
</g>
<!-- n25&#45;&#45;n26 -->
<g id="edge27" class="edge"><title>n25&#45;&#45;n26</title>
<path fill="none" stroke="black" d="M180.606,198.454C146.44,220.258 77.9799,263.947 43.7895,285.766"/>
</g>
<!-- n24 -->
<g id="node14" class="node"><title>n24</title>
<ellipse fill="none" stroke="black" cx="142.704" cy="107.474" rx="24.0958" ry="24.0958"/>
<text text-anchor="middle" x="142.704" y="111.174" font-family="Times,serif" font-size="14.00">n24</text>
</g>
<!-- n24&#45;&#45;n36 -->
<g id="edge28" class="edge"><title>n24&#45;&#45;n36</title>
<path fill="none" stroke="black" d="M118.791,111.043C90.124,115.322 42.3639,122.452 13.6594,126.736"/>
</g>
<!-- n24&#45;&#45;n26 -->
<g id="edge29" class="edge"><title>n24&#45;&#45;n26</title>
<path fill="none" stroke="black" d="M129.934,127.948C107.028,164.674 59.2099,241.344 36.2398,278.173"/>
</g>
<!-- n24&#45;&#45;n25 -->
<g id="edge30" class="edge"><title>n24&#45;&#45;n25</title>
<path fill="none" stroke="black" d="M157.109,126.75C166.075,138.746 177.565,154.123 186.538,166.129"/>
</g>
<!-- n23 -->
<g id="node15" class="node"><title>n23</title>
<ellipse fill="none" stroke="black" cx="136.247" cy="-14.0306" rx="24.0958" ry="24.0958"/>
<text text-anchor="middle" x="136.247" y="-10.3306" font-family="Times,serif" font-size="14.00">n23</text>
</g>
<!-- n23&#45;&#45;n35 -->
<g id="edge32" class="edge"><title>n23&#45;&#45;n35</title>
<path fill="none" stroke="black" d="M111.98,-11.2337C57.1654,-4.91595 -75.6862,10.396 -130.241,16.6838"/>
</g>
<!-- n23&#45;&#45;n36 -->
<g id="edge31" class="edge"><title>n23&#45;&#45;n36</title>
<path fill="none" stroke="black" d="M118.856,3.09497C90.6448,30.8762 35.2276,85.4481 7.0307,113.215"/>
</g>
<!-- n23&#45;&#45;n25 -->
<g id="edge33" class="edge"><title>n23&#45;&#45;n25</title>
<path fill="none" stroke="black" d="M143.673,8.85269C156.126,47.23 181.079,124.126 193.541,162.53"/>
</g>
<!-- n23&#45;&#45;n24 -->
<g id="edge34" class="edge"><title>n23&#45;&#45;n24</title>
<path fill="none" stroke="black" d="M137.538,10.2656C138.664,31.4574 140.29,62.0405 141.415,83.2198"/>
</g>
<!-- n22 -->
<g id="node16" class="node"><title>n22</title>
<ellipse fill="none" stroke="black" cx="-4.56645" cy="-34.7844" rx="24.0958" ry="24.0958"/>
<text text-anchor="middle" x="-4.56645" y="-31.0844" font-family="Times,serif" font-size="14.00">n22</text>
</g>
<!-- n22&#45;&#45;n35 -->
<g id="edge36" class="edge"><title>n22&#45;&#45;n35</title>
<path fill="none" stroke="black" d="M-27.2977,-26.5475C-55.4285,-16.354 -103.06,0.905589 -131.289,11.1347"/>
</g>
<!-- n22&#45;&#45;n36 -->
<g id="edge35" class="edge"><title>n22&#45;&#45;n36</title>
<path fill="none" stroke="black" d="M-5.41798,-10.4229C-6.51222,20.8822 -8.40047,74.9028 -9.49184,106.126"/>
</g>
<!-- n22&#45;&#45;n34 -->
<g id="edge37" class="edge"><title>n22&#45;&#45;n34</title>
<path fill="none" stroke="black" d="M-25.1158,-47.3943C-37.4607,-54.9697 -53.1145,-64.5755 -65.4581,-72.1501"/>
</g>
<!-- n22&#45;&#45;n24 -->
<g id="edge38" class="edge"><title>n22&#45;&#45;n24</title>
<path fill="none" stroke="black" d="M12.9057,-17.9068C41.2492,9.47204 96.9257,63.2536 125.255,90.6184"/>
</g>
<!-- n22&#45;&#45;n23 -->
<g id="edge39" class="edge"><title>n22&#45;&#45;n23</title>
<path fill="none" stroke="black" d="M19.3206,-31.2638C45.2145,-27.4474 86.3032,-21.3916 112.243,-17.5685"/>
</g>
<!-- n21 -->
<g id="node17" class="node"><title>n21</title>
<ellipse fill="none" stroke="black" cx="51.5293" cy="-59.2171" rx="24.0958" ry="24.0958"/>
<text text-anchor="middle" x="51.5293" y="-55.5171" font-family="Times,serif" font-size="14.00">n21</text>
</g>
<!-- n21&#45;&#45;n35 -->
<g id="edge41" class="edge"><title>n21&#45;&#45;n35</title>
<path fill="none" stroke="black" d="M28.7228,-50.4978C-10.9337,-35.3366 -92.1306,-4.29386 -131.639,10.8107"/>
</g>
<!-- n21&#45;&#45;n36 -->
<g id="edge40" class="edge"><title>n21&#45;&#45;n36</title>
<path fill="none" stroke="black" d="M44.0667,-36.3547C32.1756,0.0748928 9.05928,70.8943 -2.84843,107.375"/>
</g>
<!-- n21&#45;&#45;n34 -->
<g id="edge42" class="edge"><title>n21&#45;&#45;n34</title>
<path fill="none" stroke="black" d="M27.5734,-63.6656C2.3306,-68.3531 -37.1808,-75.6903 -62.3195,-80.3585"/>
</g>
<!-- n21&#45;&#45;n24 -->
<g id="edge43" class="edge"><title>n21&#45;&#45;n24</title>
<path fill="none" stroke="black" d="M63.0766,-38.1055C80.5666,-6.12938 113.587,54.2411 131.107,86.2712"/>
</g>
<!-- n21&#45;&#45;n23 -->
<g id="edge44" class="edge"><title>n21&#45;&#45;n23</title>
<path fill="none" stroke="black" d="M72.9072,-47.8146C85.7497,-40.9647 102.035,-32.2787 114.876,-25.4294"/>
</g>
<!-- n21&#45;&#45;n22 -->
<g id="edge45" class="edge"><title>n21&#45;&#45;n22</title>
<path fill="none" stroke="black" d="M29.3588,-49.5606C25.5613,-47.9066 21.6134,-46.1871 17.8106,-44.5308"/>
</g>
<!-- n20 -->
<g id="node18" class="node"><title>n20</title>
<ellipse fill="none" stroke="black" cx="155.505" cy="-118.942" rx="24.0958" ry="24.0958"/>
<text text-anchor="middle" x="155.505" y="-115.242" font-family="Times,serif" font-size="14.00">n20</text>
</g>
<!-- n20&#45;&#45;n34 -->
<g id="edge46" class="edge"><title>n20&#45;&#45;n34</title>
<path fill="none" stroke="black" d="M131.466,-115.539C85.1739,-108.986 -15.8436,-94.6869 -62.0587,-88.1451"/>
</g>
<!-- n20&#45;&#45;n24 -->
<g id="edge47" class="edge"><title>n20&#45;&#45;n24</title>
<path fill="none" stroke="black" d="M154.135,-94.7111C151.671,-51.1325 146.521,39.9661 144.064,83.4177"/>
</g>
<!-- n20&#45;&#45;n23 -->
<g id="edge48" class="edge"><title>n20&#45;&#45;n23</title>
<path fill="none" stroke="black" d="M151.135,-95.1356C147.984,-77.9663 143.747,-54.8899 140.6,-37.7423"/>
</g>
<!-- n20&#45;&#45;n22 -->
<g id="edge49" class="edge"><title>n20&#45;&#45;n22</title>
<path fill="none" stroke="black" d="M133.917,-107.592C103.281,-91.4849 47.523,-62.1702 16.9345,-46.0884"/>
</g>
<!-- n20&#45;&#45;n21 -->
<g id="edge50" class="edge"><title>n20&#45;&#45;n21</title>
<path fill="none" stroke="black" d="M134.464,-106.855C116.425,-96.4935 90.5694,-81.6419 72.5391,-71.2852"/>
</g>
<!-- n19 -->
<g id="node19" class="node"><title>n19</title>
<ellipse fill="none" stroke="black" cx="103.399" cy="-210.632" rx="24.0958" ry="24.0958"/>
<text text-anchor="middle" x="103.399" y="-206.932" font-family="Times,serif" font-size="14.00">n19</text>
</g>
<!-- n19&#45;&#45;n34 -->
<g id="edge51" class="edge"><title>n19&#45;&#45;n34</title>
<path fill="none" stroke="black" d="M83.1301,-197.161C46.6759,-172.933 -29.5296,-122.287 -65.8775,-98.1301"/>
</g>
<!-- n19&#45;&#45;n33 -->
<g id="edge52" class="edge"><title>n19&#45;&#45;n33</title>
<path fill="none" stroke="black" d="M79.8748,-204.771C23.8326,-190.809 -117.049,-155.71 -172.981,-141.775"/>
</g>
<!-- n19&#45;&#45;n23 -->
<g id="edge53" class="edge"><title>n19&#45;&#45;n23</title>
<path fill="none" stroke="black" d="M107.427,-186.525C113.749,-148.689 125.928,-75.7942 132.238,-38.0271"/>
</g>
<!-- n19&#45;&#45;n22 -->
<g id="edge54" class="edge"><title>n19&#45;&#45;n22</title>
<path fill="none" stroke="black" d="M90.8029,-190.116C70.0547,-156.322 28.9214,-89.3272 8.11655,-55.4416"/>
</g>
<!-- n19&#45;&#45;n21 -->
<g id="edge55" class="edge"><title>n19&#45;&#45;n21</title>
<path fill="none" stroke="black" d="M95.5213,-187.635C85.7721,-159.176 69.2647,-110.989 59.4814,-82.4301"/>
</g>
<!-- n19&#45;&#45;n20 -->
<g id="edge56" class="edge"><title>n19&#45;&#45;n20</title>
<path fill="none" stroke="black" d="M115.484,-189.366C123.902,-174.553 135.082,-154.88 143.486,-140.092"/>
</g>
<!-- n18 -->
<g id="node20" class="node"><title>n18</title>
<ellipse fill="none" stroke="black" cx="-4.50334" cy="-264.102" rx="24.0958" ry="24.0958"/>
<text text-anchor="middle" x="-4.50334" y="-260.402" font-family="Times,serif" font-size="14.00">n18</text>
</g>
<!-- n18&#45;&#45;n34 -->
<g id="edge57" class="edge"><title>n18&#45;&#45;n34</title>
<path fill="none" stroke="black" d="M-14.4965,-242.11C-30.1381,-207.689 -60.2342,-141.459 -75.926,-106.927"/>
</g>
<!-- n18&#45;&#45;n33 -->
<g id="edge58" class="edge"><title>n18&#45;&#45;n33</title>
<path fill="none" stroke="black" d="M-24.6765,-250.629C-61.5311,-226.014 -139.338,-174.049 -176.205,-149.426"/>
</g>
<!-- n18&#45;&#45;n32 -->
<g id="edge59" class="edge"><title>n18&#45;&#45;n32</title>
<path fill="none" stroke="black" d="M-28.4778,-259.384C-70.1653,-251.181 -155.521,-234.385 -197.052,-226.212"/>
</g>
<!-- n18&#45;&#45;n22 -->
<g id="edge60" class="edge"><title>n18&#45;&#45;n22</title>
<path fill="none" stroke="black" d="M-4.50997,-239.994C-4.52209,-195.952 -4.54768,-102.971 -4.55981,-58.913"/>
</g>
<!-- n18&#45;&#45;n21 -->
<g id="edge61" class="edge"><title>n18&#45;&#45;n21</title>
<path fill="none" stroke="black" d="M1.92432,-240.599C12.7328,-201.077 34.4186,-121.783 45.1766,-82.4458"/>
</g>
<!-- n18&#45;&#45;n20 -->
<g id="edge62" class="edge"><title>n18&#45;&#45;n20</title>
<path fill="none" stroke="black" d="M13.5406,-247.732C44.2715,-219.853 106.429,-163.464 137.282,-135.474"/>
</g>
<!-- n18&#45;&#45;n19 -->
<g id="edge63" class="edge"><title>n18&#45;&#45;n19</title>
<path fill="none" stroke="black" d="M17.073,-253.41C35.7695,-244.145 62.6972,-230.801 81.4904,-221.488"/>
</g>
<!-- n17 -->
<g id="node21" class="node"><title>n17</title>
<ellipse fill="none" stroke="black" cx="10.5105" cy="-206.481" rx="24.0958" ry="24.0958"/>
<text text-anchor="middle" x="10.5105" y="-202.781" font-family="Times,serif" font-size="14.00">n17</text>
</g>
<!-- n17&#45;&#45;n34 -->
<g id="edge64" class="edge"><title>n17&#45;&#45;n34</title>
<path fill="none" stroke="black" d="M-4.56944,-187.461C-22.7007,-164.593 -52.943,-126.45 -71.0269,-103.642"/>
</g>
<!-- n17&#45;&#45;n33 -->
<g id="edge65" class="edge"><title>n17&#45;&#45;n33</title>
<path fill="none" stroke="black" d="M-12.4227,-198.662C-52.1944,-185.103 -133.517,-157.378 -173.36,-143.795"/>
</g>
<!-- n17&#45;&#45;n32 -->
<g id="edge66" class="edge"><title>n17&#45;&#45;n32</title>
<path fill="none" stroke="black" d="M-13.8071,-208.064C-58.233,-210.955 -152.024,-217.061 -196.466,-219.954"/>
</g>
<!-- n17&#45;&#45;n31 -->
<g id="edge67" class="edge"><title>n17&#45;&#45;n31</title>
<path fill="none" stroke="black" d="M-11.1159,-217.243C-46.1984,-234.701 -115.113,-268.994 -150.177,-286.443"/>
</g>
<!-- n17&#45;&#45;n23 -->
<g id="edge68" class="edge"><title>n17&#45;&#45;n23</title>
<path fill="none" stroke="black" d="M23.7288,-186.249C47.8776,-149.287 98.8598,-71.2548 123.017,-34.2801"/>
</g>
<!-- n17&#45;&#45;n22 -->
<g id="edge69" class="edge"><title>n17&#45;&#45;n22</title>
<path fill="none" stroke="black" d="M8.38229,-182.245C5.50883,-149.522 0.418779,-91.5563 -2.4491,-58.8968"/>
</g>
<!-- n17&#45;&#45;n21 -->
<g id="edge70" class="edge"><title>n17&#45;&#45;n21</title>
<path fill="none" stroke="black" d="M17.01,-183.146C24.6907,-155.572 37.3927,-109.969 45.0601,-82.4422"/>
</g>
<!-- n17&#45;&#45;n20 -->
<g id="edge71" class="edge"><title>n17&#45;&#45;n20</title>
<path fill="none" stroke="black" d="M31.2847,-193.938C58.8481,-177.297 107.225,-148.09 134.77,-131.46"/>
</g>
<!-- n17&#45;&#45;n19 -->
<g id="edge72" class="edge"><title>n17&#45;&#45;n19</title>
<path fill="none" stroke="black" d="M34.9159,-207.571C48.5691,-208.181 65.5301,-208.939 79.1568,-209.548"/>
</g>
<!-- n17&#45;&#45;n18 -->
<g id="edge73" class="edge"><title>n17&#45;&#45;n18</title>
<path fill="none" stroke="black" d="M4.40378,-229.917C3.49451,-233.407 2.55683,-237.006 1.64667,-240.499"/>
</g>
<!-- n16 -->
<g id="node22" class="node"><title>n16</title>
<ellipse fill="none" stroke="black" cx="-69.3755" cy="-233.933" rx="24.0958" ry="24.0958"/>
<text text-anchor="middle" x="-69.3755" y="-230.233" font-family="Times,serif" font-size="14.00">n16</text>
</g>
<!-- n16&#45;&#45;n34 -->
<g id="edge74" class="edge"><title>n16&#45;&#45;n34</title>
<path fill="none" stroke="black" d="M-72.0467,-209.965C-75.1492,-182.127 -80.2368,-136.477 -83.3364,-108.664"/>
</g>
<!-- n16&#45;&#45;n33 -->
<g id="edge75" class="edge"><title>n16&#45;&#45;n33</title>
<path fill="none" stroke="black" d="M-88.6672,-219.05C-112.68,-200.525 -153.436,-169.083 -177.339,-150.643"/>
</g>
<!-- n16&#45;&#45;n32 -->
<g id="edge76" class="edge"><title>n16&#45;&#45;n32</title>
<path fill="none" stroke="black" d="M-93.3699,-231.969C-121.641,-229.655 -168.341,-225.832 -196.672,-223.513"/>
</g>
<!-- n16&#45;&#45;n31 -->
<g id="edge77" class="edge"><title>n16&#45;&#45;n31</title>
<path fill="none" stroke="black" d="M-90.0976,-246.734C-107.863,-257.709 -133.327,-273.44 -151.084,-284.409"/>
</g>
<!-- n16&#45;&#45;n22 -->
<g id="edge78" class="edge"><title>n16&#45;&#45;n22</title>
<path fill="none" stroke="black" d="M-61.8143,-210.698C-49.3262,-172.324 -24.5359,-96.1474 -12.0796,-57.871"/>
</g>
<!-- n16&#45;&#45;n21 -->
<g id="edge79" class="edge"><title>n16&#45;&#45;n21</title>
<path fill="none" stroke="black" d="M-55.5062,-213.891C-32.1841,-180.189 14.6086,-112.57 37.8217,-79.0254"/>
</g>
<!-- n16&#45;&#45;n20 -->
<g id="edge80" class="edge"><title>n16&#45;&#45;n20</title>
<path fill="none" stroke="black" d="M-47.813,-222.907C-4.82913,-200.928 91.0777,-151.886 134.008,-129.934"/>
</g>
<!-- n16&#45;&#45;n19 -->
<g id="edge81" class="edge"><title>n16&#45;&#45;n19</title>
<path fill="none" stroke="black" d="M-45.3519,-230.693C-12.4356,-226.254 46.3468,-218.326 79.3018,-213.882"/>
</g>
<!-- n16&#45;&#45;n18 -->
<g id="edge82" class="edge"><title>n16&#45;&#45;n18</title>
<path fill="none" stroke="black" d="M-47.4128,-244.147C-40.6494,-247.292 -33.2054,-250.754 -26.4435,-253.898"/>
</g>
<!-- n16&#45;&#45;n17 -->
<g id="edge83" class="edge"><title>n16&#45;&#45;n17</title>
<path fill="none" stroke="black" d="M-46.2692,-225.993C-35.5785,-222.319 -22.9181,-217.968 -12.2681,-214.308"/>
</g>
<!-- n15 -->
<g id="node23" class="node"><title>n15</title>
<ellipse fill="none" stroke="black" cx="-37.7363" cy="-391.259" rx="24.0958" ry="24.0958"/>
<text text-anchor="middle" x="-37.7363" y="-387.559" font-family="Times,serif" font-size="14.00">n15</text>
</g>
<!-- n15&#45;&#45;n32 -->
<g id="edge84" class="edge"><title>n15&#45;&#45;n32</title>
<path fill="none" stroke="black" d="M-55.623,-374.676C-90.7114,-342.146 -168.186,-270.32 -203.115,-237.938"/>
</g>
<!-- n15&#45;&#45;n31 -->
<g id="edge85" class="edge"><title>n15&#45;&#45;n31</title>
<path fill="none" stroke="black" d="M-57.5142,-377.379C-82.8565,-359.594 -126.535,-328.941 -151.916,-311.128"/>
</g>
<!-- n15&#45;&#45;n19 -->
<g id="edge86" class="edge"><title>n15&#45;&#45;n19</title>
<path fill="none" stroke="black" d="M-22.8991,-372.27C4.20714,-337.579 61.4332,-264.34 88.549,-229.637"/>
</g>
<!-- n15&#45;&#45;n18 -->
<g id="edge87" class="edge"><title>n15&#45;&#45;n18</title>
<path fill="none" stroke="black" d="M-31.6409,-367.936C-25.6821,-345.136 -16.6567,-310.603 -10.6727,-287.707"/>
</g>
<!-- n15&#45;&#45;n17 -->
<g id="edge88" class="edge"><title>n15&#45;&#45;n17</title>
<path fill="none" stroke="black" d="M-31.6258,-367.857C-22.3707,-332.411 -4.89715,-265.49 4.37357,-229.984"/>
</g>
<!-- n15&#45;&#45;n16 -->
<g id="edge89" class="edge"><title>n15&#45;&#45;n16</title>
<path fill="none" stroke="black" d="M-42.5416,-367.364C-48.523,-337.622 -58.6747,-287.143 -64.6287,-257.537"/>
</g>
<!-- n14 -->
<g id="node24" class="node"><title>n14</title>
<ellipse fill="none" stroke="black" cx="27.788" cy="-436.062" rx="24.0958" ry="24.0958"/>
<text text-anchor="middle" x="27.788" y="-432.362" font-family="Times,serif" font-size="14.00">n14</text>
</g>
<!-- n14&#45;&#45;n31 -->
<g id="edge90" class="edge"><title>n14&#45;&#45;n31</title>
<path fill="none" stroke="black" d="M7.92355,-422.239C-30.3287,-395.62 -113.802,-337.533 -151.991,-310.959"/>
</g>
<!-- n14&#45;&#45;n18 -->
<g id="edge91" class="edge"><title>n14&#45;&#45;n18</title>
<path fill="none" stroke="black" d="M23.298,-412.152C17.1287,-379.298 6.09775,-320.555 -0.0514954,-287.809"/>
</g>
<!-- n14&#45;&#45;n17 -->
<g id="edge92" class="edge"><title>n14&#45;&#45;n17</title>
<path fill="none" stroke="black" d="M25.9717,-411.927C22.6534,-367.834 15.6479,-274.746 12.3284,-230.637"/>
</g>
<!-- n14&#45;&#45;n16 -->
<g id="edge93" class="edge"><title>n14&#45;&#45;n16</title>
<path fill="none" stroke="black" d="M17.2048,-414.046C-1.53459,-375.062 -40.328,-294.361 -58.9525,-255.616"/>
</g>
<!-- n14&#45;&#45;n15 -->
<g id="edge94" class="edge"><title>n14&#45;&#45;n15</title>
<path fill="none" stroke="black" d="M7.77251,-422.376C-0.35681,-416.818 -9.72661,-410.411 -17.8434,-404.861"/>
</g>
<!-- n13 -->
<g id="node25" class="node"><title>n13</title>
<ellipse fill="none" stroke="black" cx="-156.881" cy="-425.19" rx="24.0958" ry="24.0958"/>
<text text-anchor="middle" x="-156.881" y="-421.49" font-family="Times,serif" font-size="14.00">n13</text>
</g>
<!-- n13&#45;&#45;n31 -->
<g id="edge95" class="edge"><title>n13&#45;&#45;n31</title>
<path fill="none" stroke="black" d="M-159.683,-401.114C-162.345,-378.23 -166.328,-344.007 -168.986,-321.159"/>
</g>
<!-- n13&#45;&#45;n18 -->
<g id="edge96" class="edge"><title>n13&#45;&#45;n18</title>
<path fill="none" stroke="black" d="M-140.284,-407.644C-110.973,-376.657 -50.3767,-312.597 -21.08,-281.626"/>
</g>
<!-- n13&#45;&#45;n16 -->
<g id="edge97" class="edge"><title>n13&#45;&#45;n16</title>
<path fill="none" stroke="black" d="M-146.843,-403.25C-130.009,-366.456 -96.2771,-292.731 -79.4309,-255.91"/>
</g>
<!-- n13&#45;&#45;n15 -->
<g id="edge98" class="edge"><title>n13&#45;&#45;n15</title>
<path fill="none" stroke="black" d="M-133.626,-418.567C-112.632,-412.588 -81.9083,-403.839 -60.9328,-397.865"/>
</g>
<!-- n13&#45;&#45;n14 -->
<g id="edge99" class="edge"><title>n13&#45;&#45;n14</title>
<path fill="none" stroke="black" d="M-132.739,-426.611C-97.3472,-428.695 -31.7553,-432.557 3.63981,-434.641"/>
</g>
<!-- n12 -->
<g id="node26" class="node"><title>n12</title>
<ellipse fill="none" stroke="black" cx="-76.912" cy="-572.168" rx="24.0958" ry="24.0958"/>
<text text-anchor="middle" x="-76.912" y="-568.468" font-family="Times,serif" font-size="14.00">n12</text>
</g>
<!-- n12&#45;&#45;n30 -->
<g id="edge100" class="edge"><title>n12&#45;&#45;n30</title>
<path fill="none" stroke="black" d="M-97.4997,-559.5C-139.208,-533.836 -233.261,-475.964 -275.057,-450.246"/>
</g>
<!-- n12&#45;&#45;n15 -->
<g id="edge101" class="edge"><title>n12&#45;&#45;n15</title>
<path fill="none" stroke="black" d="M-71.7905,-548.517C-64.2825,-513.846 -50.3678,-449.59 -42.8591,-414.915"/>
</g>
<!-- n12&#45;&#45;n14 -->
<g id="edge102" class="edge"><title>n12&#45;&#45;n14</title>
<path fill="none" stroke="black" d="M-62.1331,-552.956C-42.1787,-527.016 -6.83137,-481.066 13.0843,-455.177"/>
</g>
<!-- n12&#45;&#45;n13 -->
<g id="edge103" class="edge"><title>n12&#45;&#45;n13</title>
<path fill="none" stroke="black" d="M-88.5402,-550.796C-103.702,-522.93 -130.07,-474.466 -145.239,-446.588"/>
</g>
<!-- n11 -->
<g id="node27" class="node"><title>n11</title>
<ellipse fill="none" stroke="black" cx="-145.911" cy="-579.416" rx="24.0958" ry="24.0958"/>
<text text-anchor="middle" x="-145.911" y="-575.716" font-family="Times,serif" font-size="14.00">n11</text>
</g>
<!-- n11&#45;&#45;n30 -->
<g id="edge104" class="edge"><title>n11&#45;&#45;n30</title>
<path fill="none" stroke="black" d="M-163.392,-562.86C-192.11,-535.663 -248.968,-481.817 -277.915,-454.403"/>
</g>
<!-- n11&#45;&#45;n15 -->
<g id="edge105" class="edge"><title>n11&#45;&#45;n15</title>
<path fill="none" stroke="black" d="M-133.921,-558.561C-113.127,-522.393 -70.6105,-448.44 -49.7799,-412.207"/>
</g>
<!-- n11&#45;&#45;n14 -->
<g id="edge106" class="edge"><title>n11&#45;&#45;n14</title>
<path fill="none" stroke="black" d="M-127.322,-564.074C-93.9772,-536.555 -24.3674,-479.106 9.07034,-451.51"/>
</g>
<!-- n11&#45;&#45;n13 -->
<g id="edge107" class="edge"><title>n11&#45;&#45;n13</title>
<path fill="none" stroke="black" d="M-147.625,-555.318C-149.68,-526.429 -153.103,-478.299 -155.161,-449.372"/>
</g>
<!-- n11&#45;&#45;n12 -->
<g id="edge108" class="edge"><title>n11&#45;&#45;n12</title>
<path fill="none" stroke="black" d="M-121.778,-576.881C-115.094,-576.179 -107.837,-575.417 -101.147,-574.714"/>
</g>
<!-- n10 -->
<g id="node28" class="node"><title>n10</title>
<ellipse fill="none" stroke="black" cx="98.0446" cy="-563.845" rx="24.0958" ry="24.0958"/>
<text text-anchor="middle" x="98.0446" y="-560.145" font-family="Times,serif" font-size="14.00">n10</text>
</g>
<!-- n10&#45;&#45;n15 -->
<g id="edge109" class="edge"><title>n10&#45;&#45;n15</title>
<path fill="none" stroke="black" d="M82.9949,-544.716C56.8259,-511.453 3.245,-443.349 -22.8261,-410.211"/>
</g>
<!-- n10&#45;&#45;n14 -->
<g id="edge110" class="edge"><title>n10&#45;&#45;n14</title>
<path fill="none" stroke="black" d="M86.4431,-542.744C73.4257,-519.068 52.4311,-480.883 39.4067,-457.194"/>
</g>
<!-- n10&#45;&#45;n12 -->
<g id="edge111" class="edge"><title>n10&#45;&#45;n12</title>
<path fill="none" stroke="black" d="M73.7176,-565.002C40.2917,-566.592 -19.4746,-569.436 -52.7917,-571.021"/>
</g>
<!-- n10&#45;&#45;n11 -->
<g id="edge112" class="edge"><title>n10&#45;&#45;n11</title>
<path fill="none" stroke="black" d="M73.7613,-565.395C27.0001,-568.379 -75.0418,-574.892 -121.726,-577.872"/>
</g>
<!-- n9 -->
<g id="node29" class="node"><title>n9</title>
<ellipse fill="none" stroke="black" cx="31.6372" cy="-660.744" rx="19.4965" ry="19.4965"/>
<text text-anchor="middle" x="31.6372" y="-657.044" font-family="Times,serif" font-size="14.00">n9</text>
</g>
<!-- n9&#45;&#45;n14 -->
<g id="edge113" class="edge"><title>n9&#45;&#45;n14</title>
<path fill="none" stroke="black" d="M31.3023,-641.198C30.6,-600.2 28.9743,-505.31 28.2054,-460.428"/>
</g>
<!-- n9&#45;&#45;n12 -->
<g id="edge114" class="edge"><title>n9&#45;&#45;n12</title>
<path fill="none" stroke="black" d="M16.0847,-648.053C-3.49527,-632.076 -37.1045,-604.651 -58.1068,-587.513"/>
</g>
<!-- n9&#45;&#45;n11 -->
<g id="edge115" class="edge"><title>n9&#45;&#45;n11</title>
<path fill="none" stroke="black" d="M13.6359,-652.498C-19.1596,-637.476 -88.5226,-605.703 -124.003,-589.451"/>
</g>
<!-- n9&#45;&#45;n10 -->
<g id="edge116" class="edge"><title>n9&#45;&#45;n10</title>
<path fill="none" stroke="black" d="M42.9023,-644.306C54.3737,-627.568 72.1687,-601.602 84.4245,-583.719"/>
</g>
<!-- n8 -->
<g id="node30" class="node"><title>n8</title>
<ellipse fill="none" stroke="black" cx="206.825" cy="-736.076" rx="19.4965" ry="19.4965"/>
<text text-anchor="middle" x="206.825" y="-732.376" font-family="Times,serif" font-size="14.00">n8</text>
</g>
<!-- n8&#45;&#45;n10 -->
<g id="edge117" class="edge"><title>n8&#45;&#45;n10</title>
<path fill="none" stroke="black" d="M196.395,-719.562C176.4,-687.904 132.732,-618.765 110.944,-584.268"/>
</g>
<!-- n8&#45;&#45;n9 -->
<g id="edge118" class="edge"><title>n8&#45;&#45;n9</title>
<path fill="none" stroke="black" d="M188.736,-728.298C155.079,-713.825 83.21,-682.921 49.6271,-668.48"/>
</g>
<!-- n7 -->
<g id="node31" class="node"><title>n7</title>
<ellipse fill="none" stroke="black" cx="75.4392" cy="-848.739" rx="19.4965" ry="19.4965"/>
<text text-anchor="middle" x="75.4392" y="-845.039" font-family="Times,serif" font-size="14.00">n7</text>
</g>
<!-- n7&#45;&#45;n9 -->
<g id="edge119" class="edge"><title>n7&#45;&#45;n9</title>
<path fill="none" stroke="black" d="M70.9982,-829.679C62.6029,-793.647 44.4943,-715.926 36.0899,-679.855"/>
</g>
<!-- n7&#45;&#45;n8 -->
<g id="edge120" class="edge"><title>n7&#45;&#45;n8</title>
<path fill="none" stroke="black" d="M90.2554,-836.034C115.489,-814.397 166.527,-770.631 191.861,-748.907"/>
</g>
<!-- n5 -->
<g id="node32" class="node"><title>n5</title>
<ellipse fill="none" stroke="black" cx="6.69831" cy="879.229" rx="19.4965" ry="19.4965"/>
<text text-anchor="middle" x="6.69831" y="882.929" font-family="Times,serif" font-size="14.00">n5</text>
</g>
<!-- n6 -->
<g id="node33" class="node"><title>n6</title>
<ellipse fill="none" stroke="black" cx="-177.463" cy="878.155" rx="19.4965" ry="19.4965"/>
<text text-anchor="middle" x="-177.463" y="881.855" font-family="Times,serif" font-size="14.00">n6</text>
</g>
<!-- n5&#45;&#45;n6 -->
<g id="edge121" class="edge"><title>n5&#45;&#45;n6</title>
<path fill="none" stroke="black" d="M-13.0101,879.114C-48.4559,878.907 -122.553,878.475 -157.896,878.269"/>
</g>
<!-- n4 -->
<g id="node34" class="node"><title>n4</title>
<ellipse fill="none" stroke="black" cx="-62.82" cy="719.122" rx="19.4965" ry="19.4965"/>
<text text-anchor="middle" x="-62.82" y="722.822" font-family="Times,serif" font-size="14.00">n4</text>
</g>
<!-- n4&#45;&#45;n5 -->
<g id="edge123" class="edge"><title>n4&#45;&#45;n5</title>
<path fill="none" stroke="black" d="M-54.9805,737.177C-41.629,767.927 -14.6237,830.122 -1.2192,860.994"/>
</g>
<!-- n4&#45;&#45;n6 -->
<g id="edge122" class="edge"><title>n4&#45;&#45;n6</title>
<path fill="none" stroke="black" d="M-74.2315,734.952C-96.0929,765.279 -143.665,831.271 -165.756,861.916"/>
</g>
<!-- n3 -->
<g id="node35" class="node"><title>n3</title>
<ellipse fill="none" stroke="black" cx="142.253" cy="740.864" rx="19.4965" ry="19.4965"/>
<text text-anchor="middle" x="142.253" y="744.564" font-family="Times,serif" font-size="14.00">n3</text>
</g>
<!-- n3&#45;&#45;n5 -->
<g id="edge124" class="edge"><title>n3&#45;&#45;n5</title>
<path fill="none" stroke="black" d="M128.51,754.892C102.529,781.412 46.4876,838.615 20.4784,865.163"/>
</g>
<!-- n3&#45;&#45;n4 -->
<g id="edge125" class="edge"><title>n3&#45;&#45;n4</title>
<path fill="none" stroke="black" d="M122.59,738.779C83.3922,734.623 -4.06724,725.351 -43.2162,721.201"/>
</g>
<!-- n2 -->
<g id="node36" class="node"><title>n2</title>
<ellipse fill="none" stroke="black" cx="9.2177" cy="670.61" rx="19.4965" ry="19.4965"/>
<text text-anchor="middle" x="9.2177" y="674.31" font-family="Times,serif" font-size="14.00">n2</text>
</g>
<!-- n2&#45;&#45;n37 -->
<g id="edge126" class="edge"><title>n2&#45;&#45;n37</title>
<path fill="none" stroke="black" d="M9.78432,650.87C10.8734,612.928 13.2554,529.943 14.4358,488.819"/>
</g>
<!-- n2&#45;&#45;n27 -->
<g id="edge127" class="edge"><title>n2&#45;&#45;n27</title>
<path fill="none" stroke="black" d="M1.31095,652.74C-12.2766,622.033 -40.0211,559.33 -54.8325,525.857"/>
</g>
<!-- n2&#45;&#45;n5 -->
<g id="edge128" class="edge"><title>n2&#45;&#45;n5</title>
<path fill="none" stroke="black" d="M8.98068,690.236C8.50051,729.997 7.41772,819.658 6.93654,859.503"/>
</g>
<!-- n2&#45;&#45;n4 -->
<g id="edge129" class="edge"><title>n2&#45;&#45;n4</title>
<path fill="none" stroke="black" d="M-7.12877,681.618C-18.9182,689.557 -34.7637,700.228 -46.5382,708.157"/>
</g>
<!-- n2&#45;&#45;n3 -->
<g id="edge130" class="edge"><title>n2&#45;&#45;n3</title>
<path fill="none" stroke="black" d="M26.6098,679.794C52.106,693.258 99.3585,718.212 124.857,731.677"/>
</g>
<!-- n1 -->
<g id="node37" class="node"><title>n1</title>
<ellipse fill="none" stroke="black" cx="141.639" cy="629.529" rx="19.4965" ry="19.4965"/>
<text text-anchor="middle" x="141.639" y="633.229" font-family="Times,serif" font-size="14.00">n1</text>
</g>
<!-- n1&#45;&#45;n37 -->
<g id="edge131" class="edge"><title>n1&#45;&#45;n37</title>
<path fill="none" stroke="black" d="M129.737,614.026C106.486,583.739 55.0973,516.8 29.7912,483.837"/>
</g>
<!-- n1&#45;&#45;n28 -->
<g id="edge132" class="edge"><title>n1&#45;&#45;n28</title>
<path fill="none" stroke="black" d="M146.545,610.537C155.135,577.289 172.871,508.641 182.228,472.424"/>
</g>
<!-- n1&#45;&#45;n27 -->
<g id="edge133" class="edge"><title>n1&#45;&#45;n27</title>
<path fill="none" stroke="black" d="M124.756,619.227C87.225,596.324 -3.03489,541.244 -43.9185,516.296"/>
</g>
<!-- n1&#45;&#45;n4 -->
<g id="edge134" class="edge"><title>n1&#45;&#45;n4</title>
<path fill="none" stroke="black" d="M123.494,637.48C84.6948,654.482 -5.95305,694.203 -44.7163,711.189"/>
</g>
<!-- n1&#45;&#45;n3 -->
<g id="edge135" class="edge"><title>n1&#45;&#45;n3</title>
<path fill="none" stroke="black" d="M141.747,649.178C141.859,669.403 142.032,700.747 142.144,721.038"/>
</g>
<!-- n1&#45;&#45;n2 -->
<g id="edge136" class="edge"><title>n1&#45;&#45;n2</title>
<path fill="none" stroke="black" d="M122.947,635.328C97.8518,643.113 53.5076,656.87 28.2432,664.707"/>
</g>
<!-- n0 -->
<g id="node38" class="node"><title>n0</title>
<ellipse fill="none" stroke="black" cx="78.2619" cy="525.75" rx="19.4965" ry="19.4965"/>
<text text-anchor="middle" x="78.2619" y="529.45" font-family="Times,serif" font-size="14.00">n0</text>
</g>
<!-- n0&#45;&#45;n29 -->
<g id="edge138" class="edge"><title>n0&#45;&#45;n29</title>
<path fill="none" stroke="black" d="M79.5159,505.962C81.8006,469.911 86.6327,393.662 89.1044,354.659"/>
</g>
<!-- n0&#45;&#45;n37 -->
<g id="edge137" class="edge"><title>n0&#45;&#45;n37</title>
<path fill="none" stroke="black" d="M63.9356,511.905C54.6219,502.904 42.4198,491.111 32.5461,481.569"/>
</g>
<!-- n0&#45;&#45;n28 -->
<g id="edge139" class="edge"><title>n0&#45;&#45;n28</title>
<path fill="none" stroke="black" d="M94.5004,514.406C114.112,500.706 147.097,477.663 168.272,462.87"/>
</g>
<!-- n0&#45;&#45;n27 -->
<g id="edge140" class="edge"><title>n0&#45;&#45;n27</title>
<path fill="none" stroke="black" d="M58.9861,522.767C33.2315,518.783 -12.407,511.721 -40.4523,507.382"/>
</g>
<!-- n0&#45;&#45;n26 -->
<g id="edge141" class="edge"><title>n0&#45;&#45;n26</title>
<path fill="none" stroke="black" d="M73.6772,506.79C63.6817,465.453 39.9519,367.317 29.0441,322.207"/>
</g>
<!-- n0&#45;&#45;n4 -->
<g id="edge142" class="edge"><title>n0&#45;&#45;n4</title>
<path fill="none" stroke="black" d="M66.7166,541.574C40.1953,577.925 -24.8289,667.05 -51.313,703.35"/>
</g>
<!-- n0&#45;&#45;n3 -->
<g id="edge143" class="edge"><title>n0&#45;&#45;n3</title>
<path fill="none" stroke="black" d="M83.8288,544.464C95.931,585.147 124.522,681.258 136.654,722.04"/>
</g>
<!-- n0&#45;&#45;n2 -->
<g id="edge144" class="edge"><title>n0&#45;&#45;n2</title>
<path fill="none" stroke="black" d="M69.7957,543.513C56.5443,571.315 31.0471,624.81 17.7531,652.702"/>
</g>
<!-- n0&#45;&#45;n1 -->
<g id="edge145" class="edge"><title>n0&#45;&#45;n1</title>
<path fill="none" stroke="black" d="M88.4445,542.424C100.201,561.676 119.436,593.173 131.271,612.552"/>
</g>
</g>
</svg>
