<?xml version="1.0" standalone="yes"?>
<!-- SVG graphic -->
<svg xmlns='http://www.w3.org/2000/svg' xmlns:xlink='http://www.w3.org/1999/xlink'
 version="1.1">
<rect x="0" y="0" width="6" height="200" stroke="black" stroke-width="1" fill="blue" tooltip="enable"><title>(0,5328)</title></rect><rect x="6" y="16.2538" width="6" height="183.746" stroke="black" stroke-width="1" fill="blue" tooltip="enable"><title>(0.0505409,4895)</title></rect><rect x="12" y="43.1306" width="6" height="156.869" stroke="black" stroke-width="1" fill="blue" tooltip="enable"><title>(0.101082,4179)</title></rect><rect x="18" y="67.4925" width="6" height="132.508" stroke="black" stroke-width="1" fill="blue" tooltip="enable"><title>(0.151623,3530)</title></rect><rect x="24" y="83.7087" width="6" height="116.291" stroke="black" stroke-width="1" fill="blue" tooltip="enable"><title>(0.202164,3098)</title></rect><rect x="30" y="104.992" width="6" height="95.0075" stroke="black" stroke-width="1" fill="blue" tooltip="enable"><title>(0.252705,2531)</title></rect><rect x="36" y="115.128" width="6" height="84.8724" stroke="black" stroke-width="1" fill="blue" tooltip="enable"><title>(0.303245,2261)</title></rect><rect x="42" y="126.051" width="6" height="73.949" stroke="black" stroke-width="1" fill="blue" tooltip="enable"><title>(0.353786,1970)</title></rect><rect x="48" y="134.61" width="6" height="65.3904" stroke="black" stroke-width="1" fill="blue" tooltip="enable"><title>(0.404327,1742)</title></rect><rect x="54" y="143.206" width="6" height="56.7943" stroke="black" stroke-width="1" fill="blue" tooltip="enable"><title>(0.454868,1513)</title></rect><rect x="60" y="146.659" width="6" height="53.3408" stroke="black" stroke-width="1" fill="blue" tooltip="enable"><title>(0.505409,1421)</title></rect><rect x="66" y="155.556" width="6" height="44.4444" stroke="black" stroke-width="1" fill="blue" tooltip="enable"><title>(0.55595,1184)</title></rect><rect x="72" y="159.497" width="6" height="40.503" stroke="black" stroke-width="1" fill="blue" tooltip="enable"><title>(0.606491,1079)</title></rect><rect x="78" y="163.701" width="6" height="36.2988" stroke="black" stroke-width="1" fill="blue" tooltip="enable"><title>(0.657032,967)</title></rect><rect x="84" y="169.52" width="6" height="30.4805" stroke="black" stroke-width="1" fill="blue" tooltip="enable"><title>(0.707573,812)</title></rect><rect x="90" y="170.571" width="6" height="29.4294" stroke="black" stroke-width="1" fill="blue" tooltip="enable"><title>(0.758114,784)</title></rect><rect x="96" y="174.925" width="6" height="25.0751" stroke="black" stroke-width="1" fill="blue" tooltip="enable"><title>(0.808655,668)</title></rect><rect x="102" y="176.989" width="6" height="23.0105" stroke="black" stroke-width="1" fill="blue" tooltip="enable"><title>(0.859195,613)</title></rect><rect x="108" y="177.853" width="6" height="22.1471" stroke="black" stroke-width="1" fill="blue" tooltip="enable"><title>(0.909736,590)</title></rect><rect x="114" y="180.405" width="6" height="19.5946" stroke="black" stroke-width="1" fill="blue" tooltip="enable"><title>(0.960277,522)</title></rect><rect x="120" y="181.832" width="6" height="18.1682" stroke="black" stroke-width="1" fill="blue" tooltip="enable"><title>(1.01082,484)</title></rect><rect x="126" y="183.333" width="6" height="16.6667" stroke="black" stroke-width="1" fill="blue" tooltip="enable"><title>(1.06136,444)</title></rect><rect x="132" y="185.999" width="6" height="14.0015" stroke="black" stroke-width="1" fill="blue" tooltip="enable"><title>(1.1119,373)</title></rect><rect x="138" y="187.838" width="6" height="12.1622" stroke="black" stroke-width="1" fill="blue" tooltip="enable"><title>(1.16244,324)</title></rect><rect x="144" y="186.712" width="6" height="13.2883" stroke="black" stroke-width="1" fill="blue" tooltip="enable"><title>(1.21298,354)</title></rect><rect x="150" y="187.838" width="6" height="12.1622" stroke="black" stroke-width="1" fill="blue" tooltip="enable"><title>(1.26352,324)</title></rect><rect x="156" y="188.664" width="6" height="11.3363" stroke="black" stroke-width="1" fill="blue" tooltip="enable"><title>(1.31406,302)</title></rect><rect x="162" y="188.889" width="6" height="11.1111" stroke="black" stroke-width="1" fill="blue" tooltip="enable"><title>(1.3646,296)</title></rect><rect x="168" y="190.39" width="6" height="9.60961" stroke="black" stroke-width="1" fill="blue" tooltip="enable"><title>(1.41515,256)</title></rect><rect x="174" y="190.541" width="6" height="9.45946" stroke="black" stroke-width="1" fill="blue" tooltip="enable"><title>(1.46569,252)</title></rect><rect x="180" y="191.667" width="6" height="8.33333" stroke="black" stroke-width="1" fill="blue" tooltip="enable"><title>(1.51623,222)</title></rect><rect x="186" y="193.431" width="6" height="6.56907" stroke="black" stroke-width="1" fill="blue" tooltip="enable"><title>(1.56677,175)</title></rect><rect x="192" y="192.192" width="6" height="7.80781" stroke="black" stroke-width="1" fill="blue" tooltip="enable"><title>(1.61731,208)</title></rect><rect x="198" y="193.544" width="6" height="6.45646" stroke="black" stroke-width="1" fill="blue" tooltip="enable"><title>(1.66785,172)</title></rect><rect x="204" y="193.956" width="6" height="6.04354" stroke="black" stroke-width="1" fill="blue" tooltip="enable"><title>(1.71839,161)</title></rect><rect x="210" y="194.82" width="6" height="5.18018" stroke="black" stroke-width="1" fill="blue" tooltip="enable"><title>(1.76893,138)</title></rect><rect x="216" y="194.782" width="6" height="5.21772" stroke="black" stroke-width="1" fill="blue" tooltip="enable"><title>(1.81947,139)</title></rect><rect x="222" y="195.045" width="6" height="4.95496" stroke="black" stroke-width="1" fill="blue" tooltip="enable"><title>(1.87001,132)</title></rect><rect x="228" y="195.983" width="6" height="4.01652" stroke="black" stroke-width="1" fill="blue" tooltip="enable"><title>(1.92055,107)</title></rect><rect x="234" y="195.495" width="6" height="4.5045" stroke="black" stroke-width="1" fill="blue" tooltip="enable"><title>(1.9711,120)</title></rect><rect x="240" y="196.396" width="6" height="3.6036" stroke="black" stroke-width="1" fill="blue" tooltip="enable"><title>(2.02164,96)</title></rect><rect x="246" y="196.134" width="6" height="3.86637" stroke="black" stroke-width="1" fill="blue" tooltip="enable"><title>(2.07218,103)</title></rect><rect x="252" y="196.171" width="6" height="3.82883" stroke="black" stroke-width="1" fill="blue" tooltip="enable"><title>(2.12272,102)</title></rect><rect x="258" y="197.297" width="6" height="2.7027" stroke="black" stroke-width="1" fill="blue" tooltip="enable"><title>(2.17326,72)</title></rect><rect x="264" y="196.772" width="6" height="3.22823" stroke="black" stroke-width="1" fill="blue" tooltip="enable"><title>(2.2238,86)</title></rect><rect x="270" y="197.335" width="6" height="2.66517" stroke="black" stroke-width="1" fill="blue" tooltip="enable"><title>(2.27434,71)</title></rect><rect x="276" y="198.086" width="6" height="1.91441" stroke="black" stroke-width="1" fill="blue" tooltip="enable"><title>(2.32488,51)</title></rect><rect x="282" y="197.898" width="6" height="2.1021" stroke="black" stroke-width="1" fill="blue" tooltip="enable"><title>(2.37542,56)</title></rect><rect x="288" y="197.372" width="6" height="2.62763" stroke="black" stroke-width="1" fill="blue" tooltip="enable"><title>(2.42596,70)</title></rect><rect x="294" y="198.161" width="6" height="1.83934" stroke="black" stroke-width="1" fill="blue" tooltip="enable"><title>(2.4765,49)</title></rect><rect x="300" y="197.635" width="6" height="2.36486" stroke="black" stroke-width="1" fill="blue" tooltip="enable"><title>(2.52705,63)</title></rect><rect x="306" y="198.236" width="6" height="1.76426" stroke="black" stroke-width="1" fill="blue" tooltip="enable"><title>(2.57759,47)</title></rect><rect x="312" y="198.386" width="6" height="1.61411" stroke="black" stroke-width="1" fill="blue" tooltip="enable"><title>(2.62813,43)</title></rect><rect x="318" y="198.461" width="6" height="1.53904" stroke="black" stroke-width="1" fill="blue" tooltip="enable"><title>(2.67867,41)</title></rect><rect x="324" y="198.649" width="6" height="1.35135" stroke="black" stroke-width="1" fill="blue" tooltip="enable"><title>(2.72921,36)</title></rect><rect x="330" y="198.499" width="6" height="1.5015" stroke="black" stroke-width="1" fill="blue" tooltip="enable"><title>(2.77975,40)</title></rect><rect x="336" y="198.874" width="6" height="1.12613" stroke="black" stroke-width="1" fill="blue" tooltip="enable"><title>(2.83029,30)</title></rect><rect x="342" y="198.123" width="6" height="1.87688" stroke="black" stroke-width="1" fill="blue" tooltip="enable"><title>(2.88083,50)</title></rect><rect x="348" y="198.461" width="6" height="1.53904" stroke="black" stroke-width="1" fill="blue" tooltip="enable"><title>(2.93137,41)</title></rect><rect x="354" y="198.799" width="6" height="1.2012" stroke="black" stroke-width="1" fill="blue" tooltip="enable"><title>(2.98191,32)</title></rect><rect x="360" y="198.724" width="6" height="1.27628" stroke="black" stroke-width="1" fill="blue" tooltip="enable"><title>(3.03245,34)</title></rect><rect x="366" y="198.724" width="6" height="1.27628" stroke="black" stroke-width="1" fill="blue" tooltip="enable"><title>(3.083,34)</title></rect><rect x="372" y="199.137" width="6" height="0.863363" stroke="black" stroke-width="1" fill="blue" tooltip="enable"><title>(3.13354,23)</title></rect><rect x="378" y="199.024" width="6" height="0.975976" stroke="black" stroke-width="1" fill="blue" tooltip="enable"><title>(3.18408,26)</title></rect><rect x="384" y="199.137" width="6" height="0.863363" stroke="black" stroke-width="1" fill="blue" tooltip="enable"><title>(3.23462,23)</title></rect><rect x="390" y="199.174" width="6" height="0.825826" stroke="black" stroke-width="1" fill="blue" tooltip="enable"><title>(3.28516,22)</title></rect><rect x="396" y="199.362" width="6" height="0.638138" stroke="black" stroke-width="1" fill="blue" tooltip="enable"><title>(3.3357,17)</title></rect><rect x="402" y="199.437" width="6" height="0.563063" stroke="black" stroke-width="1" fill="blue" tooltip="enable"><title>(3.38624,15)</title></rect><rect x="408" y="199.662" width="6" height="0.337838" stroke="black" stroke-width="1" fill="blue" tooltip="enable"><title>(3.43678,9)</title></rect><rect x="414" y="199.099" width="6" height="0.900901" stroke="black" stroke-width="1" fill="blue" tooltip="enable"><title>(3.48732,24)</title></rect><rect x="420" y="199.662" width="6" height="0.337838" stroke="black" stroke-width="1" fill="blue" tooltip="enable"><title>(3.53786,9)</title></rect><rect x="426" y="199.662" width="6" height="0.337838" stroke="black" stroke-width="1" fill="blue" tooltip="enable"><title>(3.5884,9)</title></rect><rect x="432" y="199.587" width="6" height="0.412913" stroke="black" stroke-width="1" fill="blue" tooltip="enable"><title>(3.63895,11)</title></rect><rect x="438" y="199.587" width="6" height="0.412913" stroke="black" stroke-width="1" fill="blue" tooltip="enable"><title>(3.68949,11)</title></rect><rect x="444" y="199.7" width="6" height="0.3003" stroke="black" stroke-width="1" fill="blue" tooltip="enable"><title>(3.74003,8)</title></rect><rect x="450" y="199.55" width="6" height="0.45045" stroke="black" stroke-width="1" fill="blue" tooltip="enable"><title>(3.79057,12)</title></rect><rect x="456" y="199.662" width="6" height="0.337838" stroke="black" stroke-width="1" fill="blue" tooltip="enable"><title>(3.84111,9)</title></rect><rect x="462" y="199.85" width="6" height="0.15015" stroke="black" stroke-width="1" fill="blue" tooltip="enable"><title>(3.89165,4)</title></rect><rect x="468" y="199.887" width="6" height="0.112613" stroke="black" stroke-width="1" fill="blue" tooltip="enable"><title>(3.94219,3)</title></rect><rect x="474" y="199.962" width="6" height="0.0375375" stroke="black" stroke-width="1" fill="blue" tooltip="enable"><title>(3.99273,1)</title></rect><rect x="480" y="199.887" width="6" height="0.112613" stroke="black" stroke-width="1" fill="blue" tooltip="enable"><title>(4.04327,3)</title></rect><rect x="486" y="199.962" width="6" height="0.0375375" stroke="black" stroke-width="1" fill="blue" tooltip="enable"><title>(4.09381,1)</title></rect><rect x="492" y="199.962" width="6" height="0.0375375" stroke="black" stroke-width="1" fill="blue" tooltip="enable"><title>(4.14435,1)</title></rect><rect x="498" y="200" width="6" height="0" stroke="black" stroke-width="1" fill="blue" tooltip="enable"><title>(4.1949,0)</title></rect><rect x="504" y="199.962" width="6" height="0.0375375" stroke="black" stroke-width="1" fill="blue" tooltip="enable"><title>(4.24544,1)</title></rect><rect x="510" y="200" width="6" height="0" stroke="black" stroke-width="1" fill="blue" tooltip="enable"><title>(4.29598,0)</title></rect><rect x="516" y="200" width="6" height="0" stroke="black" stroke-width="1" fill="blue" tooltip="enable"><title>(4.34652,0)</title></rect><rect x="522" y="200" width="6" height="0" stroke="black" stroke-width="1" fill="blue" tooltip="enable"><title>(4.39706,0)</title></rect><rect x="528" y="200" width="6" height="0" stroke="black" stroke-width="1" fill="blue" tooltip="enable"><title>(4.4476,0)</title></rect><rect x="534" y="200" width="6" height="0" stroke="black" stroke-width="1" fill="blue" tooltip="enable"><title>(4.49814,0)</title></rect><rect x="540" y="200" width="6" height="0" stroke="black" stroke-width="1" fill="blue" tooltip="enable"><title>(4.54868,0)</title></rect><rect x="546" y="200" width="6" height="0" stroke="black" stroke-width="1" fill="blue" tooltip="enable"><title>(4.59922,0)</title></rect><rect x="552" y="200" width="6" height="0" stroke="black" stroke-width="1" fill="blue" tooltip="enable"><title>(4.64976,0)</title></rect><rect x="558" y="200" width="6" height="0" stroke="black" stroke-width="1" fill="blue" tooltip="enable"><title>(4.7003,0)</title></rect><rect x="564" y="200" width="6" height="0" stroke="black" stroke-width="1" fill="blue" tooltip="enable"><title>(4.75085,0)</title></rect><rect x="570" y="200" width="6" height="0" stroke="black" stroke-width="1" fill="blue" tooltip="enable"><title>(4.80139,0)</title></rect><rect x="576" y="200" width="6" height="0" stroke="black" stroke-width="1" fill="blue" tooltip="enable"><title>(4.85193,0)</title></rect><rect x="582" y="200" width="6" height="0" stroke="black" stroke-width="1" fill="blue" tooltip="enable"><title>(4.90247,0)</title></rect><rect x="588" y="200" width="6" height="0" stroke="black" stroke-width="1" fill="blue" tooltip="enable"><title>(4.95301,0)</title></rect><rect x="594" y="200" width="6" height="0" stroke="black" stroke-width="1" fill="blue" tooltip="enable"><title>(5.00355,0)</title></rect><text x="30" y="240" font-size="20" fill="black">0</text>
<text x="600" y="240" font-size="20" fill="black">5.05409</text>
<polyline points="0,220,600,220" stroke="black" stroke-width="1" fill="none"/>
<text x="720" y="20" font-size="20" fill="black">5328</text>
<text x="720" y="200" font-size="20" fill="black">0</text>
<polyline points="660,0,660,200" stroke="black" stroke-width="1" fill="none"/>
</svg>