ply
format ascii 1.0
comment TextureFile cam_1.jpg
element vertex 4
property float x
property float y
property float z
property float nx
property float ny
property float nz
property uchar red
property uchar green
property uchar blue
property float texture_u
property float texture_v
element face 1
property list uchar int vertex_indices
end_header
-0.284398 0.0770522 0.13517 -0.877294 0.237686 0.416965 255 255 255 0 0
-0.140737 0.0782128 0.109894 -0.721957 0.401219 0.563739 255 255 255 1 0
-0.138744 -0.116258 0.112293 -0.651332 -0.545775 0.527159 255 255 255 1 1
-0.282404 -0.117419 0.137569 -0.8421 -0.350131 0.410215 255 255 255 0 1
4 0 1 2 3
