ply
format ascii 1.0
comment TextureFile cam_11.jpg
element vertex 4
property float x
property float y
property float z
property float nx
property float ny
property float nz
property uchar red
property uchar green
property uchar blue
property float texture_u
property float texture_v
element face 1
property list uchar int vertex_indices
end_header
0.320397 0.0545049 0.196205 0.843964 0.143573 0.516828 255 255 255 0 0
0.457481 0.0548952 0.246069 0.875809 0.105092 0.471078 255 255 255 1 0
0.457426 -0.139594 0.247741 0.849272 -0.259174 0.459963 255 255 255 1 1
0.320342 -0.139984 0.197877 0.797449 -0.348471 0.492588 255 255 255 0 1
4 0 1 2 3
