ply
format ascii 1.0
comment TextureFile cam_7.jpg
element vertex 4
property float x
property float y
property float z
property float nx
property float ny
property float nz
property uchar red
property uchar green
property uchar blue
property float texture_u
property float texture_v
element face 1
property list uchar int vertex_indices
end_header
0.140115 0.270085 0.111734 0.432275 0.833252 0.344716 255 255 255 0 0
0.282778 0.270527 0.142162 0.679162 0.649738 0.341437 255 255 255 1 0
0.288927 0.0778795 0.116126 0.900136 0.242629 0.361783 255 255 255 1 1
0.146265 0.0774377 0.0856981 0.784804 0.415503 0.459825 255 255 255 0 1
4 0 1 2 3
