ply
format ascii 1.0
comment TextureFile cam_6.jpg
element vertex 4
property float x
property float y
property float z
property float nx
property float ny
property float nz
property uchar red
property uchar green
property uchar blue
property float texture_u
property float texture_v
element face 1
property list uchar int vertex_indices
end_header
-0.202395 0.28265 0.126905 -0.546893 0.763753 0.342913 255 255 255 0 0
-0.0570698 0.284116 0.114369 -0.183184 0.911964 0.367105 255 255 255 1 0
-0.057035 0.0908899 0.0921807 -0.403185 0.642508 0.651632 255 255 255 1 1
-0.20236 0.0894241 0.104717 -0.826738 0.365341 0.42782 255 255 255 0 1
4 0 1 2 3
