ply
format ascii 1.0
comment TextureFile cam_8.jpg
element vertex 4
property float x
property float y
property float z
property float nx
property float ny
property float nz
property uchar red
property uchar green
property uchar blue
property float texture_u
property float texture_v
element face 1
property list uchar int vertex_indices
end_header
0.389645 0.279307 0.178954 0.761437 0.545818 0.349709 255 255 255 0 0
0.521814 0.275944 0.240587 0.818622 0.432901 0.377433 255 255 255 1 0
0.529559 0.0835022 0.213475 0.917714 0.144707 0.369948 255 255 255 1 1
0.39739 0.0868657 0.151842 0.915245 0.200064 0.349715 255 255 255 0 1
4 0 1 2 3
