ply
format ascii 1.0
comment TextureFile cam_5.jpg
element vertex 4
property float x
property float y
property float z
property float nx
property float ny
property float nz
property uchar red
property uchar green
property uchar blue
property float texture_u
property float texture_v
element face 1
property list uchar int vertex_indices
end_header
-0.431413 0.273198 0.214373 -0.778984 0.493304 0.387085 255 255 255 0 0
-0.291471 0.276315 0.17332 -0.666326 0.631678 0.396223 255 255 255 1 0
-0.292621 0.0827161 0.154701 -0.857683 0.242443 0.453433 255 255 255 1 1
-0.432563 0.0795992 0.195754 -0.898512 0.165342 0.406617 255 255 255 0 1
4 0 1 2 3
