ply
format ascii 1.0
comment TextureFile cam_0.jpg
element vertex 4
property float x
property float y
property float z
property float nx
property float ny
property float nz
property uchar red
property uchar green
property uchar blue
property float texture_u
property float texture_v
element face 1
property list uchar int vertex_indices
end_header
-0.0593719 0.0942915 0.0842776 -0.424968 0.674913 0.603237 255 255 255 0 0
0.0864818 0.0949482 0.0864965 0.558518 0.613196 0.558613 255 255 255 1 0
0.0873541 -0.0995458 0.0867279 0.551794 -0.628806 0.547838 255 255 255 1 1
-0.0584996 -0.100202 0.084509 -0.407542 -0.698067 0.588738 255 255 255 0 1
4 0 1 2 3
