ply
format ascii 1.0
comment TextureFile cam_2.jpg
element vertex 4
property float x
property float y
property float z
property float nx
property float ny
property float nz
property uchar red
property uchar green
property uchar blue
property float texture_u
property float texture_v
element face 1
property list uchar int vertex_indices
end_header
-0.468002 0.0815768 0.224167 -0.890937 0.155298 0.426748 255 255 255 0 0
-0.331298 0.0833611 0.173299 -0.864857 0.217615 0.4524 255 255 255 1 0
-0.3272 -0.111046 0.177493 -0.842318 -0.285869 0.456924 255 255 255 1 1
-0.463904 -0.112831 0.228361 -0.876561 -0.213197 0.431495 255 255 255 0 1
4 0 1 2 3
