ply
format ascii 1.0
element vertex 36
property double x
property double y
property double z
property uchar red
property uchar green
property uchar blue
end_header
0.0000000000000000 0.0000000000000000 -0.0000000000000000 0 255 0
-0.2338408946215958 -0.0661672181625590 -0.0667286266735132 0 255 0
-0.5912737454385176 -0.1732105309809574 0.0310575400001942 0 255 0
-0.8468689004266292 -0.2039707297007253 0.1193178928128912 0 255 0
-1.0554498703153186 -0.2282435166983965 0.2766346592785320 0 255 0
-1.2468343876297452 -0.2950816041362144 0.5514513210061965 0 255 0
-1.3700282070343666 -0.3844081245460690 0.8363923022203333 0 255 0
-1.3667191141322292 -0.5612164660107086 1.2521025026712844 0 255 0
-1.2714319481846907 -0.7214886882622340 1.5549443289311822 0 255 0
-1.1777170088313851 -0.8024973389674334 1.7193323617455396 0 255 0
-0.9428986063989933 -0.8778933749421730 1.9443940381116618 0 255 0
-0.7514811332484922 -0.9383913424578487 2.0739429576995869 0 255 0
-0.4874125268499229 -0.9808123780393159 2.2051647167977473 0 255 0
-0.2570719944002395 -1.0238352530787913 2.2015729987288388 0 255 0
0.0050155543625840 -0.9887986769081059 2.1618335639355233 0 255 0
0.4716455686229613 -1.0207266134828425 2.1081152280017741 0 255 0
0.9397940808738062 -0.8291016158158933 1.9824712296311600 0 255 0
0.9966693048142189 -0.7540690378425698 1.7187444075541665 0 255 0
1.0493884180892974 -0.6882162625947171 1.5314986244066433 0 255 0
1.0553321131467854 -0.6295130470969856 1.3654860517916354 0 255 0
1.0432271049189650 -0.5141655581821742 1.0540183627391688 0 255 0
1.0675276708922394 -0.3813190704967451 0.7203624123364994 0 255 0
0.9392249381503148 -0.3042976354030888 0.5767016508071664 0 255 0
0.7351877052648241 -0.1678957442991498 0.2808915282659738 0 255 0
0.4848942328647495 -0.0981750364770755 0.2294266618327497 0 255 0
0.3538559358613145 -0.0672681005617774 0.1338826318903487 0 255 0
0.4253925107861738 -0.3849461020026584 0.1576242255755775 0 255 0
0.7103740714428149 -0.5601029805200146 0.3807817534874255 0 255 0
0.9982762952040667 -0.6841355442059517 0.7224082574687939 0 255 0
1.0143458645709351 -0.8967400628620382 1.1032570984037724 0 255 0
0.7420654985688363 -1.0420413907489916 1.3333722485089226 0 255 0
-0.3285373872864753 -0.5605577262872820 0.3298410112663767 0 255 0
-0.6411690724184911 -0.6434792170198953 0.4523522776881715 0 255 0
-0.8467019113450986 -0.7687248203060729 0.7245695712556632 0 255 0
-0.8281034915558708 -0.9361489505928253 1.0770322711216187 0 255 0
-0.5769970406011624 -1.0761025471484920 1.5071576423519328 0 255 0
