<?xml version="1.0" encoding="UTF-8" standalone="no"?>
<!DOCTYPE svg PUBLIC "-//W3C//DTD SVG 1.1//EN"
 "http://www.w3.org/Graphics/SVG/1.1/DTD/svg11.dtd">
<!-- Generated by graphviz version 2.38.0 (20140413.2041)
 -->
<!-- Title: 1 Pages: 1 -->
<svg width="924pt" height="798pt"
 viewBox="0.00 0.00 924.39 797.52" xmlns="http://www.w3.org/2000/svg" xmlns:xlink="http://www.w3.org/1999/xlink">
<g id="graph0" class="graph" transform="scale(1 1) rotate(0) translate(526.435 420.471)">
<title>1</title>
<polygon fill="white" stroke="none" points="-526.435,377.044 -526.435,-420.471 397.959,-420.471 397.959,377.044 -526.435,377.044"/>
<!-- n34 -->
<g id="node1" class="node"><title>n34</title>
<ellipse fill="none" stroke="black" cx="248.863" cy="-209.171" rx="24.0958" ry="24.0958"/>
<text text-anchor="middle" x="248.863" y="-205.471" font-family="Times,serif" font-size="14.00">n34</text>
</g>
<!-- n35 -->
<g id="node2" class="node"><title>n35</title>
<ellipse fill="none" stroke="black" cx="90.4529" cy="-324.07" rx="24.0958" ry="24.0958"/>
<text text-anchor="middle" x="90.4529" y="-320.37" font-family="Times,serif" font-size="14.00">n35</text>
</g>
<!-- n34&#45;&#45;n35 -->
<g id="edge1" class="edge"><title>n34&#45;&#45;n35</title>
<path fill="none" stroke="black" d="M229.12,-223.491C198.599,-245.629 140.316,-287.903 109.946,-309.931"/>
</g>
<!-- n33 -->
<g id="node3" class="node"><title>n33</title>
<ellipse fill="none" stroke="black" cx="303.553" cy="-114.005" rx="24.0958" ry="24.0958"/>
<text text-anchor="middle" x="303.553" y="-110.305" font-family="Times,serif" font-size="14.00">n33</text>
</g>
<!-- n33&#45;&#45;n34 -->
<g id="edge2" class="edge"><title>n33&#45;&#45;n34</title>
<path fill="none" stroke="black" d="M291.415,-135.125C282.352,-150.896 270.021,-172.353 260.966,-188.11"/>
</g>
<!-- n32 -->
<g id="node4" class="node"><title>n32</title>
<ellipse fill="none" stroke="black" cx="281.199" cy="-4.92083" rx="24.0958" ry="24.0958"/>
<text text-anchor="middle" x="281.199" y="-1.22083" font-family="Times,serif" font-size="14.00">n32</text>
</g>
<!-- n32&#45;&#45;n34 -->
<g id="edge3" class="edge"><title>n32&#45;&#45;n34</title>
<path fill="none" stroke="black" d="M277.426,-28.7507C271.212,-68.0025 258.892,-145.819 252.661,-185.178"/>
</g>
<!-- n32&#45;&#45;n33 -->
<g id="edge4" class="edge"><title>n32&#45;&#45;n33</title>
<path fill="none" stroke="black" d="M286.049,-28.5904C289.799,-46.8874 294.965,-72.0959 298.712,-90.3813"/>
</g>
<!-- n31 -->
<g id="node5" class="node"><title>n31</title>
<ellipse fill="none" stroke="black" cx="337.239" cy="133.58" rx="24.0958" ry="24.0958"/>
<text text-anchor="middle" x="337.239" y="137.28" font-family="Times,serif" font-size="14.00">n31</text>
</g>
<!-- n31&#45;&#45;n33 -->
<g id="edge5" class="edge"><title>n31&#45;&#45;n33</title>
<path fill="none" stroke="black" d="M333.948,109.39C327.491,61.9358 313.235,-42.842 306.808,-90.0808"/>
</g>
<!-- n31&#45;&#45;n32 -->
<g id="edge6" class="edge"><title>n31&#45;&#45;n32</title>
<path fill="none" stroke="black" d="M328.111,111.019C317.69,85.2642 300.743,43.3814 290.323,17.6304"/>
</g>
<!-- n29 -->
<g id="node6" class="node"><title>n29</title>
<ellipse fill="none" stroke="black" cx="-374.013" cy="185.129" rx="24.0958" ry="24.0958"/>
<text text-anchor="middle" x="-374.013" y="188.829" font-family="Times,serif" font-size="14.00">n29</text>
</g>
<!-- n30 -->
<g id="node7" class="node"><title>n30</title>
<ellipse fill="none" stroke="black" cx="-498.388" cy="38.1156" rx="24.0958" ry="24.0958"/>
<text text-anchor="middle" x="-498.388" y="41.8156" font-family="Times,serif" font-size="14.00">n30</text>
</g>
<!-- n29&#45;&#45;n30 -->
<g id="edge7" class="edge"><title>n29&#45;&#45;n30</title>
<path fill="none" stroke="black" d="M-389.765,166.51C-413.689,138.231 -458.915,84.7724 -482.763,56.5838"/>
</g>
<!-- n28 -->
<g id="node8" class="node"><title>n28</title>
<ellipse fill="none" stroke="black" cx="-275.667" cy="293.802" rx="24.0958" ry="24.0958"/>
<text text-anchor="middle" x="-275.667" y="297.502" font-family="Times,serif" font-size="14.00">n28</text>
</g>
<!-- n28&#45;&#45;n29 -->
<g id="edge8" class="edge"><title>n28&#45;&#45;n29</title>
<path fill="none" stroke="black" d="M-291.907,275.857C-310.129,255.721 -339.517,223.247 -357.749,203.101"/>
</g>
<!-- n27 -->
<g id="node9" class="node"><title>n27</title>
<ellipse fill="none" stroke="black" cx="-81.5906" cy="348.996" rx="24.0958" ry="24.0958"/>
<text text-anchor="middle" x="-81.5906" y="352.696" font-family="Times,serif" font-size="14.00">n27</text>
</g>
<!-- n27&#45;&#45;n28 -->
<g id="edge9" class="edge"><title>n27&#45;&#45;n28</title>
<path fill="none" stroke="black" d="M-105.001,342.338C-142.404,331.701 -215.212,310.995 -252.476,300.397"/>
</g>
<!-- n26 -->
<g id="node10" class="node"><title>n26</title>
<ellipse fill="none" stroke="black" cx="64.531" cy="251.962" rx="24.0958" ry="24.0958"/>
<text text-anchor="middle" x="64.531" y="255.662" font-family="Times,serif" font-size="14.00">n26</text>
</g>
<!-- n26&#45;&#45;n27 -->
<g id="edge10" class="edge"><title>n26&#45;&#45;n27</title>
<path fill="none" stroke="black" d="M44.2134,265.454C16.2965,283.993 -33.6196,317.14 -61.4456,335.618"/>
</g>
<!-- n25 -->
<g id="node11" class="node"><title>n25</title>
<ellipse fill="none" stroke="black" cx="124.061" cy="325.001" rx="24.0958" ry="24.0958"/>
<text text-anchor="middle" x="124.061" y="328.701" font-family="Times,serif" font-size="14.00">n25</text>
</g>
<!-- n25&#45;&#45;n27 -->
<g id="edge11" class="edge"><title>n25&#45;&#45;n27</title>
<path fill="none" stroke="black" d="M100.067,327.801C60.5465,332.412 -17.8035,341.553 -57.4323,346.177"/>
</g>
<!-- n25&#45;&#45;n26 -->
<g id="edge12" class="edge"><title>n25&#45;&#45;n26</title>
<path fill="none" stroke="black" d="M108.73,306.192C99.8424,295.287 88.6886,281.602 79.8095,270.707"/>
</g>
<!-- n24 -->
<g id="node12" class="node"><title>n24</title>
<ellipse fill="none" stroke="black" cx="40.6672" cy="190.205" rx="24.0958" ry="24.0958"/>
<text text-anchor="middle" x="40.6672" y="193.905" font-family="Times,serif" font-size="14.00">n24</text>
</g>
<!-- n24&#45;&#45;n27 -->
<g id="edge13" class="edge"><title>n24&#45;&#45;n27</title>
<path fill="none" stroke="black" d="M25.9201,209.359C2.42156,239.879 -43.2598,299.211 -66.7912,329.774"/>
</g>
<!-- n24&#45;&#45;n26 -->
<g id="edge14" class="edge"><title>n24&#45;&#45;n26</title>
<path fill="none" stroke="black" d="M49.4177,212.85C51.4929,218.22 53.7065,223.949 55.7816,229.319"/>
</g>
<!-- n24&#45;&#45;n25 -->
<g id="edge15" class="edge"><title>n24&#45;&#45;n25</title>
<path fill="none" stroke="black" d="M53.3329,210.677C69.0071,236.013 95.5468,278.911 111.276,304.336"/>
</g>
<!-- n23 -->
<g id="node13" class="node"><title>n23</title>
<ellipse fill="none" stroke="black" cx="0.480961" cy="311.937" rx="24.0958" ry="24.0958"/>
<text text-anchor="middle" x="0.480961" y="315.637" font-family="Times,serif" font-size="14.00">n23</text>
</g>
<!-- n23&#45;&#45;n27 -->
<g id="edge16" class="edge"><title>n23&#45;&#45;n27</title>
<path fill="none" stroke="black" d="M-21.5127,321.868C-33.2882,327.185 -47.7516,333.716 -59.5362,339.037"/>
</g>
<!-- n23&#45;&#45;n26 -->
<g id="edge17" class="edge"><title>n23&#45;&#45;n26</title>
<path fill="none" stroke="black" d="M18.3225,295.23C27.2062,286.912 37.9147,276.885 46.7852,268.579"/>
</g>
<!-- n23&#45;&#45;n25 -->
<g id="edge18" class="edge"><title>n23&#45;&#45;n25</title>
<path fill="none" stroke="black" d="M24.6018,314.487C46.3768,316.789 78.2446,320.158 100.001,322.458"/>
</g>
<!-- n23&#45;&#45;n24 -->
<g id="edge19" class="edge"><title>n23&#45;&#45;n24</title>
<path fill="none" stroke="black" d="M8.03969,289.04C15.1789,267.414 25.8331,235.14 33.0058,213.413"/>
</g>
<!-- n22 -->
<g id="node14" class="node"><title>n22</title>
<ellipse fill="none" stroke="black" cx="-111.007" cy="227.578" rx="24.0958" ry="24.0958"/>
<text text-anchor="middle" x="-111.007" y="231.278" font-family="Times,serif" font-size="14.00">n22</text>
</g>
<!-- n22&#45;&#45;n28 -->
<g id="edge20" class="edge"><title>n22&#45;&#45;n28</title>
<path fill="none" stroke="black" d="M-133.557,236.648C-165.001,249.294 -221.686,272.092 -253.126,284.736"/>
</g>
<!-- n22&#45;&#45;n27 -->
<g id="edge21" class="edge"><title>n22&#45;&#45;n27</title>
<path fill="none" stroke="black" d="M-105.336,250.989C-100.16,272.351 -92.5469,303.774 -87.3454,325.243"/>
</g>
<!-- n22&#45;&#45;n26 -->
<g id="edge22" class="edge"><title>n22&#45;&#45;n26</title>
<path fill="none" stroke="black" d="M-86.9676,230.918C-53.4462,235.574 6.98409,243.968 40.5005,248.624"/>
</g>
<!-- n22&#45;&#45;n24 -->
<g id="edge23" class="edge"><title>n22&#45;&#45;n24</title>
<path fill="none" stroke="black" d="M-87.6406,221.821C-59.1382,214.797 -11.2406,202.995 17.2739,195.969"/>
</g>
<!-- n22&#45;&#45;n23 -->
<g id="edge24" class="edge"><title>n22&#45;&#45;n23</title>
<path fill="none" stroke="black" d="M-91.5876,242.273C-71.1247,257.756 -39.0949,281.992 -18.7163,297.411"/>
</g>
<!-- n21 -->
<g id="node15" class="node"><title>n21</title>
<ellipse fill="none" stroke="black" cx="-203.557" cy="255.305" rx="24.0958" ry="24.0958"/>
<text text-anchor="middle" x="-203.557" y="259.005" font-family="Times,serif" font-size="14.00">n21</text>
</g>
<!-- n21&#45;&#45;n29 -->
<g id="edge25" class="edge"><title>n21&#45;&#45;n29</title>
<path fill="none" stroke="black" d="M-225.841,246.131C-258.509,232.682 -319.052,207.756 -351.723,194.306"/>
</g>
<!-- n21&#45;&#45;n28 -->
<g id="edge26" class="edge"><title>n21&#45;&#45;n28</title>
<path fill="none" stroke="black" d="M-224.802,266.647C-234.108,271.615 -245.007,277.434 -254.324,282.408"/>
</g>
<!-- n21&#45;&#45;n27 -->
<g id="edge27" class="edge"><title>n21&#45;&#45;n27</title>
<path fill="none" stroke="black" d="M-184.231,270.151C-161.393,287.694 -123.624,316.707 -100.826,334.22"/>
</g>
<!-- n21&#45;&#45;n23 -->
<g id="edge28" class="edge"><title>n21&#45;&#45;n23</title>
<path fill="none" stroke="black" d="M-180.151,261.802C-140.898,272.697 -62.2457,294.527 -22.9652,305.429"/>
</g>
<!-- n21&#45;&#45;n22 -->
<g id="edge29" class="edge"><title>n21&#45;&#45;n22</title>
<path fill="none" stroke="black" d="M-180.203,248.309C-166.173,244.105 -148.383,238.776 -134.354,234.573"/>
</g>
<!-- n20 -->
<g id="node16" class="node"><title>n20</title>
<ellipse fill="none" stroke="black" cx="-253.141" cy="133.511" rx="24.0958" ry="24.0958"/>
<text text-anchor="middle" x="-253.141" y="137.211" font-family="Times,serif" font-size="14.00">n20</text>
</g>
<!-- n20&#45;&#45;n29 -->
<g id="edge30" class="edge"><title>n20&#45;&#45;n29</title>
<path fill="none" stroke="black" d="M-275.311,142.978C-296.984,152.234 -329.81,166.252 -351.574,175.547"/>
</g>
<!-- n20&#45;&#45;n28 -->
<g id="edge31" class="edge"><title>n20&#45;&#45;n28</title>
<path fill="none" stroke="black" d="M-256.514,157.508C-260.772,187.813 -268.056,239.644 -272.308,269.903"/>
</g>
<!-- n20&#45;&#45;n22 -->
<g id="edge32" class="edge"><title>n20&#45;&#45;n22</title>
<path fill="none" stroke="black" d="M-233.078,146.789C-206.143,164.616 -158.546,196.116 -131.428,214.063"/>
</g>
<!-- n20&#45;&#45;n21 -->
<g id="edge33" class="edge"><title>n20&#45;&#45;n21</title>
<path fill="none" stroke="black" d="M-244.047,155.85C-235.156,177.688 -221.69,210.765 -212.762,232.695"/>
</g>
<!-- n19 -->
<g id="node17" class="node"><title>n19</title>
<ellipse fill="none" stroke="black" cx="-339.617" cy="110.766" rx="24.0958" ry="24.0958"/>
<text text-anchor="middle" x="-339.617" y="114.466" font-family="Times,serif" font-size="14.00">n19</text>
</g>
<!-- n19&#45;&#45;n29 -->
<g id="edge35" class="edge"><title>n19&#45;&#45;n29</title>
<path fill="none" stroke="black" d="M-349.751,132.675C-354.19,142.272 -359.389,153.512 -363.833,163.12"/>
</g>
<!-- n19&#45;&#45;n30 -->
<g id="edge34" class="edge"><title>n19&#45;&#45;n30</title>
<path fill="none" stroke="black" d="M-361.694,100.664C-392.027,86.7843 -446.264,61.9664 -476.499,48.1315"/>
</g>
<!-- n19&#45;&#45;n28 -->
<g id="edge36" class="edge"><title>n19&#45;&#45;n28</title>
<path fill="none" stroke="black" d="M-331.647,133.578C-319.359,168.748 -295.925,235.821 -283.637,270.991"/>
</g>
<!-- n19&#45;&#45;n21 -->
<g id="edge37" class="edge"><title>n19&#45;&#45;n21</title>
<path fill="none" stroke="black" d="M-322.934,128.49C-296.82,156.23 -246.574,209.607 -220.377,237.437"/>
</g>
<!-- n19&#45;&#45;n20 -->
<g id="edge38" class="edge"><title>n19&#45;&#45;n20</title>
<path fill="none" stroke="black" d="M-315.987,116.981C-303.685,120.217 -288.697,124.159 -276.443,127.382"/>
</g>
<!-- n18 -->
<g id="node18" class="node"><title>n18</title>
<ellipse fill="none" stroke="black" cx="-429.29" cy="70.8076" rx="24.0958" ry="24.0958"/>
<text text-anchor="middle" x="-429.29" y="74.5076" font-family="Times,serif" font-size="14.00">n18</text>
</g>
<!-- n18&#45;&#45;n29 -->
<g id="edge40" class="edge"><title>n18&#45;&#45;n29</title>
<path fill="none" stroke="black" d="M-418.763,92.5797C-408.927,112.922 -394.324,143.122 -384.501,163.438"/>
</g>
<!-- n18&#45;&#45;n30 -->
<g id="edge39" class="edge"><title>n18&#45;&#45;n30</title>
<path fill="none" stroke="black" d="M-451.153,60.4636C-459.218,56.6475 -468.355,52.3245 -476.43,48.5044"/>
</g>
<!-- n18&#45;&#45;n20 -->
<g id="edge41" class="edge"><title>n18&#45;&#45;n20</title>
<path fill="none" stroke="black" d="M-406.622,78.8766C-372.892,90.8833 -309.842,113.327 -276.001,125.373"/>
</g>
<!-- n18&#45;&#45;n19 -->
<g id="edge42" class="edge"><title>n18&#45;&#45;n19</title>
<path fill="none" stroke="black" d="M-407.124,80.685C-393.328,86.8326 -375.646,94.7117 -361.839,100.864"/>
</g>
<!-- n17 -->
<g id="node19" class="node"><title>n17</title>
<ellipse fill="none" stroke="black" cx="-329.277" cy="-21.5236" rx="24.0958" ry="24.0958"/>
<text text-anchor="middle" x="-329.277" y="-17.8236" font-family="Times,serif" font-size="14.00">n17</text>
</g>
<!-- n17&#45;&#45;n29 -->
<g id="edge44" class="edge"><title>n17&#45;&#45;n29</title>
<path fill="none" stroke="black" d="M-334.408,2.18206C-343.015,41.9387 -360.26,121.599 -368.872,161.383"/>
</g>
<!-- n17&#45;&#45;n30 -->
<g id="edge43" class="edge"><title>n17&#45;&#45;n30</title>
<path fill="none" stroke="black" d="M-352.084,-13.4804C-384.45,-2.0661 -443.357,18.7082 -475.672,30.1048"/>
</g>
<!-- n17&#45;&#45;n20 -->
<g id="edge45" class="edge"><title>n17&#45;&#45;n20</title>
<path fill="none" stroke="black" d="M-318.53,0.360167C-304.019,29.9076 -278.316,82.2481 -263.833,111.738"/>
</g>
<!-- n17&#45;&#45;n19 -->
<g id="edge46" class="edge"><title>n17&#45;&#45;n19</title>
<path fill="none" stroke="black" d="M-331.173,2.74035C-333.039,26.6097 -335.871,62.84 -337.733,86.656"/>
</g>
<!-- n17&#45;&#45;n18 -->
<g id="edge47" class="edge"><title>n17&#45;&#45;n18</title>
<path fill="none" stroke="black" d="M-347.157,-5.01667C-365.361,11.7894 -393.416,37.6892 -411.564,54.4435"/>
</g>
<!-- n16 -->
<g id="node20" class="node"><title>n16</title>
<ellipse fill="none" stroke="black" cx="-401.769" cy="-86.7154" rx="24.0958" ry="24.0958"/>
<text text-anchor="middle" x="-401.769" y="-83.0154" font-family="Times,serif" font-size="14.00">n16</text>
</g>
<!-- n16&#45;&#45;n30 -->
<g id="edge48" class="edge"><title>n16&#45;&#45;n30</title>
<path fill="none" stroke="black" d="M-416.654,-67.4841C-434.863,-43.9577 -465.5,-4.37551 -483.644,19.0673"/>
</g>
<!-- n16&#45;&#45;n19 -->
<g id="edge49" class="edge"><title>n16&#45;&#45;n19</title>
<path fill="none" stroke="black" d="M-394.518,-63.6752C-382.574,-25.7243 -358.895,49.5131 -346.918,87.5676"/>
</g>
<!-- n16&#45;&#45;n18 -->
<g id="edge50" class="edge"><title>n16&#45;&#45;n18</title>
<path fill="none" stroke="black" d="M-405.949,-62.791C-411.136,-33.0977 -419.931,17.2389 -425.116,46.9167"/>
</g>
<!-- n16&#45;&#45;n17 -->
<g id="edge51" class="edge"><title>n16&#45;&#45;n17</title>
<path fill="none" stroke="black" d="M-383.849,-70.6006C-372.697,-60.5709 -358.402,-47.7162 -347.241,-37.679"/>
</g>
<!-- n15 -->
<g id="node21" class="node"><title>n15</title>
<ellipse fill="none" stroke="black" cx="-278.894" cy="-209.377" rx="24.0958" ry="24.0958"/>
<text text-anchor="middle" x="-278.894" y="-205.677" font-family="Times,serif" font-size="14.00">n15</text>
</g>
<!-- n15&#45;&#45;n17 -->
<g id="edge52" class="edge"><title>n15&#45;&#45;n17</title>
<path fill="none" stroke="black" d="M-285.173,-185.965C-294.854,-149.869 -313.317,-81.0306 -322.998,-44.9349"/>
</g>
<!-- n15&#45;&#45;n16 -->
<g id="edge53" class="edge"><title>n15&#45;&#45;n16</title>
<path fill="none" stroke="black" d="M-295.979,-192.322C-319.323,-169.019 -360.959,-127.455 -384.433,-104.022"/>
</g>
<!-- n14 -->
<g id="node22" class="node"><title>n14</title>
<ellipse fill="none" stroke="black" cx="-273.185" cy="-374.191" rx="24.0958" ry="24.0958"/>
<text text-anchor="middle" x="-273.185" y="-370.491" font-family="Times,serif" font-size="14.00">n14</text>
</g>
<!-- n14&#45;&#45;n15 -->
<g id="edge54" class="edge"><title>n14&#45;&#45;n15</title>
<path fill="none" stroke="black" d="M-274.028,-349.872C-275.11,-318.622 -276.978,-264.696 -278.058,-233.528"/>
</g>
<!-- n13 -->
<g id="node23" class="node"><title>n13</title>
<ellipse fill="none" stroke="black" cx="-171.524" cy="-297.53" rx="24.0958" ry="24.0958"/>
<text text-anchor="middle" x="-171.524" y="-293.83" font-family="Times,serif" font-size="14.00">n13</text>
</g>
<!-- n13&#45;&#45;n15 -->
<g id="edge55" class="edge"><title>n13&#45;&#45;n15</title>
<path fill="none" stroke="black" d="M-190.226,-282.175C-209.813,-266.094 -240.404,-240.978 -260.046,-224.852"/>
</g>
<!-- n13&#45;&#45;n14 -->
<g id="edge56" class="edge"><title>n13&#45;&#45;n14</title>
<path fill="none" stroke="black" d="M-191.125,-312.311C-209.127,-325.886 -235.661,-345.895 -253.644,-359.455"/>
</g>
<!-- n12 -->
<g id="node24" class="node"><title>n12</title>
<ellipse fill="none" stroke="black" cx="-104.894" cy="-344.149" rx="24.0958" ry="24.0958"/>
<text text-anchor="middle" x="-104.894" y="-340.449" font-family="Times,serif" font-size="14.00">n12</text>
</g>
<!-- n12&#45;&#45;n35 -->
<g id="edge57" class="edge"><title>n12&#45;&#45;n35</title>
<path fill="none" stroke="black" d="M-80.9409,-341.687C-43.4485,-337.834 28.6909,-330.419 66.3036,-326.553"/>
</g>
<!-- n12&#45;&#45;n15 -->
<g id="edge58" class="edge"><title>n12&#45;&#45;n15</title>
<path fill="none" stroke="black" d="M-124.18,-329.212C-157.715,-303.237 -226.378,-250.054 -259.787,-224.177"/>
</g>
<!-- n12&#45;&#45;n14 -->
<g id="edge59" class="edge"><title>n12&#45;&#45;n14</title>
<path fill="none" stroke="black" d="M-128.649,-348.39C-160.633,-354.099 -217.219,-364.201 -249.279,-369.924"/>
</g>
<!-- n12&#45;&#45;n13 -->
<g id="edge60" class="edge"><title>n12&#45;&#45;n13</title>
<path fill="none" stroke="black" d="M-124.885,-330.162C-133.318,-324.261 -143.115,-317.407 -151.547,-311.507"/>
</g>
<!-- n11 -->
<g id="node25" class="node"><title>n11</title>
<ellipse fill="none" stroke="black" cx="15.6996" cy="-290.722" rx="24.0958" ry="24.0958"/>
<text text-anchor="middle" x="15.6996" y="-287.022" font-family="Times,serif" font-size="14.00">n11</text>
</g>
<!-- n11&#45;&#45;n35 -->
<g id="edge61" class="edge"><title>n11&#45;&#45;n35</title>
<path fill="none" stroke="black" d="M37.7237,-300.547C47.3708,-304.851 58.6694,-309.891 68.3279,-314.2"/>
</g>
<!-- n11&#45;&#45;n13 -->
<g id="edge62" class="edge"><title>n11&#45;&#45;n13</title>
<path fill="none" stroke="black" d="M-8.39335,-291.598C-44.2439,-292.902 -111.259,-295.338 -147.227,-296.646"/>
</g>
<!-- n11&#45;&#45;n12 -->
<g id="edge63" class="edge"><title>n11&#45;&#45;n12</title>
<path fill="none" stroke="black" d="M-6.4192,-300.521C-28.0422,-310.101 -60.7929,-324.611 -82.5073,-334.231"/>
</g>
<!-- n10 -->
<g id="node26" class="node"><title>n10</title>
<ellipse fill="none" stroke="black" cx="72.7123" cy="-392.423" rx="24.0958" ry="24.0958"/>
<text text-anchor="middle" x="72.7123" y="-388.723" font-family="Times,serif" font-size="14.00">n10</text>
</g>
<!-- n10&#45;&#45;n35 -->
<g id="edge64" class="edge"><title>n10&#45;&#45;n35</title>
<path fill="none" stroke="black" d="M78.8176,-368.9C80.6217,-361.949 82.5954,-354.345 84.3965,-347.405"/>
</g>
<!-- n10&#45;&#45;n12 -->
<g id="edge65" class="edge"><title>n10&#45;&#45;n12</title>
<path fill="none" stroke="black" d="M49.4934,-386.112C15.4552,-376.861 -47.6282,-359.715 -81.6696,-350.462"/>
</g>
<!-- n10&#45;&#45;n11 -->
<g id="edge66" class="edge"><title>n10&#45;&#45;n11</title>
<path fill="none" stroke="black" d="M60.8992,-371.351C51.1144,-353.896 37.2781,-329.215 27.4975,-311.768"/>
</g>
<!-- n9 -->
<g id="node27" class="node"><title>n9</title>
<ellipse fill="none" stroke="black" cx="222.452" cy="-317.936" rx="19.4965" ry="19.4965"/>
<text text-anchor="middle" x="222.452" y="-314.236" font-family="Times,serif" font-size="14.00">n9</text>
</g>
<!-- n9&#45;&#45;n34 -->
<g id="edge68" class="edge"><title>n9&#45;&#45;n34</title>
<path fill="none" stroke="black" d="M227.113,-298.742C231.585,-280.324 238.349,-252.471 243.144,-232.721"/>
</g>
<!-- n9&#45;&#45;n35 -->
<g id="edge67" class="edge"><title>n9&#45;&#45;n35</title>
<path fill="none" stroke="black" d="M202.69,-318.855C179.244,-319.944 140.153,-321.761 114.845,-322.937"/>
</g>
<!-- n9&#45;&#45;n33 -->
<g id="edge69" class="edge"><title>n9&#45;&#45;n33</title>
<path fill="none" stroke="black" d="M229.792,-299.479C244.687,-262.026 278.415,-177.214 294.583,-136.561"/>
</g>
<!-- n9&#45;&#45;n11 -->
<g id="edge70" class="edge"><title>n9&#45;&#45;n11</title>
<path fill="none" stroke="black" d="M203.001,-315.376C165.003,-310.375 81.0212,-299.32 39.6645,-293.876"/>
</g>
<!-- n9&#45;&#45;n10 -->
<g id="edge71" class="edge"><title>n9&#45;&#45;n10</title>
<path fill="none" stroke="black" d="M204.982,-326.627C177.517,-340.289 124.299,-366.762 94.4182,-381.626"/>
</g>
<!-- n8 -->
<g id="node28" class="node"><title>n8</title>
<ellipse fill="none" stroke="black" cx="167.237" cy="-219.291" rx="19.4965" ry="19.4965"/>
<text text-anchor="middle" x="167.237" y="-215.591" font-family="Times,serif" font-size="14.00">n8</text>
</g>
<!-- n8&#45;&#45;n34 -->
<g id="edge72" class="edge"><title>n8&#45;&#45;n34</title>
<path fill="none" stroke="black" d="M186.996,-216.842C198.414,-215.426 212.86,-213.635 224.92,-212.14"/>
</g>
<!-- n8&#45;&#45;n11 -->
<g id="edge73" class="edge"><title>n8&#45;&#45;n11</title>
<path fill="none" stroke="black" d="M149.557,-227.625C121.763,-240.727 67.9053,-266.114 37.6661,-280.368"/>
</g>
<!-- n8&#45;&#45;n10 -->
<g id="edge74" class="edge"><title>n8&#45;&#45;n10</title>
<path fill="none" stroke="black" d="M157.828,-236.525C140.41,-268.428 103.197,-336.588 84.2748,-371.245"/>
</g>
<!-- n8&#45;&#45;n9 -->
<g id="edge75" class="edge"><title>n8&#45;&#45;n9</title>
<path fill="none" stroke="black" d="M176.855,-236.474C186.927,-254.469 202.659,-282.574 212.759,-300.62"/>
</g>
<!-- n7 -->
<g id="node29" class="node"><title>n7</title>
<ellipse fill="none" stroke="black" cx="352.343" cy="-207.898" rx="19.4965" ry="19.4965"/>
<text text-anchor="middle" x="352.343" y="-204.198" font-family="Times,serif" font-size="14.00">n7</text>
</g>
<!-- n7&#45;&#45;n34 -->
<g id="edge76" class="edge"><title>n7&#45;&#45;n34</title>
<path fill="none" stroke="black" d="M332.391,-208.144C315.476,-208.352 291.162,-208.651 273.124,-208.873"/>
</g>
<!-- n7&#45;&#45;n33 -->
<g id="edge77" class="edge"><title>n7&#45;&#45;n33</title>
<path fill="none" stroke="black" d="M343.166,-190.238C335.105,-174.726 323.354,-152.112 314.744,-135.542"/>
</g>
<!-- n7&#45;&#45;n9 -->
<g id="edge78" class="edge"><title>n7&#45;&#45;n9</title>
<path fill="none" stroke="black" d="M337.443,-220.521C312.521,-241.634 262.651,-283.882 237.579,-305.122"/>
</g>
<!-- n7&#45;&#45;n8 -->
<g id="edge79" class="edge"><title>n7&#45;&#45;n8</title>
<path fill="none" stroke="black" d="M332.533,-209.118C296.906,-211.31 222.428,-215.894 186.904,-218.081"/>
</g>
<!-- n6 -->
<g id="node30" class="node"><title>n6</title>
<ellipse fill="none" stroke="black" cx="360.55" cy="-103.064" rx="19.4965" ry="19.4965"/>
<text text-anchor="middle" x="360.55" y="-99.3644" font-family="Times,serif" font-size="14.00">n6</text>
</g>
<!-- n6&#45;&#45;n34 -->
<g id="edge80" class="edge"><title>n6&#45;&#45;n34</title>
<path fill="none" stroke="black" d="M346.405,-116.503C326.095,-135.798 288.69,-171.334 266.569,-192.349"/>
</g>
<!-- n6&#45;&#45;n33 -->
<g id="edge81" class="edge"><title>n6&#45;&#45;n33</title>
<path fill="none" stroke="black" d="M341.253,-106.768C336.732,-107.636 331.864,-108.57 327.178,-109.47"/>
</g>
<!-- n6&#45;&#45;n32 -->
<g id="edge82" class="edge"><title>n6&#45;&#45;n32</title>
<path fill="none" stroke="black" d="M348.151,-87.7295C334.203,-70.4777 311.537,-42.4435 296.498,-23.8439"/>
</g>
<!-- n6&#45;&#45;n8 -->
<g id="edge83" class="edge"><title>n6&#45;&#45;n8</title>
<path fill="none" stroke="black" d="M343.733,-113.175C307.173,-135.157 220.802,-187.086 184.153,-209.121"/>
</g>
<!-- n6&#45;&#45;n7 -->
<g id="edge84" class="edge"><title>n6&#45;&#45;n7</title>
<path fill="none" stroke="black" d="M359.006,-122.783C357.539,-141.526 355.345,-169.555 353.88,-188.268"/>
</g>
<!-- n5 -->
<g id="node31" class="node"><title>n5</title>
<ellipse fill="none" stroke="black" cx="213.232" cy="-54.4354" rx="19.4965" ry="19.4965"/>
<text text-anchor="middle" x="213.232" y="-50.7354" font-family="Times,serif" font-size="14.00">n5</text>
</g>
<!-- n5&#45;&#45;n33 -->
<g id="edge85" class="edge"><title>n5&#45;&#45;n33</title>
<path fill="none" stroke="black" d="M229.798,-65.3614C244.872,-75.3035 267.168,-90.008 283.297,-100.645"/>
</g>
<!-- n5&#45;&#45;n32 -->
<g id="edge86" class="edge"><title>n5&#45;&#45;n32</title>
<path fill="none" stroke="black" d="M228.995,-42.9513C238.721,-35.8663 251.273,-26.7222 261.631,-19.1761"/>
</g>
<!-- n5&#45;&#45;n8 -->
<g id="edge87" class="edge"><title>n5&#45;&#45;n8</title>
<path fill="none" stroke="black" d="M207.955,-73.3465C199.107,-105.062 181.377,-168.61 172.522,-200.348"/>
</g>
<!-- n5&#45;&#45;n7 -->
<g id="edge88" class="edge"><title>n5&#45;&#45;n7</title>
<path fill="none" stroke="black" d="M226.57,-69.1501C253.092,-98.4082 312.185,-163.597 338.84,-193.003"/>
</g>
<!-- n5&#45;&#45;n6 -->
<g id="edge89" class="edge"><title>n5&#45;&#45;n6</title>
<path fill="none" stroke="black" d="M231.89,-60.5943C260.072,-69.8972 313.212,-87.4383 341.578,-96.8019"/>
</g>
<!-- n4 -->
<g id="node32" class="node"><title>n4</title>
<ellipse fill="none" stroke="black" cx="374.46" cy="14.1539" rx="19.4965" ry="19.4965"/>
<text text-anchor="middle" x="374.46" y="17.8539" font-family="Times,serif" font-size="14.00">n4</text>
</g>
<!-- n4&#45;&#45;n33 -->
<g id="edge90" class="edge"><title>n4&#45;&#45;n33</title>
<path fill="none" stroke="black" d="M364.898,-3.13013C352.045,-26.3602 329.21,-67.6312 315.319,-92.7386"/>
</g>
<!-- n4&#45;&#45;n32 -->
<g id="edge91" class="edge"><title>n4&#45;&#45;n32</title>
<path fill="none" stroke="black" d="M355.137,10.2016C340.518,7.21164 320.37,3.09092 304.798,-0.0939841"/>
</g>
<!-- n4&#45;&#45;n31 -->
<g id="edge92" class="edge"><title>n4&#45;&#45;n31</title>
<path fill="none" stroke="black" d="M368.645,32.8143C362.102,53.8072 351.47,87.9206 344.416,110.554"/>
</g>
<!-- n4&#45;&#45;n7 -->
<g id="edge93" class="edge"><title>n4&#45;&#45;n7</title>
<path fill="none" stroke="black" d="M372.498,-5.55175C368.3,-47.69 358.495,-146.138 354.301,-188.237"/>
</g>
<!-- n4&#45;&#45;n6 -->
<g id="edge94" class="edge"><title>n4&#45;&#45;n6</title>
<path fill="none" stroke="black" d="M372.132,-5.4658C369.564,-27.1036 365.457,-61.7173 362.886,-83.3807"/>
</g>
<!-- n4&#45;&#45;n5 -->
<g id="edge95" class="edge"><title>n4&#45;&#45;n5</title>
<path fill="none" stroke="black" d="M356.279,6.41917C325.314,-6.75395 262.682,-33.3983 231.594,-46.6237"/>
</g>
<!-- n3 -->
<g id="node33" class="node"><title>n3</title>
<ellipse fill="none" stroke="black" cx="285.693" cy="95.0091" rx="19.4965" ry="19.4965"/>
<text text-anchor="middle" x="285.693" y="98.7091" font-family="Times,serif" font-size="14.00">n3</text>
</g>
<!-- n3&#45;&#45;n32 -->
<g id="edge96" class="edge"><title>n3&#45;&#45;n32</title>
<path fill="none" stroke="black" d="M284.805,75.2662C284.084,59.226 283.063,36.5295 282.291,19.3751"/>
</g>
<!-- n3&#45;&#45;n31 -->
<g id="edge97" class="edge"><title>n3&#45;&#45;n31</title>
<path fill="none" stroke="black" d="M301.439,106.791C306.65,110.69 312.509,115.074 317.954,119.149"/>
</g>
<!-- n3&#45;&#45;n6 -->
<g id="edge98" class="edge"><title>n3&#45;&#45;n6</title>
<path fill="none" stroke="black" d="M292.602,76.7299C306.826,39.0918 339.247,-46.6965 353.55,-84.5414"/>
</g>
<!-- n3&#45;&#45;n5 -->
<g id="edge99" class="edge"><title>n3&#45;&#45;n5</title>
<path fill="none" stroke="black" d="M277.096,77.279C263.151,48.5171 235.756,-7.98132 221.817,-36.7284"/>
</g>
<!-- n3&#45;&#45;n4 -->
<g id="edge100" class="edge"><title>n3&#45;&#45;n4</title>
<path fill="none" stroke="black" d="M300.351,81.6575C316.799,66.6764 343.325,42.5146 359.781,27.5253"/>
</g>
<!-- n2 -->
<g id="node34" class="node"><title>n2</title>
<ellipse fill="none" stroke="black" cx="186.702" cy="116.094" rx="19.4965" ry="19.4965"/>
<text text-anchor="middle" x="186.702" y="119.794" font-family="Times,serif" font-size="14.00">n2</text>
</g>
<!-- n2&#45;&#45;n32 -->
<g id="edge101" class="edge"><title>n2&#45;&#45;n32</title>
<path fill="none" stroke="black" d="M199.055,100.274C216.365,78.1063 247.793,37.8593 266.352,14.0918"/>
</g>
<!-- n2&#45;&#45;n31 -->
<g id="edge102" class="edge"><title>n2&#45;&#45;n31</title>
<path fill="none" stroke="black" d="M206.074,118.344C233.47,121.527 283.501,127.338 313.223,130.791"/>
</g>
<!-- n2&#45;&#45;n26 -->
<g id="edge103" class="edge"><title>n2&#45;&#45;n26</title>
<path fill="none" stroke="black" d="M173.627,130.635C151.221,155.553 105.533,206.363 80.9916,233.656"/>
</g>
<!-- n2&#45;&#45;n25 -->
<g id="edge104" class="edge"><title>n2&#45;&#45;n25</title>
<path fill="none" stroke="black" d="M181.032,135.002C169.528,173.369 143.477,260.249 130.989,301.895"/>
</g>
<!-- n2&#45;&#45;n24 -->
<g id="edge105" class="edge"><title>n2&#45;&#45;n24</title>
<path fill="none" stroke="black" d="M169.086,125.034C142.232,138.662 91.1222,164.6 62.1354,179.31"/>
</g>
<!-- n2&#45;&#45;n5 -->
<g id="edge106" class="edge"><title>n2&#45;&#45;n5</title>
<path fill="none" stroke="black" d="M189.745,96.5324C194.862,63.6378 205.13,-2.36083 210.224,-35.1017"/>
</g>
<!-- n2&#45;&#45;n4 -->
<g id="edge107" class="edge"><title>n2&#45;&#45;n4</title>
<path fill="none" stroke="black" d="M204.029,106.687C239.798,87.2667 321.442,42.9394 357.175,23.5388"/>
</g>
<!-- n2&#45;&#45;n3 -->
<g id="edge108" class="edge"><title>n2&#45;&#45;n3</title>
<path fill="none" stroke="black" d="M205.788,112.029C223.205,108.319 248.824,102.862 266.328,99.134"/>
</g>
<!-- n1 -->
<g id="node35" class="node"><title>n1</title>
<ellipse fill="none" stroke="black" cx="212.219" cy="258.263" rx="19.4965" ry="19.4965"/>
<text text-anchor="middle" x="212.219" y="261.963" font-family="Times,serif" font-size="14.00">n1</text>
</g>
<!-- n1&#45;&#45;n31 -->
<g id="edge109" class="edge"><title>n1&#45;&#45;n31</title>
<path fill="none" stroke="black" d="M226.076,244.444C249.091,221.491 295.131,175.575 320.132,150.641"/>
</g>
<!-- n1&#45;&#45;n26 -->
<g id="edge110" class="edge"><title>n1&#45;&#45;n26</title>
<path fill="none" stroke="black" d="M192.608,257.426C165.772,256.281 117.642,254.228 88.6386,252.99"/>
</g>
<!-- n1&#45;&#45;n25 -->
<g id="edge111" class="edge"><title>n1&#45;&#45;n25</title>
<path fill="none" stroke="black" d="M196.458,270.195C181.6,281.442 159.298,298.325 143.377,310.378"/>
</g>
<!-- n1&#45;&#45;n24 -->
<g id="edge112" class="edge"><title>n1&#45;&#45;n24</title>
<path fill="none" stroke="black" d="M193.86,250.98C162.224,238.429 97.536,212.766 63.2159,199.15"/>
</g>
<!-- n1&#45;&#45;n23 -->
<g id="edge113" class="edge"><title>n1&#45;&#45;n23</title>
<path fill="none" stroke="black" d="M193.056,263.121C154.168,272.979 66.1103,295.3 23.9004,306"/>
</g>
<!-- n1&#45;&#45;n3 -->
<g id="edge114" class="edge"><title>n1&#45;&#45;n3</title>
<path fill="none" stroke="black" d="M220.222,240.481C234.281,209.243 263.267,144.839 277.476,113.267"/>
</g>
<!-- n1&#45;&#45;n2 -->
<g id="edge115" class="edge"><title>n1&#45;&#45;n2</title>
<path fill="none" stroke="black" d="M208.725,238.793C203.838,211.568 195.018,162.427 190.154,135.329"/>
</g>
<!-- n0 -->
<g id="node36" class="node"><title>n0</title>
<ellipse fill="none" stroke="black" cx="171.467" cy="211.21" rx="19.4965" ry="19.4965"/>
<text text-anchor="middle" x="171.467" y="214.91" font-family="Times,serif" font-size="14.00">n0</text>
</g>
<!-- n0&#45;&#45;n31 -->
<g id="edge116" class="edge"><title>n0&#45;&#45;n31</title>
<path fill="none" stroke="black" d="M189.208,202.903C219.778,188.587 282.287,159.314 315.451,143.784"/>
</g>
<!-- n0&#45;&#45;n26 -->
<g id="edge117" class="edge"><title>n0&#45;&#45;n26</title>
<path fill="none" stroke="black" d="M152.84,218.309C134.529,225.287 106.562,235.944 87.0217,243.391"/>
</g>
<!-- n0&#45;&#45;n25 -->
<g id="edge118" class="edge"><title>n0&#45;&#45;n25</title>
<path fill="none" stroke="black" d="M163.955,229.241C155.653,249.169 142.274,281.283 133.327,302.758"/>
</g>
<!-- n0&#45;&#45;n24 -->
<g id="edge119" class="edge"><title>n0&#45;&#45;n24</title>
<path fill="none" stroke="black" d="M152.167,208.111C128.859,204.368 89.6545,198.072 64.4869,194.03"/>
</g>
<!-- n0&#45;&#45;n23 -->
<g id="edge120" class="edge"><title>n0&#45;&#45;n23</title>
<path fill="none" stroke="black" d="M154.447,221.237C122.94,239.797 55.6243,279.452 21.3964,299.616"/>
</g>
<!-- n0&#45;&#45;n3 -->
<g id="edge121" class="edge"><title>n0&#45;&#45;n3</title>
<path fill="none" stroke="black" d="M185.473,196.962C207.516,174.538 250.038,131.281 271.929,109.011"/>
</g>
<!-- n0&#45;&#45;n2 -->
<g id="edge122" class="edge"><title>n0&#45;&#45;n2</title>
<path fill="none" stroke="black" d="M174.624,191.502C177.256,175.069 180.985,151.786 183.601,135.452"/>
</g>
<!-- n0&#45;&#45;n1 -->
<g id="edge123" class="edge"><title>n0&#45;&#45;n1</title>
<path fill="none" stroke="black" d="M184.361,226.098C189.118,231.591 194.507,237.813 199.269,243.311"/>
</g>
</g>
</svg>
