<?xml version="1.0" standalone="yes"?>
<!-- SVG graphic -->
<svg xmlns='http://www.w3.org/2000/svg' xmlns:xlink='http://www.w3.org/1999/xlink'
 version="1.1">
<rect x="0" y="0" width="6" height="200" stroke="black" stroke-width="1" fill="blue" tooltip="enable"><title>(0,4980)</title></rect><rect x="6" y="22.8112" width="6" height="177.189" stroke="black" stroke-width="1" fill="blue" tooltip="enable"><title>(0.0438224,4412)</title></rect><rect x="12" y="47.51" width="6" height="152.49" stroke="black" stroke-width="1" fill="blue" tooltip="enable"><title>(0.0876449,3797)</title></rect><rect x="18" y="70.3213" width="6" height="129.679" stroke="black" stroke-width="1" fill="blue" tooltip="enable"><title>(0.131467,3229)</title></rect><rect x="24" y="84.8996" width="6" height="115.1" stroke="black" stroke-width="1" fill="blue" tooltip="enable"><title>(0.17529,2866)</title></rect><rect x="30" y="105.382" width="6" height="94.6185" stroke="black" stroke-width="1" fill="blue" tooltip="enable"><title>(0.219112,2356)</title></rect><rect x="36" y="119.799" width="6" height="80.2008" stroke="black" stroke-width="1" fill="blue" tooltip="enable"><title>(0.262935,1997)</title></rect><rect x="42" y="133.052" width="6" height="66.9478" stroke="black" stroke-width="1" fill="blue" tooltip="enable"><title>(0.306757,1667)</title></rect><rect x="48" y="138.795" width="6" height="61.2048" stroke="black" stroke-width="1" fill="blue" tooltip="enable"><title>(0.35058,1524)</title></rect><rect x="54" y="147.068" width="6" height="52.9317" stroke="black" stroke-width="1" fill="blue" tooltip="enable"><title>(0.394402,1318)</title></rect><rect x="60" y="155.341" width="6" height="44.6586" stroke="black" stroke-width="1" fill="blue" tooltip="enable"><title>(0.438225,1112)</title></rect><rect x="66" y="157.831" width="6" height="42.1687" stroke="black" stroke-width="1" fill="blue" tooltip="enable"><title>(0.482047,1050)</title></rect><rect x="72" y="163.695" width="6" height="36.3052" stroke="black" stroke-width="1" fill="blue" tooltip="enable"><title>(0.525869,904)</title></rect><rect x="78" y="168.313" width="6" height="31.6867" stroke="black" stroke-width="1" fill="blue" tooltip="enable"><title>(0.569692,789)</title></rect><rect x="84" y="171.647" width="6" height="28.3534" stroke="black" stroke-width="1" fill="blue" tooltip="enable"><title>(0.613514,706)</title></rect><rect x="90" y="174.498" width="6" height="25.502" stroke="black" stroke-width="1" fill="blue" tooltip="enable"><title>(0.657337,635)</title></rect><rect x="96" y="176.627" width="6" height="23.3735" stroke="black" stroke-width="1" fill="blue" tooltip="enable"><title>(0.701159,582)</title></rect><rect x="102" y="178.996" width="6" height="21.004" stroke="black" stroke-width="1" fill="blue" tooltip="enable"><title>(0.744982,523)</title></rect><rect x="108" y="179.116" width="6" height="20.8835" stroke="black" stroke-width="1" fill="blue" tooltip="enable"><title>(0.788804,520)</title></rect><rect x="114" y="182.008" width="6" height="17.992" stroke="black" stroke-width="1" fill="blue" tooltip="enable"><title>(0.832627,448)</title></rect><rect x="120" y="183.896" width="6" height="16.1044" stroke="black" stroke-width="1" fill="blue" tooltip="enable"><title>(0.876449,401)</title></rect><rect x="126" y="185.06" width="6" height="14.9398" stroke="black" stroke-width="1" fill="blue" tooltip="enable"><title>(0.920271,372)</title></rect><rect x="132" y="187.229" width="6" height="12.7711" stroke="black" stroke-width="1" fill="blue" tooltip="enable"><title>(0.964094,318)</title></rect><rect x="138" y="187.55" width="6" height="12.4498" stroke="black" stroke-width="1" fill="blue" tooltip="enable"><title>(1.00792,310)</title></rect><rect x="144" y="187.871" width="6" height="12.1285" stroke="black" stroke-width="1" fill="blue" tooltip="enable"><title>(1.05174,302)</title></rect><rect x="150" y="189.197" width="6" height="10.8032" stroke="black" stroke-width="1" fill="blue" tooltip="enable"><title>(1.09556,269)</title></rect><rect x="156" y="189.438" width="6" height="10.5622" stroke="black" stroke-width="1" fill="blue" tooltip="enable"><title>(1.13938,263)</title></rect><rect x="162" y="190.482" width="6" height="9.51807" stroke="black" stroke-width="1" fill="blue" tooltip="enable"><title>(1.18321,237)</title></rect><rect x="168" y="191.807" width="6" height="8.19277" stroke="black" stroke-width="1" fill="blue" tooltip="enable"><title>(1.22703,204)</title></rect><rect x="174" y="192.45" width="6" height="7.5502" stroke="black" stroke-width="1" fill="blue" tooltip="enable"><title>(1.27085,188)</title></rect><rect x="180" y="192.49" width="6" height="7.51004" stroke="black" stroke-width="1" fill="blue" tooltip="enable"><title>(1.31467,187)</title></rect><rect x="186" y="192.45" width="6" height="7.5502" stroke="black" stroke-width="1" fill="blue" tooltip="enable"><title>(1.3585,188)</title></rect><rect x="192" y="192.329" width="6" height="7.67068" stroke="black" stroke-width="1" fill="blue" tooltip="enable"><title>(1.40232,191)</title></rect><rect x="198" y="193.092" width="6" height="6.90763" stroke="black" stroke-width="1" fill="blue" tooltip="enable"><title>(1.44614,172)</title></rect><rect x="204" y="194.618" width="6" height="5.38153" stroke="black" stroke-width="1" fill="blue" tooltip="enable"><title>(1.48996,134)</title></rect><rect x="210" y="194.779" width="6" height="5.22088" stroke="black" stroke-width="1" fill="blue" tooltip="enable"><title>(1.53379,130)</title></rect><rect x="216" y="194.137" width="6" height="5.86345" stroke="black" stroke-width="1" fill="blue" tooltip="enable"><title>(1.57761,146)</title></rect><rect x="222" y="195.382" width="6" height="4.61847" stroke="black" stroke-width="1" fill="blue" tooltip="enable"><title>(1.62143,115)</title></rect><rect x="228" y="195.141" width="6" height="4.85944" stroke="black" stroke-width="1" fill="blue" tooltip="enable"><title>(1.66525,121)</title></rect><rect x="234" y="195.422" width="6" height="4.57831" stroke="black" stroke-width="1" fill="blue" tooltip="enable"><title>(1.70908,114)</title></rect><rect x="240" y="195.984" width="6" height="4.01606" stroke="black" stroke-width="1" fill="blue" tooltip="enable"><title>(1.7529,100)</title></rect><rect x="246" y="195.863" width="6" height="4.13655" stroke="black" stroke-width="1" fill="blue" tooltip="enable"><title>(1.79672,103)</title></rect><rect x="252" y="196.305" width="6" height="3.69478" stroke="black" stroke-width="1" fill="blue" tooltip="enable"><title>(1.84054,92)</title></rect><rect x="258" y="196.386" width="6" height="3.61446" stroke="black" stroke-width="1" fill="blue" tooltip="enable"><title>(1.88437,90)</title></rect><rect x="264" y="196.747" width="6" height="3.25301" stroke="black" stroke-width="1" fill="blue" tooltip="enable"><title>(1.92819,81)</title></rect><rect x="270" y="197.149" width="6" height="2.85141" stroke="black" stroke-width="1" fill="blue" tooltip="enable"><title>(1.97201,71)</title></rect><rect x="276" y="196.867" width="6" height="3.13253" stroke="black" stroke-width="1" fill="blue" tooltip="enable"><title>(2.01583,78)</title></rect><rect x="282" y="196.426" width="6" height="3.5743" stroke="black" stroke-width="1" fill="blue" tooltip="enable"><title>(2.05966,89)</title></rect><rect x="288" y="197.149" width="6" height="2.85141" stroke="black" stroke-width="1" fill="blue" tooltip="enable"><title>(2.10348,71)</title></rect><rect x="294" y="197.912" width="6" height="2.08835" stroke="black" stroke-width="1" fill="blue" tooltip="enable"><title>(2.1473,52)</title></rect><rect x="300" y="197.871" width="6" height="2.12851" stroke="black" stroke-width="1" fill="blue" tooltip="enable"><title>(2.19112,53)</title></rect><rect x="306" y="197.871" width="6" height="2.12851" stroke="black" stroke-width="1" fill="blue" tooltip="enable"><title>(2.23495,53)</title></rect><rect x="312" y="197.871" width="6" height="2.12851" stroke="black" stroke-width="1" fill="blue" tooltip="enable"><title>(2.27877,53)</title></rect><rect x="318" y="197.992" width="6" height="2.00803" stroke="black" stroke-width="1" fill="blue" tooltip="enable"><title>(2.32259,50)</title></rect><rect x="324" y="198.353" width="6" height="1.64659" stroke="black" stroke-width="1" fill="blue" tooltip="enable"><title>(2.36641,41)</title></rect><rect x="330" y="198.554" width="6" height="1.44578" stroke="black" stroke-width="1" fill="blue" tooltip="enable"><title>(2.41023,36)</title></rect><rect x="336" y="198.233" width="6" height="1.76707" stroke="black" stroke-width="1" fill="blue" tooltip="enable"><title>(2.45406,44)</title></rect><rect x="342" y="198.394" width="6" height="1.60643" stroke="black" stroke-width="1" fill="blue" tooltip="enable"><title>(2.49788,40)</title></rect><rect x="348" y="198.554" width="6" height="1.44578" stroke="black" stroke-width="1" fill="blue" tooltip="enable"><title>(2.5417,36)</title></rect><rect x="354" y="198.554" width="6" height="1.44578" stroke="black" stroke-width="1" fill="blue" tooltip="enable"><title>(2.58552,36)</title></rect><rect x="360" y="198.916" width="6" height="1.08434" stroke="black" stroke-width="1" fill="blue" tooltip="enable"><title>(2.62935,27)</title></rect><rect x="366" y="198.795" width="6" height="1.20482" stroke="black" stroke-width="1" fill="blue" tooltip="enable"><title>(2.67317,30)</title></rect><rect x="372" y="198.795" width="6" height="1.20482" stroke="black" stroke-width="1" fill="blue" tooltip="enable"><title>(2.71699,30)</title></rect><rect x="378" y="198.956" width="6" height="1.04418" stroke="black" stroke-width="1" fill="blue" tooltip="enable"><title>(2.76081,26)</title></rect><rect x="384" y="198.835" width="6" height="1.16466" stroke="black" stroke-width="1" fill="blue" tooltip="enable"><title>(2.80464,29)</title></rect><rect x="390" y="198.755" width="6" height="1.24498" stroke="black" stroke-width="1" fill="blue" tooltip="enable"><title>(2.84846,31)</title></rect><rect x="396" y="199.398" width="6" height="0.60241" stroke="black" stroke-width="1" fill="blue" tooltip="enable"><title>(2.89228,15)</title></rect><rect x="402" y="199.116" width="6" height="0.883534" stroke="black" stroke-width="1" fill="blue" tooltip="enable"><title>(2.9361,22)</title></rect><rect x="408" y="199.157" width="6" height="0.843373" stroke="black" stroke-width="1" fill="blue" tooltip="enable"><title>(2.97993,21)</title></rect><rect x="414" y="199.317" width="6" height="0.682731" stroke="black" stroke-width="1" fill="blue" tooltip="enable"><title>(3.02375,17)</title></rect><rect x="420" y="199.478" width="6" height="0.522088" stroke="black" stroke-width="1" fill="blue" tooltip="enable"><title>(3.06757,13)</title></rect><rect x="426" y="199.518" width="6" height="0.481928" stroke="black" stroke-width="1" fill="blue" tooltip="enable"><title>(3.11139,12)</title></rect><rect x="432" y="199.438" width="6" height="0.562249" stroke="black" stroke-width="1" fill="blue" tooltip="enable"><title>(3.15522,14)</title></rect><rect x="438" y="199.438" width="6" height="0.562249" stroke="black" stroke-width="1" fill="blue" tooltip="enable"><title>(3.19904,14)</title></rect><rect x="444" y="199.438" width="6" height="0.562249" stroke="black" stroke-width="1" fill="blue" tooltip="enable"><title>(3.24286,14)</title></rect><rect x="450" y="199.237" width="6" height="0.763052" stroke="black" stroke-width="1" fill="blue" tooltip="enable"><title>(3.28668,19)</title></rect><rect x="456" y="199.679" width="6" height="0.321285" stroke="black" stroke-width="1" fill="blue" tooltip="enable"><title>(3.33051,8)</title></rect><rect x="462" y="199.719" width="6" height="0.281124" stroke="black" stroke-width="1" fill="blue" tooltip="enable"><title>(3.37433,7)</title></rect><rect x="468" y="199.598" width="6" height="0.401606" stroke="black" stroke-width="1" fill="blue" tooltip="enable"><title>(3.41815,10)</title></rect><rect x="474" y="199.558" width="6" height="0.441767" stroke="black" stroke-width="1" fill="blue" tooltip="enable"><title>(3.46197,11)</title></rect><rect x="480" y="199.518" width="6" height="0.481928" stroke="black" stroke-width="1" fill="blue" tooltip="enable"><title>(3.5058,12)</title></rect><rect x="486" y="199.839" width="6" height="0.160643" stroke="black" stroke-width="1" fill="blue" tooltip="enable"><title>(3.54962,4)</title></rect><rect x="492" y="199.558" width="6" height="0.441767" stroke="black" stroke-width="1" fill="blue" tooltip="enable"><title>(3.59344,11)</title></rect><rect x="498" y="199.799" width="6" height="0.200803" stroke="black" stroke-width="1" fill="blue" tooltip="enable"><title>(3.63726,5)</title></rect><rect x="504" y="199.88" width="6" height="0.120482" stroke="black" stroke-width="1" fill="blue" tooltip="enable"><title>(3.68109,3)</title></rect><rect x="510" y="199.679" width="6" height="0.321285" stroke="black" stroke-width="1" fill="blue" tooltip="enable"><title>(3.72491,8)</title></rect><rect x="516" y="199.92" width="6" height="0.0803213" stroke="black" stroke-width="1" fill="blue" tooltip="enable"><title>(3.76873,2)</title></rect><rect x="522" y="199.639" width="6" height="0.361446" stroke="black" stroke-width="1" fill="blue" tooltip="enable"><title>(3.81255,9)</title></rect><rect x="528" y="199.799" width="6" height="0.200803" stroke="black" stroke-width="1" fill="blue" tooltip="enable"><title>(3.85638,5)</title></rect><rect x="534" y="199.839" width="6" height="0.160643" stroke="black" stroke-width="1" fill="blue" tooltip="enable"><title>(3.9002,4)</title></rect><rect x="540" y="199.96" width="6" height="0.0401606" stroke="black" stroke-width="1" fill="blue" tooltip="enable"><title>(3.94402,1)</title></rect><rect x="546" y="199.96" width="6" height="0.0401606" stroke="black" stroke-width="1" fill="blue" tooltip="enable"><title>(3.98784,1)</title></rect><rect x="552" y="200" width="6" height="0" stroke="black" stroke-width="1" fill="blue" tooltip="enable"><title>(4.03167,0)</title></rect><rect x="558" y="199.92" width="6" height="0.0803213" stroke="black" stroke-width="1" fill="blue" tooltip="enable"><title>(4.07549,2)</title></rect><rect x="564" y="200" width="6" height="0" stroke="black" stroke-width="1" fill="blue" tooltip="enable"><title>(4.11931,0)</title></rect><rect x="570" y="200" width="6" height="0" stroke="black" stroke-width="1" fill="blue" tooltip="enable"><title>(4.16313,0)</title></rect><rect x="576" y="200" width="6" height="0" stroke="black" stroke-width="1" fill="blue" tooltip="enable"><title>(4.20695,0)</title></rect><rect x="582" y="200" width="6" height="0" stroke="black" stroke-width="1" fill="blue" tooltip="enable"><title>(4.25078,0)</title></rect><rect x="588" y="200" width="6" height="0" stroke="black" stroke-width="1" fill="blue" tooltip="enable"><title>(4.2946,0)</title></rect><rect x="594" y="200" width="6" height="0" stroke="black" stroke-width="1" fill="blue" tooltip="enable"><title>(4.33842,0)</title></rect><text x="30" y="240" font-size="20" fill="black">0</text>
<text x="600" y="240" font-size="20" fill="black">4.38225</text>
<polyline points="0,220,600,220" stroke="black" stroke-width="1" fill="none"/>
<text x="720" y="20" font-size="20" fill="black">4980</text>
<text x="720" y="200" font-size="20" fill="black">0</text>
<polyline points="660,0,660,200" stroke="black" stroke-width="1" fill="none"/>
</svg>