ply
format ascii 1.0
element vertex 14
property double x
property double y
property double z
property uchar red
property uchar green
property uchar blue
end_header
0.0000000000000000 0.0000000000000000 -0.0000000000000000 0 255 0
-0.0117656407369374 0.1595089577832720 0.0142143201402299 0 255 0
-0.0252759779052570 0.3992450360915707 0.0739725478372669 0 255 0
-0.0127223948713935 0.5694958503395483 0.1560378966029428 0 255 0
0.1510972895154958 0.6136993119333842 0.0675701034684370 0 255 0
0.1830649161218930 0.3822943669830320 0.0582515577115872 0 255 0
0.1857171573882726 0.1432931716538479 0.0513098837464870 0 255 0
0.1721436462840832 -0.1236673836936021 0.0408074692669330 0 255 0
0.2066786104864846 -0.3875670044358877 0.1091084202293768 0 255 0
0.1799646682526666 -0.6189670125778506 0.1720915060879728 0 255 0
-0.0312283937297444 -0.6153483901654430 0.2161712455007611 0 255 0
-0.0462221734111840 -0.4898275373729618 0.1705241587929808 0 255 0
-0.0233998046217653 -0.3158293233379127 0.0757357472136283 0 255 0
0.0017500337191572 -0.1282433632827485 0.0551399198024447 0 255 0
