<?xml version="1.0" encoding="UTF-8" standalone="no"?>
<!DOCTYPE svg PUBLIC "-//W3C//DTD SVG 1.1//EN"
 "http://www.w3.org/Graphics/SVG/1.1/DTD/svg11.dtd">
<!-- Generated by graphviz version 2.38.0 (20140413.2041)
 -->
<!-- Title: 1 Pages: 1 -->
<svg width="382pt" height="466pt"
 viewBox="0.00 0.00 381.55 465.66" xmlns="http://www.w3.org/2000/svg" xmlns:xlink="http://www.w3.org/1999/xlink">
<g id="graph0" class="graph" transform="scale(1 1) rotate(0) translate(187.573 246.947)">
<title>1</title>
<polygon fill="white" stroke="none" points="-187.573,218.715 -187.573,-246.947 193.973,-246.947 193.973,218.715 -187.573,218.715"/>
<!-- n12 -->
<g id="node1" class="node"><title>n12</title>
<ellipse fill="none" stroke="black" cx="-133.859" cy="-45.0201" rx="24.0958" ry="24.0958"/>
<text text-anchor="middle" x="-133.859" y="-41.3201" font-family="Times,serif" font-size="14.00">n12</text>
</g>
<!-- n13 -->
<g id="node2" class="node"><title>n13</title>
<ellipse fill="none" stroke="black" cx="-28.5561" cy="-16.5254" rx="24.0958" ry="24.0958"/>
<text text-anchor="middle" x="-28.5561" y="-12.8254" font-family="Times,serif" font-size="14.00">n13</text>
</g>
<!-- n12&#45;&#45;n13 -->
<g id="edge1" class="edge"><title>n12&#45;&#45;n13</title>
<path fill="none" stroke="black" d="M-110.489,-38.6962C-93.0383,-33.9742 -69.2956,-27.5494 -51.8608,-22.8317"/>
</g>
<!-- n11 -->
<g id="node3" class="node"><title>n11</title>
<ellipse fill="none" stroke="black" cx="-48.9451" cy="-155.75" rx="24.0958" ry="24.0958"/>
<text text-anchor="middle" x="-48.9451" y="-152.05" font-family="Times,serif" font-size="14.00">n11</text>
</g>
<!-- n11&#45;&#45;n12 -->
<g id="edge3" class="edge"><title>n11&#45;&#45;n12</title>
<path fill="none" stroke="black" d="M-63.736,-136.462C-79.2263,-116.262 -103.419,-84.7142 -118.953,-64.4583"/>
</g>
<!-- n11&#45;&#45;n13 -->
<g id="edge2" class="edge"><title>n11&#45;&#45;n13</title>
<path fill="none" stroke="black" d="M-45.4401,-131.816C-41.7056,-106.315 -35.8267,-66.1721 -32.0836,-40.6126"/>
</g>
<!-- n10 -->
<g id="node4" class="node"><title>n10</title>
<ellipse fill="none" stroke="black" cx="-159.525" cy="-153.566" rx="24.0958" ry="24.0958"/>
<text text-anchor="middle" x="-159.525" y="-149.866" font-family="Times,serif" font-size="14.00">n10</text>
</g>
<!-- n10&#45;&#45;n12 -->
<g id="edge5" class="edge"><title>n10&#45;&#45;n12</title>
<path fill="none" stroke="black" d="M-153.956,-130.013C-149.651,-111.806 -143.72,-86.7222 -139.417,-68.527"/>
</g>
<!-- n10&#45;&#45;n13 -->
<g id="edge4" class="edge"><title>n10&#45;&#45;n13</title>
<path fill="none" stroke="black" d="M-142.671,-135.931C-117.524,-109.617 -70.4553,-60.367 -45.3452,-34.0929"/>
</g>
<!-- n10&#45;&#45;n11 -->
<g id="edge6" class="edge"><title>n10&#45;&#45;n11</title>
<path fill="none" stroke="black" d="M-135.258,-154.045C-116.821,-154.409 -91.579,-154.908 -73.1558,-155.272"/>
</g>
<!-- n9 -->
<g id="node5" class="node"><title>n9</title>
<ellipse fill="none" stroke="black" cx="-26.3047" cy="-223.448" rx="19.4965" ry="19.4965"/>
<text text-anchor="middle" x="-26.3047" y="-219.748" font-family="Times,serif" font-size="14.00">n9</text>
</g>
<!-- n9&#45;&#45;n12 -->
<g id="edge8" class="edge"><title>n9&#45;&#45;n12</title>
<path fill="none" stroke="black" d="M-36.4232,-206.662C-56.19,-173.87 -99.8781,-101.393 -121.392,-65.702"/>
</g>
<!-- n9&#45;&#45;n13 -->
<g id="edge7" class="edge"><title>n9&#45;&#45;n13</title>
<path fill="none" stroke="black" d="M-26.5206,-203.608C-26.9355,-165.472 -27.843,-82.0652 -28.2927,-40.7322"/>
</g>
<!-- n9&#45;&#45;n11 -->
<g id="edge9" class="edge"><title>n9&#45;&#45;n11</title>
<path fill="none" stroke="black" d="M-32.4913,-204.949C-35.2146,-196.807 -38.4407,-187.16 -41.3117,-178.575"/>
</g>
<!-- n9&#45;&#45;n10 -->
<g id="edge10" class="edge"><title>n9&#45;&#45;n10</title>
<path fill="none" stroke="black" d="M-43.721,-214.313C-67.9831,-201.586 -111.919,-178.539 -138.14,-164.784"/>
</g>
<!-- n8 -->
<g id="node6" class="node"><title>n8</title>
<ellipse fill="none" stroke="black" cx="68.7831" cy="-142.292" rx="19.4965" ry="19.4965"/>
<text text-anchor="middle" x="68.7831" y="-138.592" font-family="Times,serif" font-size="14.00">n8</text>
</g>
<!-- n8&#45;&#45;n12 -->
<g id="edge12" class="edge"><title>n8&#45;&#45;n12</title>
<path fill="none" stroke="black" d="M51.1544,-133.83C14.1783,-116.08 -71.4037,-74.9997 -111.884,-55.5686"/>
</g>
<!-- n8&#45;&#45;n13 -->
<g id="edge11" class="edge"><title>n8&#45;&#45;n13</title>
<path fill="none" stroke="black" d="M56.8474,-126.87C39.0792,-103.913 5.69439,-60.7785 -13.6531,-35.7807"/>
</g>
<!-- n8&#45;&#45;n11 -->
<g id="edge13" class="edge"><title>n8&#45;&#45;n11</title>
<path fill="none" stroke="black" d="M49.3427,-144.514C28.9663,-146.843 -3.07435,-150.506 -24.9969,-153.012"/>
</g>
<!-- n8&#45;&#45;n10 -->
<g id="edge14" class="edge"><title>n8&#45;&#45;n10</title>
<path fill="none" stroke="black" d="M48.9216,-143.273C7.04514,-145.34 -90.1654,-150.141 -135.475,-152.378"/>
</g>
<!-- n8&#45;&#45;n9 -->
<g id="edge15" class="edge"><title>n8&#45;&#45;n9</title>
<path fill="none" stroke="black" d="M53.9256,-154.972C36.1663,-170.13 6.61368,-195.353 -11.2378,-210.589"/>
</g>
<!-- n7 -->
<g id="node7" class="node"><title>n7</title>
<ellipse fill="none" stroke="black" cx="-80.1022" cy="21.12" rx="19.4965" ry="19.4965"/>
<text text-anchor="middle" x="-80.1022" y="24.82" font-family="Times,serif" font-size="14.00">n7</text>
</g>
<!-- n7&#45;&#45;n12 -->
<g id="edge17" class="edge"><title>n7&#45;&#45;n12</title>
<path fill="none" stroke="black" d="M-92.5702,5.77989C-100.262,-3.68405 -110.19,-15.8985 -118.382,-25.9784"/>
</g>
<!-- n7&#45;&#45;n13 -->
<g id="edge16" class="edge"><title>n7&#45;&#45;n13</title>
<path fill="none" stroke="black" d="M-64.0752,9.4151C-58.992,5.70269 -53.3156,1.55706 -48.0182,-2.31176"/>
</g>
<!-- n7&#45;&#45;n11 -->
<g id="edge18" class="edge"><title>n7&#45;&#45;n11</title>
<path fill="none" stroke="black" d="M-76.7085,1.85513C-70.9675,-30.7348 -59.357,-96.6446 -53.1244,-132.026"/>
</g>
<!-- n7&#45;&#45;n10 -->
<g id="edge19" class="edge"><title>n7&#45;&#45;n10</title>
<path fill="none" stroke="black" d="M-88.3027,3.08347C-102.967,-29.1701 -133.632,-96.6146 -149.513,-131.544"/>
</g>
<!-- n7&#45;&#45;n9 -->
<g id="edge20" class="edge"><title>n7&#45;&#45;n9</title>
<path fill="none" stroke="black" d="M-75.8808,1.92912C-65.8242,-43.7893 -40.5433,-158.718 -30.5065,-204.347"/>
</g>
<!-- n7&#45;&#45;n8 -->
<g id="edge21" class="edge"><title>n7&#45;&#45;n8</title>
<path fill="none" stroke="black" d="M-66.8896,6.6183C-38.7072,-24.3138 27.0407,-96.4766 55.3861,-127.588"/>
</g>
<!-- n6 -->
<g id="node8" class="node"><title>n6</title>
<ellipse fill="none" stroke="black" cx="40.6011" cy="90.3741" rx="19.4965" ry="19.4965"/>
<text text-anchor="middle" x="40.6011" y="94.0741" font-family="Times,serif" font-size="14.00">n6</text>
</g>
<!-- n6&#45;&#45;n12 -->
<g id="edge23" class="edge"><title>n6&#45;&#45;n12</title>
<path fill="none" stroke="black" d="M25.1189,78.3588C-6.82036,53.5715 -79.9354,-3.17132 -114.751,-30.1909"/>
</g>
<!-- n6&#45;&#45;n13 -->
<g id="edge22" class="edge"><title>n6&#45;&#45;n13</title>
<path fill="none" stroke="black" d="M29.7953,73.6711C17.5628,54.7627 -2.36283,23.9627 -15.4668,3.70723"/>
</g>
<!-- n6&#45;&#45;n8 -->
<g id="edge24" class="edge"><title>n6&#45;&#45;n8</title>
<path fill="none" stroke="black" d="M42.9554,70.9374C48.2602,27.1415 61.0984,-78.8485 66.4157,-122.747"/>
</g>
<!-- n6&#45;&#45;n7 -->
<g id="edge25" class="edge"><title>n6&#45;&#45;n7</title>
<path fill="none" stroke="black" d="M23.5633,80.5986C0.558842,67.3997 -40.1913,44.0191 -63.151,30.8458"/>
</g>
<!-- n5 -->
<g id="node9" class="node"><title>n5</title>
<ellipse fill="none" stroke="black" cx="4.4699" cy="195.217" rx="19.4965" ry="19.4965"/>
<text text-anchor="middle" x="4.4699" y="198.917" font-family="Times,serif" font-size="14.00">n5</text>
</g>
<!-- n5&#45;&#45;n13 -->
<g id="edge26" class="edge"><title>n5&#45;&#45;n13</title>
<path fill="none" stroke="black" d="M1.4221,175.676C-4.64592,136.772 -18.22,49.7433 -24.8157,7.45514"/>
</g>
<!-- n5&#45;&#45;n7 -->
<g id="edge27" class="edge"><title>n5&#45;&#45;n7</title>
<path fill="none" stroke="black" d="M-4.10474,177.566C-20.3142,144.197 -55.2779,72.2224 -71.5049,38.8181"/>
</g>
<!-- n5&#45;&#45;n6 -->
<g id="edge28" class="edge"><title>n5&#45;&#45;n6</title>
<path fill="none" stroke="black" d="M10.9294,176.473C17.506,157.39 27.6412,127.98 34.1975,108.956"/>
</g>
<!-- n4 -->
<g id="node10" class="node"><title>n4</title>
<ellipse fill="none" stroke="black" cx="170.475" cy="112.75" rx="19.4965" ry="19.4965"/>
<text text-anchor="middle" x="170.475" y="116.45" font-family="Times,serif" font-size="14.00">n4</text>
</g>
<!-- n4&#45;&#45;n7 -->
<g id="edge29" class="edge"><title>n4&#45;&#45;n7</title>
<path fill="none" stroke="black" d="M152.049,106.012C105.71,89.0672 -15.2814,44.8235 -61.6497,27.8677"/>
</g>
<!-- n4&#45;&#45;n6 -->
<g id="edge30" class="edge"><title>n4&#45;&#45;n6</title>
<path fill="none" stroke="black" d="M151.031,109.4C126.547,105.182 84.7237,97.9761 60.1774,93.747"/>
</g>
<!-- n4&#45;&#45;n5 -->
<g id="edge31" class="edge"><title>n4&#45;&#45;n5</title>
<path fill="none" stroke="black" d="M152.709,121.576C120.758,137.448 53.9657,170.629 22.1076,186.455"/>
</g>
<!-- n3 -->
<g id="node11" class="node"><title>n3</title>
<ellipse fill="none" stroke="black" cx="110.724" cy="190.083" rx="19.4965" ry="19.4965"/>
<text text-anchor="middle" x="110.724" y="193.783" font-family="Times,serif" font-size="14.00">n3</text>
</g>
<!-- n3&#45;&#45;n13 -->
<g id="edge32" class="edge"><title>n3&#45;&#45;n13</title>
<path fill="none" stroke="black" d="M99.7948,173.87C74.5922,136.485 12.4582,44.3152 -15.0629,3.49037"/>
</g>
<!-- n3&#45;&#45;n6 -->
<g id="edge33" class="edge"><title>n3&#45;&#45;n6</title>
<path fill="none" stroke="black" d="M99.4574,174.063C86.3717,155.456 64.9133,124.944 51.8396,106.354"/>
</g>
<!-- n3&#45;&#45;n5 -->
<g id="edge34" class="edge"><title>n3&#45;&#45;n5</title>
<path fill="none" stroke="black" d="M91.2352,191.024C72.1834,191.945 43.3272,193.339 24.1948,194.264"/>
</g>
<!-- n3&#45;&#45;n4 -->
<g id="edge35" class="edge"><title>n3&#45;&#45;n4</title>
<path fill="none" stroke="black" d="M122.815,174.433C133.182,161.016 148.04,141.786 158.401,128.376"/>
</g>
<!-- n2 -->
<g id="node12" class="node"><title>n2</title>
<ellipse fill="none" stroke="black" cx="-74.1146" cy="145.436" rx="19.4965" ry="19.4965"/>
<text text-anchor="middle" x="-74.1146" y="149.136" font-family="Times,serif" font-size="14.00">n2</text>
</g>
<!-- n2&#45;&#45;n12 -->
<g id="edge37" class="edge"><title>n2&#45;&#45;n12</title>
<path fill="none" stroke="black" d="M-79.9519,126.828C-90.9332,91.8209 -114.635,16.2615 -126.615,-21.9266"/>
</g>
<!-- n2&#45;&#45;n13 -->
<g id="edge36" class="edge"><title>n2&#45;&#45;n13</title>
<path fill="none" stroke="black" d="M-68.7993,126.54C-60.4197,96.7504 -44.1603,38.9478 -35.0837,6.68038"/>
</g>
<!-- n2&#45;&#45;n7 -->
<g id="edge38" class="edge"><title>n2&#45;&#45;n7</title>
<path fill="none" stroke="black" d="M-75.0634,125.738C-76.1845,102.46 -78.0387,63.9638 -79.1579,40.7261"/>
</g>
<!-- n2&#45;&#45;n6 -->
<g id="edge39" class="edge"><title>n2&#45;&#45;n6</title>
<path fill="none" stroke="black" d="M-56.1903,136.833C-34.6391,126.488 1.30765,109.234 22.8026,98.9172"/>
</g>
<!-- n2&#45;&#45;n5 -->
<g id="edge40" class="edge"><title>n2&#45;&#45;n5</title>
<path fill="none" stroke="black" d="M-57.4489,155.993C-44.1128,164.441 -25.5015,176.231 -12.1718,184.675"/>
</g>
<!-- n2&#45;&#45;n4 -->
<g id="edge41" class="edge"><title>n2&#45;&#45;n4</title>
<path fill="none" stroke="black" d="M-54.5123,142.817C-8.60169,136.681 105.452,121.439 151.118,115.337"/>
</g>
<!-- n2&#45;&#45;n3 -->
<g id="edge42" class="edge"><title>n2&#45;&#45;n3</title>
<path fill="none" stroke="black" d="M-55.0299,150.046C-19.5182,158.624 56.3099,176.939 91.7429,185.498"/>
</g>
<!-- n1 -->
<g id="node13" class="node"><title>n1</title>
<ellipse fill="none" stroke="black" cx="111.923" cy="10.2795" rx="19.4965" ry="19.4965"/>
<text text-anchor="middle" x="111.923" y="13.9795" font-family="Times,serif" font-size="14.00">n1</text>
</g>
<!-- n1&#45;&#45;n12 -->
<g id="edge44" class="edge"><title>n1&#45;&#45;n12</title>
<path fill="none" stroke="black" d="M92.6366,5.94024C48.1626,-4.06619 -61.4826,-28.7358 -110.048,-39.6628"/>
</g>
<!-- n1&#45;&#45;n13 -->
<g id="edge43" class="edge"><title>n1&#45;&#45;n13</title>
<path fill="none" stroke="black" d="M92.6843,6.60859C67.2857,1.76225 22.5839,-6.76736 -4.866,-12.0051"/>
</g>
<!-- n1&#45;&#45;n11 -->
<g id="edge45" class="edge"><title>n1&#45;&#45;n11</title>
<path fill="none" stroke="black" d="M98.2072,-3.87607C68.8025,-34.2242 -0.222142,-105.464 -32.1729,-138.44"/>
</g>
<!-- n1&#45;&#45;n8 -->
<g id="edge46" class="edge"><title>n1&#45;&#45;n8</title>
<path fill="none" stroke="black" d="M106.546,-8.73526C98.2344,-38.1317 82.3623,-94.2663 74.0918,-123.517"/>
</g>
<!-- n1&#45;&#45;n7 -->
<g id="edge47" class="edge"><title>n1&#45;&#45;n7</title>
<path fill="none" stroke="black" d="M92.4536,11.3786C55.6492,13.4563 -23.7374,17.938 -60.5815,20.018"/>
</g>
<!-- n1&#45;&#45;n6 -->
<g id="edge48" class="edge"><title>n1&#45;&#45;n6</title>
<path fill="none" stroke="black" d="M98.8412,24.9701C85.9725,39.4217 66.4396,61.3573 53.5996,75.7767"/>
</g>
<!-- n1&#45;&#45;n5 -->
<g id="edge49" class="edge"><title>n1&#45;&#45;n5</title>
<path fill="none" stroke="black" d="M102.006,27.3465C81.5362,62.5778 34.8119,142.995 14.3622,178.191"/>
</g>
<!-- n1&#45;&#45;n4 -->
<g id="edge50" class="edge"><title>n1&#45;&#45;n4</title>
<path fill="none" stroke="black" d="M121.855,27.6623C132.687,46.6195 149.915,76.7686 160.689,95.6241"/>
</g>
<!-- n1&#45;&#45;n3 -->
<g id="edge51" class="edge"><title>n1&#45;&#45;n3</title>
<path fill="none" stroke="black" d="M111.792,29.8639C111.561,64.4505 111.085,135.953 110.854,170.522"/>
</g>
<!-- n1&#45;&#45;n2 -->
<g id="edge52" class="edge"><title>n1&#45;&#45;n2</title>
<path fill="none" stroke="black" d="M96.0613,21.8029C60.9136,47.3378 -23.183,108.434 -58.2933,133.942"/>
</g>
<!-- n0 -->
<g id="node14" class="node"><title>n0</title>
<ellipse fill="none" stroke="black" cx="44.4317" cy="-28.6579" rx="19.4965" ry="19.4965"/>
<text text-anchor="middle" x="44.4317" y="-24.9579" font-family="Times,serif" font-size="14.00">n0</text>
</g>
<!-- n0&#45;&#45;n12 -->
<g id="edge54" class="edge"><title>n0&#45;&#45;n12</title>
<path fill="none" stroke="black" d="M25.0121,-30.4401C-7.7494,-33.4467 -73.914,-39.5188 -109.649,-42.7983"/>
</g>
<!-- n0&#45;&#45;n13 -->
<g id="edge53" class="edge"><title>n0&#45;&#45;n13</title>
<path fill="none" stroke="black" d="M24.8723,-25.4066C15.7514,-23.8905 4.8172,-22.0729 -4.77705,-20.4781"/>
</g>
<!-- n0&#45;&#45;n11 -->
<g id="edge55" class="edge"><title>n0&#45;&#45;n11</title>
<path fill="none" stroke="black" d="M32.7942,-44.4972C15.7808,-67.6536 -15.8666,-110.728 -34.3951,-135.946"/>
</g>
<!-- n0&#45;&#45;n10 -->
<g id="edge56" class="edge"><title>n0&#45;&#45;n10</title>
<path fill="none" stroke="black" d="M27.741,-38.8796C-9.36295,-61.603 -98.5961,-116.252 -139.015,-141.005"/>
</g>
<!-- n0&#45;&#45;n9 -->
<g id="edge57" class="edge"><title>n0&#45;&#45;n9</title>
<path fill="none" stroke="black" d="M37.6492,-47.3352C24.094,-84.6629 -6.19342,-168.067 -19.646,-205.112"/>
</g>
<!-- n0&#45;&#45;n8 -->
<g id="edge58" class="edge"><title>n0&#45;&#45;n8</title>
<path fill="none" stroke="black" d="M48.5626,-47.9343C53.0405,-68.8302 60.1461,-101.988 64.6319,-122.921"/>
</g>
<!-- n0&#45;&#45;n7 -->
<g id="edge59" class="edge"><title>n0&#45;&#45;n7</title>
<path fill="none" stroke="black" d="M26.3234,-21.4198C2.71263,-11.9822 -38.3505,4.43128 -61.972,13.8731"/>
</g>
<!-- n0&#45;&#45;n6 -->
<g id="edge60" class="edge"><title>n0&#45;&#45;n6</title>
<path fill="none" stroke="black" d="M43.7991,-9.00217C43.0894,13.0526 41.9447,48.6226 41.2346,70.6892"/>
</g>
<!-- n0&#45;&#45;n5 -->
<g id="edge61" class="edge"><title>n0&#45;&#45;n5</title>
<path fill="none" stroke="black" d="M40.9552,-9.1821C33.3786,33.2642 15.4532,133.686 7.90985,175.946"/>
</g>
<!-- n0&#45;&#45;n4 -->
<g id="edge62" class="edge"><title>n0&#45;&#45;n4</title>
<path fill="none" stroke="black" d="M57.4458,-14.0573C81.5986,13.0398 133.101,70.8205 157.342,98.0172"/>
</g>
<!-- n0&#45;&#45;n3 -->
<g id="edge63" class="edge"><title>n0&#45;&#45;n3</title>
<path fill="none" stroke="black" d="M50.1987,-9.62876C62.7676,31.844 92.5038,129.963 105.017,171.253"/>
</g>
<!-- n0&#45;&#45;n2 -->
<g id="edge64" class="edge"><title>n0&#45;&#45;n2</title>
<path fill="none" stroke="black" d="M33.2791,-12.2795C10.6852,20.9014 -40.264,95.7241 -62.9054,128.975"/>
</g>
<!-- n0&#45;&#45;n1 -->
<g id="edge65" class="edge"><title>n0&#45;&#45;n1</title>
<path fill="none" stroke="black" d="M61.4625,-18.8323C71.6155,-12.9748 84.4692,-5.55913 94.6626,0.321662"/>
</g>
</g>
</svg>
