<?xml version="1.0" standalone="yes"?>
<!-- SVG graphic -->
<svg xmlns='http://www.w3.org/2000/svg' xmlns:xlink='http://www.w3.org/1999/xlink'
 version="1.1">
<rect x="0" y="3.78131" width="6" height="196.219" stroke="black" stroke-width="1" fill="blue" tooltip="enable"><title>(0,1920)</title></rect><rect x="6" y="0" width="6" height="200" stroke="black" stroke-width="1" fill="blue" tooltip="enable"><title>(0.0451694,1957)</title></rect><rect x="12" y="11.7527" width="6" height="188.247" stroke="black" stroke-width="1" fill="blue" tooltip="enable"><title>(0.0903389,1842)</title></rect><rect x="18" y="23.6076" width="6" height="176.392" stroke="black" stroke-width="1" fill="blue" tooltip="enable"><title>(0.135508,1726)</title></rect><rect x="24" y="35.1559" width="6" height="164.844" stroke="black" stroke-width="1" fill="blue" tooltip="enable"><title>(0.180678,1613)</title></rect><rect x="30" y="48.5437" width="6" height="151.456" stroke="black" stroke-width="1" fill="blue" tooltip="enable"><title>(0.225847,1482)</title></rect><rect x="36" y="64.3843" width="6" height="135.616" stroke="black" stroke-width="1" fill="blue" tooltip="enable"><title>(0.271017,1327)</title></rect><rect x="42" y="72.56" width="6" height="127.44" stroke="black" stroke-width="1" fill="blue" tooltip="enable"><title>(0.316186,1247)</title></rect><rect x="48" y="93.5105" width="6" height="106.49" stroke="black" stroke-width="1" fill="blue" tooltip="enable"><title>(0.361355,1042)</title></rect><rect x="54" y="102.095" width="6" height="97.905" stroke="black" stroke-width="1" fill="blue" tooltip="enable"><title>(0.406525,958)</title></rect><rect x="60" y="113.235" width="6" height="86.7655" stroke="black" stroke-width="1" fill="blue" tooltip="enable"><title>(0.451694,849)</title></rect><rect x="66" y="120.082" width="6" height="79.9182" stroke="black" stroke-width="1" fill="blue" tooltip="enable"><title>(0.496864,782)</title></rect><rect x="72" y="126.009" width="6" height="73.9908" stroke="black" stroke-width="1" fill="blue" tooltip="enable"><title>(0.542033,724)</title></rect><rect x="78" y="136.944" width="6" height="63.0557" stroke="black" stroke-width="1" fill="blue" tooltip="enable"><title>(0.587203,617)</title></rect><rect x="84" y="142.974" width="6" height="57.0261" stroke="black" stroke-width="1" fill="blue" tooltip="enable"><title>(0.632372,558)</title></rect><rect x="90" y="147.573" width="6" height="52.4272" stroke="black" stroke-width="1" fill="blue" tooltip="enable"><title>(0.677541,513)</title></rect><rect x="96" y="153.705" width="6" height="46.2953" stroke="black" stroke-width="1" fill="blue" tooltip="enable"><title>(0.722711,453)</title></rect><rect x="102" y="161.165" width="6" height="38.8349" stroke="black" stroke-width="1" fill="blue" tooltip="enable"><title>(0.76788,380)</title></rect><rect x="108" y="163.618" width="6" height="36.3822" stroke="black" stroke-width="1" fill="blue" tooltip="enable"><title>(0.81305,356)</title></rect><rect x="114" y="165.866" width="6" height="34.1339" stroke="black" stroke-width="1" fill="blue" tooltip="enable"><title>(0.858219,334)</title></rect><rect x="120" y="169.239" width="6" height="30.7614" stroke="black" stroke-width="1" fill="blue" tooltip="enable"><title>(0.903389,301)</title></rect><rect x="126" y="173.531" width="6" height="26.4691" stroke="black" stroke-width="1" fill="blue" tooltip="enable"><title>(0.948558,259)</title></rect><rect x="132" y="174.553" width="6" height="25.4471" stroke="black" stroke-width="1" fill="blue" tooltip="enable"><title>(0.993727,249)</title></rect><rect x="138" y="176.597" width="6" height="23.4032" stroke="black" stroke-width="1" fill="blue" tooltip="enable"><title>(1.0389,229)</title></rect><rect x="144" y="177.823" width="6" height="22.1768" stroke="black" stroke-width="1" fill="blue" tooltip="enable"><title>(1.08407,217)</title></rect><rect x="150" y="179.867" width="6" height="20.1329" stroke="black" stroke-width="1" fill="blue" tooltip="enable"><title>(1.12924,197)</title></rect><rect x="156" y="182.831" width="6" height="17.1691" stroke="black" stroke-width="1" fill="blue" tooltip="enable"><title>(1.17441,168)</title></rect><rect x="162" y="185.999" width="6" height="14.001" stroke="black" stroke-width="1" fill="blue" tooltip="enable"><title>(1.21957,137)</title></rect><rect x="168" y="185.079" width="6" height="14.9208" stroke="black" stroke-width="1" fill="blue" tooltip="enable"><title>(1.26474,146)</title></rect><rect x="174" y="184.568" width="6" height="15.4318" stroke="black" stroke-width="1" fill="blue" tooltip="enable"><title>(1.30991,151)</title></rect><rect x="180" y="189.678" width="6" height="10.3219" stroke="black" stroke-width="1" fill="blue" tooltip="enable"><title>(1.35508,101)</title></rect><rect x="186" y="187.43" width="6" height="12.5703" stroke="black" stroke-width="1" fill="blue" tooltip="enable"><title>(1.40025,123)</title></rect><rect x="192" y="188.247" width="6" height="11.7527" stroke="black" stroke-width="1" fill="blue" tooltip="enable"><title>(1.44542,115)</title></rect><rect x="198" y="188.963" width="6" height="11.0373" stroke="black" stroke-width="1" fill="blue" tooltip="enable"><title>(1.49059,108)</title></rect><rect x="204" y="190.802" width="6" height="9.19775" stroke="black" stroke-width="1" fill="blue" tooltip="enable"><title>(1.53576,90)</title></rect><rect x="210" y="190.904" width="6" height="9.09555" stroke="black" stroke-width="1" fill="blue" tooltip="enable"><title>(1.58093,89)</title></rect><rect x="216" y="191.518" width="6" height="8.48237" stroke="black" stroke-width="1" fill="blue" tooltip="enable"><title>(1.6261,83)</title></rect><rect x="222" y="191.62" width="6" height="8.38017" stroke="black" stroke-width="1" fill="blue" tooltip="enable"><title>(1.67127,82)</title></rect><rect x="228" y="192.233" width="6" height="7.76699" stroke="black" stroke-width="1" fill="blue" tooltip="enable"><title>(1.71644,76)</title></rect><rect x="234" y="193.153" width="6" height="6.84721" stroke="black" stroke-width="1" fill="blue" tooltip="enable"><title>(1.76161,67)</title></rect><rect x="240" y="194.584" width="6" height="5.41645" stroke="black" stroke-width="1" fill="blue" tooltip="enable"><title>(1.80678,53)</title></rect><rect x="246" y="192.846" width="6" height="7.15381" stroke="black" stroke-width="1" fill="blue" tooltip="enable"><title>(1.85195,70)</title></rect><rect x="252" y="194.073" width="6" height="5.92744" stroke="black" stroke-width="1" fill="blue" tooltip="enable"><title>(1.89712,58)</title></rect><rect x="258" y="193.97" width="6" height="6.02964" stroke="black" stroke-width="1" fill="blue" tooltip="enable"><title>(1.94229,59)</title></rect><rect x="264" y="194.89" width="6" height="5.10986" stroke="black" stroke-width="1" fill="blue" tooltip="enable"><title>(1.98745,50)</title></rect><rect x="270" y="194.686" width="6" height="5.31426" stroke="black" stroke-width="1" fill="blue" tooltip="enable"><title>(2.03262,52)</title></rect><rect x="276" y="194.89" width="6" height="5.10986" stroke="black" stroke-width="1" fill="blue" tooltip="enable"><title>(2.07779,50)</title></rect><rect x="282" y="196.219" width="6" height="3.7813" stroke="black" stroke-width="1" fill="blue" tooltip="enable"><title>(2.12296,37)</title></rect><rect x="288" y="195.912" width="6" height="4.08789" stroke="black" stroke-width="1" fill="blue" tooltip="enable"><title>(2.16813,40)</title></rect><rect x="294" y="197.138" width="6" height="2.86152" stroke="black" stroke-width="1" fill="blue" tooltip="enable"><title>(2.2133,28)</title></rect><rect x="300" y="197.036" width="6" height="2.96372" stroke="black" stroke-width="1" fill="blue" tooltip="enable"><title>(2.25847,29)</title></rect><rect x="306" y="196.321" width="6" height="3.6791" stroke="black" stroke-width="1" fill="blue" tooltip="enable"><title>(2.30364,36)</title></rect><rect x="312" y="196.73" width="6" height="3.27031" stroke="black" stroke-width="1" fill="blue" tooltip="enable"><title>(2.34881,32)</title></rect><rect x="318" y="197.752" width="6" height="2.24834" stroke="black" stroke-width="1" fill="blue" tooltip="enable"><title>(2.39398,22)</title></rect><rect x="324" y="197.343" width="6" height="2.65713" stroke="black" stroke-width="1" fill="blue" tooltip="enable"><title>(2.43915,26)</title></rect><rect x="330" y="197.343" width="6" height="2.65713" stroke="black" stroke-width="1" fill="blue" tooltip="enable"><title>(2.48432,26)</title></rect><rect x="336" y="196.934" width="6" height="3.06592" stroke="black" stroke-width="1" fill="blue" tooltip="enable"><title>(2.52949,30)</title></rect><rect x="342" y="197.036" width="6" height="2.96372" stroke="black" stroke-width="1" fill="blue" tooltip="enable"><title>(2.57466,29)</title></rect><rect x="348" y="196.934" width="6" height="3.06592" stroke="black" stroke-width="1" fill="blue" tooltip="enable"><title>(2.61983,30)</title></rect><rect x="354" y="198.671" width="6" height="1.32856" stroke="black" stroke-width="1" fill="blue" tooltip="enable"><title>(2.665,13)</title></rect><rect x="360" y="197.649" width="6" height="2.35054" stroke="black" stroke-width="1" fill="blue" tooltip="enable"><title>(2.71017,23)</title></rect><rect x="366" y="197.138" width="6" height="2.86152" stroke="black" stroke-width="1" fill="blue" tooltip="enable"><title>(2.75534,28)</title></rect><rect x="372" y="198.16" width="6" height="1.83955" stroke="black" stroke-width="1" fill="blue" tooltip="enable"><title>(2.8005,18)</title></rect><rect x="378" y="198.365" width="6" height="1.63516" stroke="black" stroke-width="1" fill="blue" tooltip="enable"><title>(2.84567,16)</title></rect><rect x="384" y="198.16" width="6" height="1.83955" stroke="black" stroke-width="1" fill="blue" tooltip="enable"><title>(2.89084,18)</title></rect><rect x="390" y="198.058" width="6" height="1.94175" stroke="black" stroke-width="1" fill="blue" tooltip="enable"><title>(2.93601,19)</title></rect><rect x="396" y="198.365" width="6" height="1.63516" stroke="black" stroke-width="1" fill="blue" tooltip="enable"><title>(2.98118,16)</title></rect><rect x="402" y="199.08" width="6" height="0.919775" stroke="black" stroke-width="1" fill="blue" tooltip="enable"><title>(3.02635,9)</title></rect><rect x="408" y="198.16" width="6" height="1.83955" stroke="black" stroke-width="1" fill="blue" tooltip="enable"><title>(3.07152,18)</title></rect><rect x="414" y="198.876" width="6" height="1.12417" stroke="black" stroke-width="1" fill="blue" tooltip="enable"><title>(3.11669,11)</title></rect><rect x="420" y="199.08" width="6" height="0.919775" stroke="black" stroke-width="1" fill="blue" tooltip="enable"><title>(3.16186,9)</title></rect><rect x="426" y="199.182" width="6" height="0.817578" stroke="black" stroke-width="1" fill="blue" tooltip="enable"><title>(3.20703,8)</title></rect><rect x="432" y="199.182" width="6" height="0.817578" stroke="black" stroke-width="1" fill="blue" tooltip="enable"><title>(3.2522,8)</title></rect><rect x="438" y="198.876" width="6" height="1.12417" stroke="black" stroke-width="1" fill="blue" tooltip="enable"><title>(3.29737,11)</title></rect><rect x="444" y="198.876" width="6" height="1.12417" stroke="black" stroke-width="1" fill="blue" tooltip="enable"><title>(3.34254,11)</title></rect><rect x="450" y="199.182" width="6" height="0.817578" stroke="black" stroke-width="1" fill="blue" tooltip="enable"><title>(3.38771,8)</title></rect><rect x="456" y="199.693" width="6" height="0.306592" stroke="black" stroke-width="1" fill="blue" tooltip="enable"><title>(3.43288,3)</title></rect><rect x="462" y="198.467" width="6" height="1.53296" stroke="black" stroke-width="1" fill="blue" tooltip="enable"><title>(3.47805,15)</title></rect><rect x="468" y="199.285" width="6" height="0.715381" stroke="black" stroke-width="1" fill="blue" tooltip="enable"><title>(3.52322,7)</title></rect><rect x="474" y="199.489" width="6" height="0.510986" stroke="black" stroke-width="1" fill="blue" tooltip="enable"><title>(3.56839,5)</title></rect><rect x="480" y="199.285" width="6" height="0.715381" stroke="black" stroke-width="1" fill="blue" tooltip="enable"><title>(3.61355,7)</title></rect><rect x="486" y="199.387" width="6" height="0.613183" stroke="black" stroke-width="1" fill="blue" tooltip="enable"><title>(3.65872,6)</title></rect><rect x="492" y="199.693" width="6" height="0.306592" stroke="black" stroke-width="1" fill="blue" tooltip="enable"><title>(3.70389,3)</title></rect><rect x="498" y="199.898" width="6" height="0.102197" stroke="black" stroke-width="1" fill="blue" tooltip="enable"><title>(3.74906,1)</title></rect><rect x="504" y="199.693" width="6" height="0.306592" stroke="black" stroke-width="1" fill="blue" tooltip="enable"><title>(3.79423,3)</title></rect><rect x="510" y="199.591" width="6" height="0.408789" stroke="black" stroke-width="1" fill="blue" tooltip="enable"><title>(3.8394,4)</title></rect><rect x="516" y="199.796" width="6" height="0.204394" stroke="black" stroke-width="1" fill="blue" tooltip="enable"><title>(3.88457,2)</title></rect><rect x="522" y="199.693" width="6" height="0.306592" stroke="black" stroke-width="1" fill="blue" tooltip="enable"><title>(3.92974,3)</title></rect><rect x="528" y="199.693" width="6" height="0.306592" stroke="black" stroke-width="1" fill="blue" tooltip="enable"><title>(3.97491,3)</title></rect><rect x="534" y="200" width="6" height="0" stroke="black" stroke-width="1" fill="blue" tooltip="enable"><title>(4.02008,0)</title></rect><rect x="540" y="199.898" width="6" height="0.102197" stroke="black" stroke-width="1" fill="blue" tooltip="enable"><title>(4.06525,1)</title></rect><rect x="546" y="200" width="6" height="0" stroke="black" stroke-width="1" fill="blue" tooltip="enable"><title>(4.11042,0)</title></rect><rect x="552" y="200" width="6" height="0" stroke="black" stroke-width="1" fill="blue" tooltip="enable"><title>(4.15559,0)</title></rect><rect x="558" y="200" width="6" height="0" stroke="black" stroke-width="1" fill="blue" tooltip="enable"><title>(4.20076,0)</title></rect><rect x="564" y="200" width="6" height="0" stroke="black" stroke-width="1" fill="blue" tooltip="enable"><title>(4.24593,0)</title></rect><rect x="570" y="200" width="6" height="0" stroke="black" stroke-width="1" fill="blue" tooltip="enable"><title>(4.2911,0)</title></rect><rect x="576" y="200" width="6" height="0" stroke="black" stroke-width="1" fill="blue" tooltip="enable"><title>(4.33627,0)</title></rect><rect x="582" y="200" width="6" height="0" stroke="black" stroke-width="1" fill="blue" tooltip="enable"><title>(4.38143,0)</title></rect><rect x="588" y="199.898" width="6" height="0.102197" stroke="black" stroke-width="1" fill="blue" tooltip="enable"><title>(4.4266,1)</title></rect><rect x="594" y="200" width="6" height="0" stroke="black" stroke-width="1" fill="blue" tooltip="enable"><title>(4.47177,0)</title></rect><text x="30" y="240" font-size="20" fill="black">0</text>
<text x="600" y="240" font-size="20" fill="black">4.51694</text>
<polyline points="0,220,600,220" stroke="black" stroke-width="1" fill="none"/>
<text x="720" y="20" font-size="20" fill="black">1957</text>
<text x="720" y="200" font-size="20" fill="black">0</text>
<polyline points="660,0,660,200" stroke="black" stroke-width="1" fill="none"/>
</svg>