ply
format ascii 1.0
element vertex 12
property double x
property double y
property double z
property uchar red
property uchar green
property uchar blue
end_header
0.0000000000000000 0.0000000000000000 -0.0000000000000000 0 255 0
-0.2149046233244627 -0.0116514810139207 0.0296916029432514 0 255 0
-0.3842221296900035 -0.0106076378211165 0.0847526961783495 0 255 0
-0.5511106062412906 -0.0327661981474089 0.1629059068266309 0 255 0
-0.6043274164606941 0.1618298865905219 0.1408278563361108 0 255 0
-0.3395838359959645 0.1751502215767652 0.0715722050849571 0 255 0
-0.1447918210474091 0.1833524166263744 0.0198995199448461 0 255 0
0.1937639790618960 0.1696373865151545 0.0111281450236136 0 255 0
0.4429380722430333 0.1762269426707039 0.0789056718336561 0 255 0
0.6473079122316568 0.1232406611335672 0.1707771136245676 0 255 0
0.6626715876800395 -0.0509750668080474 0.2091566961115282 0 255 0
0.3762031323224054 -0.0444073102354508 0.0963507871264842 0 255 0
