<?xml version="1.0" standalone="yes"?>
<!-- SVG graphic -->
<svg xmlns='http://www.w3.org/2000/svg' xmlns:xlink='http://www.w3.org/1999/xlink'
 version="1.1">
<rect x="0" y="0.470963" width="6" height="199.529" stroke="black" stroke-width="1" fill="blue" tooltip="enable"><title>(0,1271)</title></rect><rect x="6" y="1.52588e-05" width="6" height="200" stroke="black" stroke-width="1" fill="blue" tooltip="enable"><title>(0.0480695,1274)</title></rect><rect x="12" y="13.1868" width="6" height="186.813" stroke="black" stroke-width="1" fill="blue" tooltip="enable"><title>(0.0961391,1190)</title></rect><rect x="18" y="20.4082" width="6" height="179.592" stroke="black" stroke-width="1" fill="blue" tooltip="enable"><title>(0.144209,1144)</title></rect><rect x="24" y="25.9027" width="6" height="174.097" stroke="black" stroke-width="1" fill="blue" tooltip="enable"><title>(0.192278,1109)</title></rect><rect x="30" y="47.0958" width="6" height="152.904" stroke="black" stroke-width="1" fill="blue" tooltip="enable"><title>(0.240348,974)</title></rect><rect x="36" y="58.0848" width="6" height="141.915" stroke="black" stroke-width="1" fill="blue" tooltip="enable"><title>(0.288417,904)</title></rect><rect x="42" y="70.6436" width="6" height="129.356" stroke="black" stroke-width="1" fill="blue" tooltip="enable"><title>(0.336487,824)</title></rect><rect x="48" y="81.3187" width="6" height="118.681" stroke="black" stroke-width="1" fill="blue" tooltip="enable"><title>(0.384556,756)</title></rect><rect x="54" y="96.5463" width="6" height="103.454" stroke="black" stroke-width="1" fill="blue" tooltip="enable"><title>(0.432626,659)</title></rect><rect x="60" y="104.553" width="6" height="95.4474" stroke="black" stroke-width="1" fill="blue" tooltip="enable"><title>(0.480695,608)</title></rect><rect x="66" y="115.542" width="6" height="84.4584" stroke="black" stroke-width="1" fill="blue" tooltip="enable"><title>(0.528765,538)</title></rect><rect x="72" y="121.193" width="6" height="78.8069" stroke="black" stroke-width="1" fill="blue" tooltip="enable"><title>(0.576834,502)</title></rect><rect x="78" y="124.961" width="6" height="75.0392" stroke="black" stroke-width="1" fill="blue" tooltip="enable"><title>(0.624904,478)</title></rect><rect x="84" y="135.479" width="6" height="64.5212" stroke="black" stroke-width="1" fill="blue" tooltip="enable"><title>(0.672973,411)</title></rect><rect x="90" y="143.171" width="6" height="56.8289" stroke="black" stroke-width="1" fill="blue" tooltip="enable"><title>(0.721043,362)</title></rect><rect x="96" y="151.805" width="6" height="48.1947" stroke="black" stroke-width="1" fill="blue" tooltip="enable"><title>(0.769112,307)</title></rect><rect x="102" y="151.491" width="6" height="48.5086" stroke="black" stroke-width="1" fill="blue" tooltip="enable"><title>(0.817182,309)</title></rect><rect x="108" y="156.358" width="6" height="43.6421" stroke="black" stroke-width="1" fill="blue" tooltip="enable"><title>(0.865252,278)</title></rect><rect x="114" y="156.044" width="6" height="43.956" stroke="black" stroke-width="1" fill="blue" tooltip="enable"><title>(0.913321,280)</title></rect><rect x="120" y="163.422" width="6" height="36.5777" stroke="black" stroke-width="1" fill="blue" tooltip="enable"><title>(0.961391,233)</title></rect><rect x="126" y="169.702" width="6" height="30.2983" stroke="black" stroke-width="1" fill="blue" tooltip="enable"><title>(1.00946,193)</title></rect><rect x="132" y="168.289" width="6" height="31.7111" stroke="black" stroke-width="1" fill="blue" tooltip="enable"><title>(1.05753,202)</title></rect><rect x="138" y="170.644" width="6" height="29.3564" stroke="black" stroke-width="1" fill="blue" tooltip="enable"><title>(1.1056,187)</title></rect><rect x="144" y="174.568" width="6" height="25.4317" stroke="black" stroke-width="1" fill="blue" tooltip="enable"><title>(1.15367,162)</title></rect><rect x="150" y="175.824" width="6" height="24.1758" stroke="black" stroke-width="1" fill="blue" tooltip="enable"><title>(1.20174,154)</title></rect><rect x="156" y="181.005" width="6" height="18.9953" stroke="black" stroke-width="1" fill="blue" tooltip="enable"><title>(1.24981,121)</title></rect><rect x="162" y="179.749" width="6" height="20.2512" stroke="black" stroke-width="1" fill="blue" tooltip="enable"><title>(1.29788,129)</title></rect><rect x="168" y="181.162" width="6" height="18.8383" stroke="black" stroke-width="1" fill="blue" tooltip="enable"><title>(1.34595,120)</title></rect><rect x="174" y="184.144" width="6" height="15.8556" stroke="black" stroke-width="1" fill="blue" tooltip="enable"><title>(1.39402,101)</title></rect><rect x="180" y="184.458" width="6" height="15.5416" stroke="black" stroke-width="1" fill="blue" tooltip="enable"><title>(1.44209,99)</title></rect><rect x="186" y="188.069" width="6" height="11.9309" stroke="black" stroke-width="1" fill="blue" tooltip="enable"><title>(1.49016,76)</title></rect><rect x="192" y="185.714" width="6" height="14.2857" stroke="black" stroke-width="1" fill="blue" tooltip="enable"><title>(1.53822,91)</title></rect><rect x="198" y="184.929" width="6" height="15.0706" stroke="black" stroke-width="1" fill="blue" tooltip="enable"><title>(1.58629,96)</title></rect><rect x="204" y="184.929" width="6" height="15.0706" stroke="black" stroke-width="1" fill="blue" tooltip="enable"><title>(1.63436,96)</title></rect><rect x="210" y="186.97" width="6" height="13.0298" stroke="black" stroke-width="1" fill="blue" tooltip="enable"><title>(1.68243,83)</title></rect><rect x="216" y="189.168" width="6" height="10.832" stroke="black" stroke-width="1" fill="blue" tooltip="enable"><title>(1.7305,69)</title></rect><rect x="222" y="191.209" width="6" height="8.79121" stroke="black" stroke-width="1" fill="blue" tooltip="enable"><title>(1.77857,56)</title></rect><rect x="228" y="191.837" width="6" height="8.16327" stroke="black" stroke-width="1" fill="blue" tooltip="enable"><title>(1.82664,52)</title></rect><rect x="234" y="191.68" width="6" height="8.32025" stroke="black" stroke-width="1" fill="blue" tooltip="enable"><title>(1.87471,53)</title></rect><rect x="240" y="192.465" width="6" height="7.53532" stroke="black" stroke-width="1" fill="blue" tooltip="enable"><title>(1.92278,48)</title></rect><rect x="246" y="192.308" width="6" height="7.69231" stroke="black" stroke-width="1" fill="blue" tooltip="enable"><title>(1.97085,49)</title></rect><rect x="252" y="192.779" width="6" height="7.22135" stroke="black" stroke-width="1" fill="blue" tooltip="enable"><title>(2.01892,46)</title></rect><rect x="258" y="192.151" width="6" height="7.84929" stroke="black" stroke-width="1" fill="blue" tooltip="enable"><title>(2.06699,50)</title></rect><rect x="264" y="193.25" width="6" height="6.75039" stroke="black" stroke-width="1" fill="blue" tooltip="enable"><title>(2.11506,43)</title></rect><rect x="270" y="195.761" width="6" height="4.23862" stroke="black" stroke-width="1" fill="blue" tooltip="enable"><title>(2.16313,27)</title></rect><rect x="276" y="194.192" width="6" height="5.80848" stroke="black" stroke-width="1" fill="blue" tooltip="enable"><title>(2.2112,37)</title></rect><rect x="282" y="194.505" width="6" height="5.49451" stroke="black" stroke-width="1" fill="blue" tooltip="enable"><title>(2.25927,35)</title></rect><rect x="288" y="194.192" width="6" height="5.80848" stroke="black" stroke-width="1" fill="blue" tooltip="enable"><title>(2.30734,37)</title></rect><rect x="294" y="195.918" width="6" height="4.08163" stroke="black" stroke-width="1" fill="blue" tooltip="enable"><title>(2.35541,26)</title></rect><rect x="300" y="193.878" width="6" height="6.12245" stroke="black" stroke-width="1" fill="blue" tooltip="enable"><title>(2.40348,39)</title></rect><rect x="306" y="197.645" width="6" height="2.35479" stroke="black" stroke-width="1" fill="blue" tooltip="enable"><title>(2.45155,15)</title></rect><rect x="312" y="195.918" width="6" height="4.08163" stroke="black" stroke-width="1" fill="blue" tooltip="enable"><title>(2.49962,26)</title></rect><rect x="318" y="196.86" width="6" height="3.13972" stroke="black" stroke-width="1" fill="blue" tooltip="enable"><title>(2.54768,20)</title></rect><rect x="324" y="196.703" width="6" height="3.2967" stroke="black" stroke-width="1" fill="blue" tooltip="enable"><title>(2.59575,21)</title></rect><rect x="330" y="196.075" width="6" height="3.92465" stroke="black" stroke-width="1" fill="blue" tooltip="enable"><title>(2.64382,25)</title></rect><rect x="336" y="197.017" width="6" height="2.98273" stroke="black" stroke-width="1" fill="blue" tooltip="enable"><title>(2.69189,19)</title></rect><rect x="342" y="197.488" width="6" height="2.51177" stroke="black" stroke-width="1" fill="blue" tooltip="enable"><title>(2.73996,16)</title></rect><rect x="348" y="196.86" width="6" height="3.13972" stroke="black" stroke-width="1" fill="blue" tooltip="enable"><title>(2.78803,20)</title></rect><rect x="354" y="197.331" width="6" height="2.66876" stroke="black" stroke-width="1" fill="blue" tooltip="enable"><title>(2.8361,17)</title></rect><rect x="360" y="197.802" width="6" height="2.1978" stroke="black" stroke-width="1" fill="blue" tooltip="enable"><title>(2.88417,14)</title></rect><rect x="366" y="197.017" width="6" height="2.98273" stroke="black" stroke-width="1" fill="blue" tooltip="enable"><title>(2.93224,19)</title></rect><rect x="372" y="197.331" width="6" height="2.66876" stroke="black" stroke-width="1" fill="blue" tooltip="enable"><title>(2.98031,17)</title></rect><rect x="378" y="198.116" width="6" height="1.88383" stroke="black" stroke-width="1" fill="blue" tooltip="enable"><title>(3.02838,12)</title></rect><rect x="384" y="198.744" width="6" height="1.25589" stroke="black" stroke-width="1" fill="blue" tooltip="enable"><title>(3.07645,8)</title></rect><rect x="390" y="198.587" width="6" height="1.41287" stroke="black" stroke-width="1" fill="blue" tooltip="enable"><title>(3.12452,9)</title></rect><rect x="396" y="198.744" width="6" height="1.25589" stroke="black" stroke-width="1" fill="blue" tooltip="enable"><title>(3.17259,8)</title></rect><rect x="402" y="199.058" width="6" height="0.941915" stroke="black" stroke-width="1" fill="blue" tooltip="enable"><title>(3.22066,6)</title></rect><rect x="408" y="197.802" width="6" height="2.1978" stroke="black" stroke-width="1" fill="blue" tooltip="enable"><title>(3.26873,14)</title></rect><rect x="414" y="197.959" width="6" height="2.04082" stroke="black" stroke-width="1" fill="blue" tooltip="enable"><title>(3.3168,13)</title></rect><rect x="420" y="197.802" width="6" height="2.1978" stroke="black" stroke-width="1" fill="blue" tooltip="enable"><title>(3.36487,14)</title></rect><rect x="426" y="198.744" width="6" height="1.25589" stroke="black" stroke-width="1" fill="blue" tooltip="enable"><title>(3.41294,8)</title></rect><rect x="432" y="198.744" width="6" height="1.25589" stroke="black" stroke-width="1" fill="blue" tooltip="enable"><title>(3.46101,8)</title></rect><rect x="438" y="199.529" width="6" height="0.470958" stroke="black" stroke-width="1" fill="blue" tooltip="enable"><title>(3.50908,3)</title></rect><rect x="444" y="199.529" width="6" height="0.470958" stroke="black" stroke-width="1" fill="blue" tooltip="enable"><title>(3.55715,3)</title></rect><rect x="450" y="199.686" width="6" height="0.313972" stroke="black" stroke-width="1" fill="blue" tooltip="enable"><title>(3.60521,2)</title></rect><rect x="456" y="199.372" width="6" height="0.627943" stroke="black" stroke-width="1" fill="blue" tooltip="enable"><title>(3.65328,4)</title></rect><rect x="462" y="199.372" width="6" height="0.627943" stroke="black" stroke-width="1" fill="blue" tooltip="enable"><title>(3.70135,4)</title></rect><rect x="468" y="199.215" width="6" height="0.784929" stroke="black" stroke-width="1" fill="blue" tooltip="enable"><title>(3.74942,5)</title></rect><rect x="474" y="199.529" width="6" height="0.470958" stroke="black" stroke-width="1" fill="blue" tooltip="enable"><title>(3.79749,3)</title></rect><rect x="480" y="199.215" width="6" height="0.784929" stroke="black" stroke-width="1" fill="blue" tooltip="enable"><title>(3.84556,5)</title></rect><rect x="486" y="200" width="6" height="0" stroke="black" stroke-width="1" fill="blue" tooltip="enable"><title>(3.89363,0)</title></rect><rect x="492" y="199.843" width="6" height="0.156986" stroke="black" stroke-width="1" fill="blue" tooltip="enable"><title>(3.9417,1)</title></rect><rect x="498" y="199.843" width="6" height="0.156986" stroke="black" stroke-width="1" fill="blue" tooltip="enable"><title>(3.98977,1)</title></rect><rect x="504" y="199.529" width="6" height="0.470958" stroke="black" stroke-width="1" fill="blue" tooltip="enable"><title>(4.03784,3)</title></rect><rect x="510" y="200" width="6" height="0" stroke="black" stroke-width="1" fill="blue" tooltip="enable"><title>(4.08591,0)</title></rect><rect x="516" y="200" width="6" height="0" stroke="black" stroke-width="1" fill="blue" tooltip="enable"><title>(4.13398,0)</title></rect><rect x="522" y="200" width="6" height="0" stroke="black" stroke-width="1" fill="blue" tooltip="enable"><title>(4.18205,0)</title></rect><rect x="528" y="199.843" width="6" height="0.156986" stroke="black" stroke-width="1" fill="blue" tooltip="enable"><title>(4.23012,1)</title></rect><rect x="534" y="200" width="6" height="0" stroke="black" stroke-width="1" fill="blue" tooltip="enable"><title>(4.27819,0)</title></rect><rect x="540" y="200" width="6" height="0" stroke="black" stroke-width="1" fill="blue" tooltip="enable"><title>(4.32626,0)</title></rect><rect x="546" y="200" width="6" height="0" stroke="black" stroke-width="1" fill="blue" tooltip="enable"><title>(4.37433,0)</title></rect><rect x="552" y="199.843" width="6" height="0.156986" stroke="black" stroke-width="1" fill="blue" tooltip="enable"><title>(4.4224,1)</title></rect><rect x="558" y="200" width="6" height="0" stroke="black" stroke-width="1" fill="blue" tooltip="enable"><title>(4.47047,0)</title></rect><rect x="564" y="200" width="6" height="0" stroke="black" stroke-width="1" fill="blue" tooltip="enable"><title>(4.51854,0)</title></rect><rect x="570" y="200" width="6" height="0" stroke="black" stroke-width="1" fill="blue" tooltip="enable"><title>(4.56661,0)</title></rect><rect x="576" y="200" width="6" height="0" stroke="black" stroke-width="1" fill="blue" tooltip="enable"><title>(4.61467,0)</title></rect><rect x="582" y="200" width="6" height="0" stroke="black" stroke-width="1" fill="blue" tooltip="enable"><title>(4.66274,0)</title></rect><rect x="588" y="200" width="6" height="0" stroke="black" stroke-width="1" fill="blue" tooltip="enable"><title>(4.71081,0)</title></rect><rect x="594" y="200" width="6" height="0" stroke="black" stroke-width="1" fill="blue" tooltip="enable"><title>(4.75888,0)</title></rect><text x="30" y="240" font-size="20" fill="black">0</text>
<text x="600" y="240" font-size="20" fill="black">4.80695</text>
<polyline points="0,220,600,220" stroke="black" stroke-width="1" fill="none"/>
<text x="720" y="20" font-size="20" fill="black">1274</text>
<text x="720" y="200" font-size="20" fill="black">0</text>
<polyline points="660,0,660,200" stroke="black" stroke-width="1" fill="none"/>
</svg>